<svg fill="none" height="20" viewBox="0 0 20 20" width="20" xmlns="http://www.w3.org/2000/svg">
    <path clip-rule="evenodd"
        d="M20 10C20 15.5228 15.5228 20 10 20C4.47715 20 0 15.5228 0 10C0 4.47715 4.47715 0 10 0C15.5228 0 20 4.47715 20 10ZM10 9C10.5523 9 11 9.44771 11 10V15.0009C11 15.5532 10.5523 16.0009 10 16.0009C9.44771 16.0009 9 15.5532 9 15.0009V10C9 9.44771 9.44771 9 10 9ZM10 7C10.5523 7 11 6.55228 11 6C11 5.44772 10.5523 5 10 5C9.44771 5 9 5.44772 9 6C9 6.55228 9.44771 7 10 7Z"
        fill="#FF0000" fill-rule="evenodd" />
</svg>
