<svg fill="none" height="20" viewBox="0 0 20 20" width="20" xmlns="http://www.w3.org/2000/svg">
    <path
        d="M16.3 5.1L17.7 3.7L19.7 1.7C20.1 1.3 20.1 0.7 19.7 0.3C19.3 -0.1 18.7 -0.1 18.3 0.3L16.3 2.3C12.7 -0.7 7.4 -0.8 3.7 2.3C3.5 2.4 3.3 2.6 3.1 2.8V1C3.1 0.4 2.7 5.21541e-08 2.1 5.21541e-08C1.5 5.21541e-08 1.1 0.4 1.1 1V5.5C1.1 6.1 1.5 6.5 2.1 6.5H6.6C7.2 6.5 7.6 6.1 7.6 5.5C7.6 4.9 7.2 4.5 6.6 4.5H4.2C6.7 1.9 10.7 1.2 14 3.1C14.3 3.3 14.6 3.5 14.9 3.7L3.7 14.9C2.6 13.5 2 11.8 2 10C2 9.4 1.6 9 1 9C0.4 9 0 9.4 0 10C0 12.3 0.8 14.6 2.3 16.3L0.3 18.3C0.0999999 18.5 0 18.7 0 19C0 19.6 0.4 20 1 20C1.3 20 1.5 19.9 1.7 19.7L3.7 17.7L5.1 16.3L16.3 5.1ZM17.9 13.5H13.4C12.8 13.5 12.4 13.9 12.4 14.5C12.4 15.1 12.8 15.5 13.4 15.5H15.8C13.6 17.9 10 18.7 6.9 17.4L5.4 18.9C6.8 19.6 8.4 20 10 20C12.6 20 15 19 16.9 17.2V19C16.9 19.6 17.3 20 17.9 20C18.5 20 18.9 19.6 18.9 19V14.5C18.9 13.9 18.4 13.5 17.9 13.5ZM17.4 6.9C17.8 7.9 18 8.9 18 10C18 10.6 18.4 11 19 11C19.6 11 20 10.6 20 10C20 8.4 19.6 6.8 18.9 5.4L17.4 6.9Z"
        fill="#FF0000" />
</svg>
