<svg width="20" height="20" viewBox="0 0 20 20" fill="none" xmlns="http://www.w3.org/2000/svg">
<g clip-path="url(#clip0_148_9399)">
<path d="M4.16667 5.5525V14.4475C5.15167 14.9158 5.83333 15.92 5.83333 17.0833C5.83333 18.6942 4.5275 20 2.91667 20C1.30583 20 0 18.6942 0 17.0833C0 15.92 0.681667 14.9158 1.66667 14.4475V5.5525C0.681667 5.08417 0 4.08 0 2.91667C0 1.30583 1.30583 0 2.91667 0C4.5275 0 5.83333 1.30583 5.83333 2.91667C5.83333 4.08 5.15167 5.08417 4.16667 5.5525ZM18.3333 14.4475V5.41667C18.3333 3.80833 17.025 2.5 15.4167 2.5H11.6667V0L8.5775 3.16083C8.2525 3.48667 8.2525 4.01417 8.5775 4.33917L11.6667 7.5V5H15.4167C15.6458 5 15.8333 5.18667 15.8333 5.41667V14.4475C14.8483 14.9158 14.1667 15.92 14.1667 17.0833C14.1667 18.6942 15.4725 20 17.0833 20C18.6942 20 20 18.6942 20 17.0833C20 15.92 19.3183 14.9158 18.3333 14.4475Z" fill="#E94033"/>
</g>
<defs>
<clipPath id="clip0_148_9399">
<rect width="20" height="20" fill="white"/>
</clipPath>
</defs>
</svg>
