<svg width="18" height="18" viewBox="0 0 18 18" fill="none" xmlns="http://www.w3.org/2000/svg">
<g clip-path="url(#clip0_914_2913)">
<path d="M14.7562 2.06858C13.806 1.27782 12.7023 0.692448 11.5146 0.349351C10.3269 0.0062543 9.08105 -0.0871319 7.8555 0.0750769C5.58829 0.369615 3.51816 1.51596 2.06544 3.28133C0.612714 5.04671 -0.113702 7.29879 0.0336891 9.58029C0.18108 11.8618 1.19123 14.0017 2.85902 15.5655C4.52682 17.1293 6.72724 17.9997 9.0135 18.0001H14.25C15.2442 17.9989 16.1973 17.6034 16.9003 16.9004C17.6033 16.1974 17.9988 15.2443 18 14.2501V8.48183V8.43458C17.9206 7.20866 17.592 6.01182 17.0343 4.91724C16.4765 3.82266 15.7014 2.85335 14.7562 2.06858ZM6 5.25008H9C9.19891 5.25008 9.38967 5.32909 9.53033 5.46975C9.67098 5.6104 9.75 5.80116 9.75 6.00008C9.75 6.19899 9.67098 6.38975 9.53033 6.53041C9.38967 6.67106 9.19891 6.75008 9 6.75008H6C5.80108 6.75008 5.61032 6.67106 5.46967 6.53041C5.32901 6.38975 5.25 6.19899 5.25 6.00008C5.25 5.80116 5.32901 5.6104 5.46967 5.46975C5.61032 5.32909 5.80108 5.25008 6 5.25008ZM12 12.7501H6C5.80108 12.7501 5.61032 12.6711 5.46967 12.5304C5.32901 12.3898 5.25 12.199 5.25 12.0001C5.25 11.8012 5.32901 11.6104 5.46967 11.4697C5.61032 11.3291 5.80108 11.2501 6 11.2501H12C12.1989 11.2501 12.3897 11.3291 12.5303 11.4697C12.671 11.6104 12.75 11.8012 12.75 12.0001C12.75 12.199 12.671 12.3898 12.5303 12.5304C12.3897 12.6711 12.1989 12.7501 12 12.7501ZM12 9.75008H6C5.80108 9.75008 5.61032 9.67106 5.46967 9.53041C5.32901 9.38976 5.25 9.19899 5.25 9.00008C5.25 8.80116 5.32901 8.6104 5.46967 8.46975C5.61032 8.32909 5.80108 8.25008 6 8.25008H12C12.1989 8.25008 12.3897 8.32909 12.5303 8.46975C12.671 8.6104 12.75 8.80116 12.75 9.00008C12.75 9.19899 12.671 9.38976 12.5303 9.53041C12.3897 9.67106 12.1989 9.75008 12 9.75008Z" fill="#E94033"/>
</g>
<defs>
<clipPath id="clip0_914_2913">
<rect width="18" height="18" fill="white"/>
</clipPath>
</defs>
</svg>
