<svg width="189" height="24" viewBox="0 0 189 24" fill="none" xmlns="http://www.w3.org/2000/svg">
<g clip-path="url(#clip0_152_18282)">
<path d="M22.22 12.257C22.22 11.3047 22.1444 10.6098 21.9807 9.88916H11.3367V14.1873H17.5845C17.4586 15.2554 16.7784 16.864 15.2668 17.9449L15.2456 18.0888L18.611 20.7523L18.8442 20.7761C20.9855 18.7557 22.22 15.783 22.22 12.257Z" fill="#4285F4"/>
<path d="M11.3367 23.5817C14.3976 23.5817 16.9672 22.5522 18.8442 20.7763L15.2668 17.9452C14.3095 18.6272 13.0246 19.1033 11.3367 19.1033C8.33882 19.1033 5.79437 17.083 4.88735 14.2905L4.7544 14.3021L1.25499 17.0688L1.20923 17.1988C3.07347 20.9822 6.90278 23.5817 11.3367 23.5817Z" fill="#34A853"/>
<path d="M4.88734 14.2906C4.64802 13.57 4.50951 12.7978 4.50951 12C4.50951 11.2021 4.64802 10.43 4.87475 9.70933L4.86841 9.55585L1.32515 6.74463L1.20922 6.80096C0.440878 8.37096 0 10.134 0 12C0 13.8659 0.440878 15.6289 1.20922 17.1989L4.88734 14.2906Z" fill="#FBBC05"/>
<path d="M11.3367 4.89624C13.4655 4.89624 14.9015 5.83565 15.7202 6.6207L18.9197 3.42924C16.9547 1.56329 14.3976 0.417969 11.3367 0.417969C6.90278 0.417969 3.07347 3.01742 1.20923 6.80079L4.87476 9.70915C5.79438 6.91665 8.33882 4.89624 11.3367 4.89624Z" fill="#EB4335"/>
</g>
<path d="M36.4538 17.112C37.9798 17.112 39.2958 16.58 40.1918 15.572L39.2818 14.69C38.5258 15.488 37.6018 15.866 36.5238 15.866C34.3118 15.866 32.6738 14.27 32.6738 12.1C32.6738 9.93 34.3118 8.334 36.5238 8.334C37.6018 8.334 38.5258 8.698 39.2818 9.496L40.1918 8.614C39.2958 7.606 37.9798 7.088 36.4678 7.088C33.4858 7.088 31.2738 9.202 31.2738 12.1C31.2738 14.998 33.4858 17.112 36.4538 17.112ZM44.7865 17.084C47.0125 17.084 48.6365 15.502 48.6365 13.29C48.6365 11.078 47.0125 9.51 44.7865 9.51C42.5605 9.51 40.9225 11.078 40.9225 13.29C40.9225 15.502 42.5605 17.084 44.7865 17.084ZM44.7865 15.908C43.3585 15.908 42.2805 14.872 42.2805 13.29C42.2805 11.708 43.3585 10.686 44.7865 10.686C46.2145 10.686 47.2785 11.708 47.2785 13.29C47.2785 14.872 46.2145 15.908 44.7865 15.908ZM54.3873 9.51C53.2113 9.51 52.2593 9.944 51.7133 10.7V9.58H50.4253V17H51.7693V13.178C51.7693 11.568 52.6933 10.714 54.1213 10.714C55.3953 10.714 56.1233 11.428 56.1233 12.884V17H57.4673V12.73C57.4673 10.546 56.1933 9.51 54.3873 9.51ZM63.6366 15.6C63.3566 15.824 62.9786 15.95 62.5866 15.95C61.8446 15.95 61.4245 15.502 61.4245 14.704V10.686H63.5526V9.58H61.4245V7.956H60.0805V9.58H58.8205V10.686H60.0805V14.76C60.0805 16.258 60.9346 17.084 62.4325 17.084C63.0346 17.084 63.6506 16.916 64.0566 16.566L63.6366 15.6ZM66.2834 8.152C66.8154 8.152 67.1934 7.76 67.1934 7.256C67.1934 6.78 66.8014 6.402 66.2834 6.402C65.7654 6.402 65.3734 6.794 65.3734 7.284C65.3734 7.774 65.7654 8.152 66.2834 8.152ZM65.6114 17H66.9554V9.58H65.6114V17ZM73.4136 9.51C72.2376 9.51 71.2856 9.944 70.7396 10.7V9.58H69.4516V17H70.7956V13.178C70.7956 11.568 71.7196 10.714 73.1476 10.714C74.4216 10.714 75.1496 11.428 75.1496 12.884V17H76.4936V12.73C76.4936 10.546 75.2196 9.51 73.4136 9.51ZM84.4829 9.58V13.416C84.4829 15.012 83.5869 15.88 82.1869 15.88C80.9129 15.88 80.1849 15.152 80.1849 13.696V9.58H78.8409V13.85C78.8409 16.034 80.1149 17.084 82.0329 17.084C83.0829 17.084 84.0069 16.65 84.5529 15.88V17H85.8269V9.58H84.4829ZM95.0215 13.332C95.0215 11.05 93.4955 9.51 91.3535 9.51C89.2115 9.51 87.6295 11.092 87.6295 13.29C87.6295 15.502 89.2255 17.084 91.6195 17.084C92.8515 17.084 93.8735 16.664 94.5455 15.88L93.8035 15.012C93.2575 15.614 92.5295 15.908 91.6615 15.908C90.1915 15.908 89.1415 15.04 88.9735 13.738H94.9935C95.0075 13.612 95.0215 13.444 95.0215 13.332ZM91.3535 10.644C92.6555 10.644 93.5935 11.526 93.7335 12.772H88.9735C89.1135 11.512 90.0655 10.644 91.3535 10.644ZM113.22 7.2L110.518 15.208L107.816 7.2H106.528L103.77 15.166L101.124 7.2H99.6815L102.958 17H104.456L107.13 9.174L109.804 17H111.274L114.55 7.2H113.22ZM116.682 8.152C117.214 8.152 117.592 7.76 117.592 7.256C117.592 6.78 117.2 6.402 116.682 6.402C116.164 6.402 115.772 6.794 115.772 7.284C115.772 7.774 116.164 8.152 116.682 8.152ZM116.01 17H117.354V9.58H116.01V17ZM123.602 15.6C123.322 15.824 122.944 15.95 122.552 15.95C121.81 15.95 121.39 15.502 121.39 14.704V10.686H123.518V9.58H121.39V7.956H120.046V9.58H118.786V10.686H120.046V14.76C120.046 16.258 120.9 17.084 122.398 17.084C123 17.084 123.616 16.916 124.022 16.566L123.602 15.6ZM129.539 9.51C128.405 9.51 127.481 9.916 126.921 10.63V6.612H125.577V17H126.921V13.178C126.921 11.568 127.845 10.714 129.273 10.714C130.547 10.714 131.275 11.428 131.275 12.884V17H132.619V12.73C132.619 10.546 131.345 9.51 129.539 9.51ZM145.712 15.236C145.012 15.684 144.242 15.866 143.416 15.866C141.162 15.866 139.524 14.256 139.524 12.1C139.524 9.916 141.162 8.334 143.43 8.334C144.536 8.334 145.46 8.684 146.272 9.468L147.14 8.6C146.244 7.606 144.928 7.088 143.374 7.088C140.336 7.088 138.124 9.202 138.124 12.1C138.124 14.998 140.336 17.112 143.346 17.112C144.718 17.112 146.076 16.692 147.056 15.866V12.044H145.712V15.236ZM152.648 17.084C154.874 17.084 156.498 15.502 156.498 13.29C156.498 11.078 154.874 9.51 152.648 9.51C150.422 9.51 148.784 11.078 148.784 13.29C148.784 15.502 150.422 17.084 152.648 17.084ZM152.648 15.908C151.22 15.908 150.142 14.872 150.142 13.29C150.142 11.708 151.22 10.686 152.648 10.686C154.076 10.686 155.14 11.708 155.14 13.29C155.14 14.872 154.076 15.908 152.648 15.908ZM161.465 17.084C163.691 17.084 165.315 15.502 165.315 13.29C165.315 11.078 163.691 9.51 161.465 9.51C159.239 9.51 157.601 11.078 157.601 13.29C157.601 15.502 159.239 17.084 161.465 17.084ZM161.465 15.908C160.037 15.908 158.959 14.872 158.959 13.29C158.959 11.708 160.037 10.686 161.465 10.686C162.893 10.686 163.957 11.708 163.957 13.29C163.957 14.872 162.893 15.908 161.465 15.908ZM172.928 9.58V10.728C172.298 9.916 171.29 9.51 170.184 9.51C168.042 9.51 166.418 10.952 166.418 13.094C166.418 15.236 168.042 16.692 170.184 16.692C171.248 16.692 172.214 16.314 172.858 15.544V16.132C172.858 17.812 172.06 18.624 170.31 18.624C169.218 18.624 168.14 18.246 167.454 17.658L166.81 18.694C167.622 19.422 168.994 19.8 170.352 19.8C172.872 19.8 174.202 18.61 174.202 15.992V9.58H172.928ZM170.338 15.516C168.84 15.516 167.776 14.522 167.776 13.094C167.776 11.652 168.84 10.686 170.338 10.686C171.822 10.686 172.886 11.652 172.886 13.094C172.886 14.522 171.822 15.516 170.338 15.516ZM176.7 17H178.044V6.612H176.7V17ZM187.246 13.332C187.246 11.05 185.72 9.51 183.578 9.51C181.436 9.51 179.854 11.092 179.854 13.29C179.854 15.502 181.45 17.084 183.844 17.084C185.076 17.084 186.098 16.664 186.77 15.88L186.028 15.012C185.482 15.614 184.754 15.908 183.886 15.908C182.416 15.908 181.366 15.04 181.198 13.738H187.218C187.232 13.612 187.246 13.444 187.246 13.332ZM183.578 10.644C184.88 10.644 185.818 11.526 185.958 12.772H181.198C181.338 11.512 182.29 10.644 183.578 10.644Z" fill="#2E435C"/>
<defs>
<clipPath id="clip0_152_18282">
<rect width="22.22" height="23.23" fill="white" transform="translate(0 0.384766)"/>
</clipPath>
</defs>
</svg>
