<svg width="135" height="129" viewBox="0 0 135 129" fill="none" xmlns="http://www.w3.org/2000/svg">
<circle cx="63.1846" cy="56.7539" r="42.9265" fill="#E94033" stroke="#E94033"/>
<rect x="48.5513" y="42.1205" width="28.609" height="28.609" rx="11.5" fill="white" stroke="#E94033"/>
<path d="M61.0686 61.5464L60.6462 61.1282L56.2839 56.81L56.2673 56.7936L56.2521 56.7759C56.0845 56.582 55.9962 56.3316 56.0062 56.0747C56.0163 55.8177 56.1238 55.575 56.3057 55.3948C56.4874 55.2147 56.73 55.1101 56.9846 55.1004C57.2392 55.0906 57.489 55.1763 57.684 55.3418L57.7016 55.3567L57.7181 55.373L61.0602 58.6846L67.9947 51.8213L68.011 51.8051L68.0286 51.7902C68.2235 51.6248 68.4733 51.5391 68.7279 51.5488C68.9825 51.5586 69.2251 51.6632 69.4069 51.8432M61.0686 61.5464L69.4069 51.8432M61.0686 61.5464L61.4907 61.1279L69.4289 53.2581L69.4453 53.2419L69.4604 53.2244C69.628 53.0305 69.7163 52.7801 69.7063 52.5231C69.6963 52.2662 69.5888 52.0235 69.4069 51.8432M61.0686 61.5464L69.4069 51.8432" fill="#E94033" stroke="#E94033" stroke-width="1.2"/>
<path d="M10.8537 85.6765C10.8537 88.2442 8.68303 90.3882 5.92685 90.3882C3.17066 90.3882 1 88.2442 1 85.6765C1 83.1088 3.17066 80.9647 5.92685 80.9647C8.68303 80.9647 10.8537 83.1088 10.8537 85.6765Z" fill="#E94033" stroke="#E94033" stroke-width="2"/>
<path d="M50.3671 115.504C50.3671 116.67 49.3758 117.678 48.0744 117.678C46.773 117.678 45.7817 116.67 45.7817 115.504C45.7817 114.339 46.773 113.331 48.0744 113.331C49.3758 113.331 50.3671 114.339 50.3671 115.504Z" fill="#E94033" stroke="#E94033" stroke-width="2"/>
<mask id="path-6-inside-1_285_8436" fill="white">
<ellipse cx="28.6478" cy="99.9559" rx="1.64635" ry="1.5866"/>
</mask>
<ellipse cx="28.6478" cy="99.9559" rx="1.64635" ry="1.5866" fill="#E94033"/>
<path d="M28.2942 99.9559C28.2942 99.6585 28.5228 99.5425 28.6478 99.5425V103.542C30.5913 103.542 32.2942 102.006 32.2942 99.9559H28.2942ZM28.6478 99.5425C28.7728 99.5425 29.0015 99.6585 29.0015 99.9559H25.0015C25.0015 102.006 26.7043 103.542 28.6478 103.542V99.5425ZM29.0015 99.9559C29.0015 100.253 28.7728 100.369 28.6478 100.369V96.3693C26.7043 96.3693 25.0015 97.906 25.0015 99.9559H29.0015ZM28.6478 100.369C28.5228 100.369 28.2942 100.253 28.2942 99.9559H32.2942C32.2942 97.906 30.5913 96.3693 28.6478 96.3693V100.369Z" fill="#E94033" mask="url(#path-6-inside-1_285_8436)"/>
<mask id="path-8-inside-2_285_8436" fill="white">
<ellipse cx="1.64635" cy="41.5689" rx="1.64635" ry="1.5866"/>
</mask>
<ellipse cx="1.64635" cy="41.5689" rx="1.64635" ry="1.5866" fill="#E94033"/>
<path d="M1.29269 41.5689C1.29269 41.2715 1.52136 41.1555 1.64635 41.1555V45.1555C3.58984 45.1555 5.29269 43.6188 5.29269 41.5689H1.29269ZM1.64635 41.1555C1.77134 41.1555 2 41.2715 2 41.5689H-2C-2 43.6188 -0.297149 45.1555 1.64635 45.1555V41.1555ZM2 41.5689C2 41.8663 1.77134 41.9823 1.64635 41.9823V37.9823C-0.297149 37.9823 -2 39.519 -2 41.5689H2ZM1.64635 41.9823C1.52136 41.9823 1.29269 41.8663 1.29269 41.5689H5.29269C5.29269 39.519 3.58984 37.9823 1.64635 37.9823V41.9823Z" fill="#E94033" mask="url(#path-8-inside-2_285_8436)"/>
<mask id="path-10-inside-3_285_8436" fill="white">
<ellipse cx="118.209" cy="84.0899" rx="1.64635" ry="1.5866"/>
</mask>
<ellipse cx="118.209" cy="84.0899" rx="1.64635" ry="1.5866" fill="#E94033"/>
<path d="M117.856 84.0899C117.856 83.7925 118.084 83.6765 118.209 83.6765V87.6765C120.153 87.6765 121.856 86.1398 121.856 84.0899H117.856ZM118.209 83.6765C118.334 83.6765 118.563 83.7925 118.563 84.0899H114.563C114.563 86.1398 116.266 87.6765 118.209 87.6765V83.6765ZM118.563 84.0899C118.563 84.3872 118.334 84.5033 118.209 84.5033V80.5033C116.266 80.5033 114.563 82.04 114.563 84.0899H118.563ZM118.209 84.5033C118.084 84.5033 117.856 84.3872 117.856 84.0899H121.856C121.856 82.04 120.153 80.5033 118.209 80.5033V84.5033Z" fill="#E94033" mask="url(#path-10-inside-3_285_8436)"/>
<ellipse cx="91.8665" cy="105.668" rx="0.987808" ry="0.95196" fill="#E94033"/>
<ellipse cx="66.1829" cy="127.88" rx="0.987808" ry="0.95196" fill="#E94033"/>
<ellipse cx="64.8672" cy="0.95196" rx="0.987808" ry="0.95196" fill="#E94033"/>
<ellipse cx="110.965" cy="28.8762" rx="0.987808" ry="0.95196" fill="#E94033"/>
<path d="M105.684 10.7888C105.684 11.9545 104.693 12.962 103.392 12.962C102.09 12.962 101.099 11.9545 101.099 10.7888C101.099 9.62309 102.09 8.6156 103.392 8.6156C104.693 8.6156 105.684 9.62309 105.684 10.7888Z" fill="#E94033" stroke="#E94033" stroke-width="2"/>
<path d="M112.269 103.446C112.269 104.612 111.277 105.619 109.976 105.619C108.675 105.619 107.683 104.612 107.683 103.446C107.683 102.281 108.675 101.273 109.976 101.273C111.277 101.273 112.269 102.281 112.269 103.446Z" fill="#E94033" stroke="#E94033" stroke-width="2"/>
<path d="M134 41.8862C134 45.1549 131.24 47.8672 127.756 47.8672C124.273 47.8672 121.512 45.1549 121.512 41.8862C121.512 38.6175 124.273 35.9052 127.756 35.9052C131.24 35.9052 134 38.6175 134 41.8862Z" fill="#E94033" stroke="#E94033" stroke-width="2"/>
<path d="M22.7068 7.61568C22.7068 10.8844 19.9465 13.5967 16.4629 13.5967C12.9793 13.5967 10.219 10.8844 10.219 7.61568C10.219 4.34697 12.9793 1.63464 16.4629 1.63464C19.9465 1.63464 22.7068 4.34697 22.7068 7.61568Z" fill="#E94033" stroke="#E94033" stroke-width="2"/>
</svg>
