<svg width="26" height="26" viewBox="0 0 26 26" fill="none" xmlns="http://www.w3.org/2000/svg">
<rect x="0.5" y="0.5" width="25" height="25" rx="12.5" fill="#4FABF6"/>
<path d="M16.93 21.0625H9.07001C6.97001 21.0625 5.63501 19.81 5.51501 17.7175L5.12501 11.53C5.06501 10.5925 5.38751 9.6925 6.03251 9.01C6.67001 8.3275 7.57001 7.9375 8.50001 7.9375C8.74001 7.9375 8.97251 7.795 9.08501 7.57L9.62501 6.4975C10.0675 5.62 11.1775 4.9375 12.145 4.9375H13.8625C14.83 4.9375 15.9325 5.62 16.375 6.49L16.915 7.585C17.0275 7.795 17.2525 7.9375 17.5 7.9375C18.43 7.9375 19.33 8.3275 19.9675 9.01C20.6125 9.7 20.935 10.5925 20.875 11.53L20.485 17.725C20.35 19.8475 19.0525 21.0625 16.93 21.0625ZM12.145 6.0625C11.59 6.0625 10.885 6.4975 10.63 7L10.09 8.08C9.77501 8.6875 9.16751 9.0625 8.50001 9.0625C7.87001 9.0625 7.28501 9.3175 6.85001 9.775C6.42251 10.2325 6.20501 10.8325 6.25001 11.455L6.64001 17.65C6.73001 19.165 7.54751 19.9375 9.07001 19.9375H16.93C18.445 19.9375 19.2625 19.165 19.36 17.65L19.75 11.455C19.7875 10.8325 19.5775 10.2325 19.15 9.775C18.715 9.3175 18.13 9.0625 17.5 9.0625C16.8325 9.0625 16.225 8.6875 15.91 8.095L15.3625 7C15.115 6.505 14.41 6.07 13.855 6.07H12.145V6.0625Z" fill="white"/>
<path d="M14.125 10.5625H11.875C11.5675 10.5625 11.3125 10.3075 11.3125 10C11.3125 9.6925 11.5675 9.4375 11.875 9.4375H14.125C14.4325 9.4375 14.6875 9.6925 14.6875 10C14.6875 10.3075 14.4325 10.5625 14.125 10.5625Z" fill="white"/>
<path d="M13 18.0625C11.3425 18.0625 10 16.72 10 15.0625C10 13.405 11.3425 12.0625 13 12.0625C14.6575 12.0625 16 13.405 16 15.0625C16 16.72 14.6575 18.0625 13 18.0625ZM13 13.1875C11.965 13.1875 11.125 14.0275 11.125 15.0625C11.125 16.0975 11.965 16.9375 13 16.9375C14.035 16.9375 14.875 16.0975 14.875 15.0625C14.875 14.0275 14.035 13.1875 13 13.1875Z" fill="white"/>
<rect x="0.5" y="0.5" width="25" height="25" rx="12.5" stroke="white"/>
</svg>
