<svg width="13" height="13" viewBox="0 0 13 13" fill="none" xmlns="http://www.w3.org/2000/svg">
<path d="M11.2903 11.8279H1.6129C1.39247 11.8279 1.20967 11.6451 1.20967 11.4247C1.20967 11.2043 1.39247 11.0215 1.6129 11.0215H11.2903C11.5107 11.0215 11.6935 11.2043 11.6935 11.4247C11.6935 11.6451 11.5107 11.8279 11.2903 11.8279Z" fill="#E94033"/>
<path d="M10.2258 1.87098C9.1828 0.827973 8.16129 0.801092 7.0914 1.87098L6.44086 2.52152C6.3871 2.57529 6.3656 2.66131 6.3871 2.73658C6.7957 4.16131 7.93549 5.30109 9.36022 5.70969C9.38173 5.71507 9.40323 5.72045 9.42474 5.72045C9.48388 5.72045 9.53764 5.69894 9.58065 5.65593L10.2258 5.00539C10.7581 4.47851 11.0161 3.96776 11.0161 3.45163C11.0215 2.91937 10.7634 2.40324 10.2258 1.87098Z" fill="#E94033"/>
<path d="M8.39248 6.19892C8.23656 6.12365 8.08603 6.04838 7.94086 5.96236C7.82258 5.89247 7.70968 5.8172 7.59678 5.73656C7.50538 5.67742 7.39785 5.59139 7.2957 5.50537C7.28495 5.5 7.24731 5.46774 7.2043 5.42473C7.02689 5.27419 6.82796 5.08064 6.65054 4.86559C6.63441 4.85484 6.60753 4.8172 6.5699 4.76881C6.51613 4.7043 6.42473 4.59677 6.34409 4.47312C6.27957 4.39247 6.2043 4.27419 6.13441 4.15591C6.04839 4.01075 5.97312 3.86559 5.89785 3.71505C5.79917 3.50358 5.52161 3.44076 5.3566 3.60577L2.33334 6.62903C2.26344 6.69892 2.19893 6.83333 2.1828 6.92473L1.89248 8.98387C1.83871 9.34946 1.94086 9.69354 2.16667 9.92473C2.36022 10.1129 2.62904 10.2151 2.91936 10.2151C2.98387 10.2151 3.04839 10.2097 3.11291 10.1989L5.17742 9.9086C5.2742 9.89247 5.40861 9.82795 5.47312 9.75806L8.50137 6.72981C8.66308 6.5681 8.60232 6.28985 8.39248 6.19892Z" fill="#E94033"/>
</svg>
