<svg width="18" height="12" viewBox="0 0 18 12" fill="none" xmlns="http://www.w3.org/2000/svg">
<path d="M1.32761 7.82344C2.10396 4.09537 5.34937 1.44645 9.00003 1.44645C12.6496 1.44645 15.895 4.09537 16.6725 7.82344C16.7033 7.97137 16.7916 8.10102 16.9179 8.18385C17.0443 8.26668 17.1984 8.29591 17.3464 8.26512C17.4943 8.23432 17.6239 8.14602 17.7068 8.01964C17.7896 7.89326 17.8188 7.73915 17.788 7.59122C16.9035 3.35089 13.2039 0.308105 9.00003 0.308105C4.79614 0.308105 1.09652 3.35089 0.212032 7.59122C0.181238 7.73915 0.210471 7.89326 0.293302 8.01964C0.376132 8.14602 0.505775 8.23432 0.653709 8.26512C0.801643 8.29591 0.955752 8.26668 1.08213 8.18385C1.20851 8.10102 1.29681 7.97137 1.32761 7.82344ZM8.98865 3.72313C10.0453 3.72313 11.0587 4.14289 11.8059 4.89008C12.5531 5.63726 12.9728 6.65065 12.9728 7.70733C12.9728 8.764 12.5531 9.7774 11.8059 10.5246C11.0587 11.2718 10.0453 11.6915 8.98865 11.6915C7.93197 11.6915 6.91858 11.2718 6.1714 10.5246C5.42421 9.7774 5.00445 8.764 5.00445 7.70733C5.00445 6.65065 5.42421 5.63726 6.1714 4.89008C6.91858 4.14289 7.93197 3.72313 8.98865 3.72313Z" fill="#8C8CA1"/>
</svg>
