<svg width="20" height="20" viewBox="0 0 20 20" fill="none" xmlns="http://www.w3.org/2000/svg">
<g clip-path="url(#clip0_148_9853)">
<path d="M14.9783 5.95501C14.7025 5.90001 14.4767 5.72751 14.36 5.48084C13.0683 2.75501 10.0742 1.23084 7.08167 1.78251C4.355 2.28251 2.2175 4.45918 1.76167 7.20001C1.62667 8.00918 1.63667 8.81918 1.78917 9.60834C1.83917 9.86584 1.72833 10.1525 1.50083 10.3592C0.546667 11.2267 0 12.4625 0 13.7508C0 16.2775 2.05583 18.3342 4.58333 18.3342H13.75C17.1967 18.3342 20 15.5308 20 12.0842C20 9.11334 17.8883 6.53501 14.9783 5.95501ZM12.6008 11.4233C12.4383 11.5858 12.225 11.6675 12.0117 11.6675C11.7983 11.6675 11.585 11.5858 11.4225 11.4233L10 10.0008V14.1675C10 14.6283 9.62667 15.0008 9.16667 15.0008C8.70667 15.0008 8.33333 14.6283 8.33333 14.1675V10.0008L6.91083 11.4233C6.585 11.7492 6.05833 11.7492 5.7325 11.4233C5.40667 11.0975 5.40667 10.5708 5.7325 10.245L7.98833 7.98918C8.31 7.66751 8.7325 7.50584 9.155 7.50334L9.16667 7.50084L9.17833 7.50334C9.60167 7.50584 10.0233 7.66751 10.345 7.98918L12.6008 10.245C12.9267 10.5708 12.9267 11.0975 12.6008 11.4233Z" fill="#E94033"/>
</g>
<defs>
<clipPath id="clip0_148_9853">
<rect width="20" height="20" fill="white"/>
</clipPath>
</defs>
</svg>
