<svg width="24" height="24" viewBox="0 0 24 24" fill="none" xmlns="http://www.w3.org/2000/svg">
<path d="M12.0469 0C5.45578 0 0 5.36203 0 11.9531C0 18.5442 5.45578 24 12.0469 24C18.638 24 24 18.5442 24 11.9531C24 5.36203 18.638 0 12.0469 0ZM12.0469 20.4844C11.2716 20.4844 10.6406 19.8534 10.6406 19.0781C10.6406 18.3028 11.2716 17.6719 12.0469 17.6719C12.8217 17.6719 13.4531 18.3028 13.4531 19.0781C13.4531 19.8534 12.8217 20.4844 12.0469 20.4844ZM14.5392 11.8411C13.838 12.3563 13.4531 13.717 13.4531 14.3962V14.7656C13.4531 15.5409 12.8217 16.1719 12.0469 16.1719C11.2716 16.1719 10.6406 15.5409 10.6406 14.7656V14.3962C10.6406 12.8189 11.4553 10.6144 12.877 9.57328C13.9692 8.77125 13.402 7.03125 12.0469 7.03125C11.2716 7.03125 10.6406 7.66219 10.6406 8.4375C10.6406 9.21281 10.0092 9.84375 9.23438 9.84375C8.45906 9.84375 7.82812 9.21281 7.82812 8.4375C7.82812 6.11109 9.72047 4.21875 12.0469 4.21875C14.3733 4.21875 16.2656 6.11109 16.2656 8.4375C16.2656 9.77672 15.6202 11.0489 14.5392 11.8411Z" fill="#E94033"/>
</svg>
