<svg width="20" height="20" viewBox="0 0 20 20" fill="none" xmlns="http://www.w3.org/2000/svg">
<path d="M1.03469 1.03486C0.790612 1.27894 0.768428 1.66088 0.968124 1.93002L1.03469 2.00713L4.73305 5.70549C2.97122 6.9425 1.65445 8.79007 1.1073 10.9759C1.0151 11.3442 1.23895 11.7175 1.60728 11.8098C1.97561 11.9019 2.34895 11.6781 2.44115 11.3097C2.9265 9.37087 4.12519 7.74467 5.72298 6.69514L7.3818 8.3541C6.73325 9.01548 6.33333 9.9216 6.33333 10.921C6.33333 12.9461 7.97495 14.5877 10 14.5877C10.9995 14.5877 11.9056 14.1878 12.567 13.5392L17.9931 18.9654C18.2615 19.2339 18.6968 19.2339 18.9653 18.9654C19.2094 18.7214 19.2316 18.3394 19.0318 18.0703L18.9653 17.9932L13.3612 12.3885L13.3623 12.3872L6.9922 6.01983L6.99333 6.01816L5.95449 4.98186L2.00696 1.03486C1.73848 0.766375 1.30318 0.766375 1.03469 1.03486ZM10 4.04183C9.08305 4.04183 8.19334 4.17756 7.35183 4.43141L8.48575 5.56458C8.9769 5.46754 9.48336 5.41683 10 5.41683C13.5962 5.41683 16.7007 7.87373 17.5598 11.3139C17.6519 11.6822 18.025 11.9063 18.3935 11.8143C18.7619 11.7223 18.9859 11.3491 18.8939 10.9807C17.8828 6.93182 14.2309 4.04183 10 4.04183ZM10.1785 7.25867L13.663 10.7427C13.5697 8.85717 12.0599 7.34883 10.1785 7.25867Z" fill="#8C8CA1"/>
</svg>
