<svg width="21" height="21" viewBox="0 0 21 21" fill="none" xmlns="http://www.w3.org/2000/svg">
<path d="M19.58 6.26002L13.03 1.02002C11.75 1.83582e-05 9.75 -0.00998163 8.48 1.01002L1.93 6.26002C0.990001 7.01002 0.420001 8.51002 0.620001 9.69002L1.88 17.23C2.17 18.92 3.74 20.25 5.45 20.25H16.05C17.74 20.25 19.34 18.89 19.63 17.22L20.89 9.68002C21.07 8.51002 20.5 7.01002 19.58 6.26002ZM11.5 16.25C11.5 16.66 11.16 17 10.75 17C10.34 17 10 16.66 10 16.25V13.25C10 12.84 10.34 12.5 10.75 12.5C11.16 12.5 11.5 12.84 11.5 13.25V16.25Z" fill="#8C8CA1"/>
</svg>
