<svg width="24" height="24" viewBox="0 0 24 24" fill="none" xmlns="http://www.w3.org/2000/svg">
<path d="M12 14C13.1046 14 14 13.1046 14 12C14 10.8954 13.1046 10 12 10C10.8954 10 10 10.8954 10 12C10 13.1046 10.8954 14 12 14Z" fill="#E94033"/>
<path d="M7.75806 16.243L9.17206 14.828C8.79872 14.4574 8.50277 14.0163 8.3014 13.5303C8.10003 13.0443 7.99726 12.5231 7.99906 11.997C7.99906 10.929 8.41606 9.92601 9.17206 9.17201L7.75806 7.75601C7.19883 8.31121 6.75532 8.97185 6.45321 9.69966C6.1511 10.4275 5.9964 11.208 5.99806 11.996C5.99806 13.6 6.62306 15.108 7.75806 16.243ZM16.2421 16.243C16.8012 15.6872 17.2444 15.026 17.5462 14.2977C17.8479 13.5693 18.0022 12.7884 18.0001 12C18.0022 11.2117 17.8479 10.4307 17.5462 9.70237C17.2444 8.97405 16.8012 8.31283 16.2421 7.75701L14.8281 9.17101C15.5841 9.92701 16.0001 10.932 16.0001 12C16.0001 13.068 15.5841 14.073 14.8281 14.829L16.2421 16.243Z" fill="#E94033"/>
<path d="M6.34402 17.657C5.59847 16.9156 5.00734 16.0337 4.60483 15.0623C4.20231 14.091 3.99641 13.0494 3.99902 11.998C3.99902 9.86099 4.83202 7.85299 6.34402 6.34399L4.93002 4.92899C3.04002 6.81499 1.99902 9.32599 1.99902 11.998C1.99902 14.67 3.04002 17.181 4.93002 19.071L6.34402 17.657ZM17.657 6.34299C18.4022 7.08417 18.993 7.96578 19.3951 8.9368C19.7973 9.90783 20.0029 10.949 20 12C20.0029 13.051 19.7973 14.0921 19.3951 15.0632C18.993 16.0342 18.4022 16.9158 17.657 17.657L19.071 19.071C20.0026 18.1447 20.7412 17.0427 21.244 15.829C21.7468 14.6152 22.0037 13.3137 22 12C22.0036 10.6862 21.7466 9.38483 21.2438 8.17108C20.7411 6.95734 20.0025 5.85538 19.071 4.92899L17.657 6.34299Z" fill="#E94033"/>
</svg>
