<svg width="834" height="684" viewBox="0 0 834 684" fill="none" xmlns="http://www.w3.org/2000/svg">
<g id="No Results">
<g id="circle">
<path id="Stroke 1" d="M28.5593 313.688V320.734" stroke="#D2D8DF" stroke-width="2.921" stroke-linecap="round"/>
<g id="Group 8">
<path id="Stroke 2" d="M12.7339 317.505L18.4917 323.432" stroke="#D2D8DF" stroke-width="2.921" stroke-linecap="round"/>
<path id="Stroke 4" d="M6 333.283H14.1415" stroke="#D2D8DF" stroke-width="2.921" stroke-linecap="round"/>
<path id="Stroke 6" d="M12.0747 349.343L17.8325 343.415" stroke="#D2D8DF" stroke-width="2.921" stroke-linecap="round"/>
</g>
<path id="Stroke 9" d="M28.5593 351.268V344.221" stroke="#D2D8DF" stroke-width="2.921" stroke-linecap="round"/>
<path id="Stroke 10" d="M40.3027 346.57L35.6052 341.873" stroke="#D2D8DF" stroke-width="2.921" stroke-linecap="round"/>
<path id="Stroke 11" d="M49.6981 334.826H42.6519" stroke="#D2D8DF" stroke-width="2.921" stroke-linecap="round"/>
<path id="Stroke 12" d="M45.0005 318.385L40.303 323.082" stroke="#D2D8DF" stroke-width="2.921" stroke-linecap="round"/>
<path id="Stroke 13" d="M406.709 6V10.6975" stroke="#D2D8DF" stroke-width="2.921" stroke-linecap="round"/>
<path id="Stroke 15" d="M392.617 20.0925H397.314" stroke="#D2D8DF" stroke-width="2.921" stroke-linecap="round"/>
<path id="Stroke 16" d="M406.709 34.1852V29.4877" stroke="#D2D8DF" stroke-width="2.921" stroke-linecap="round"/>
<path id="Stroke 17" d="M418.454 20.0925H413.756" stroke="#D2D8DF" stroke-width="2.921" stroke-linecap="round"/>
<path id="Stroke 18" d="M134.254 203.296V210.342" stroke="#D2D8DF" stroke-width="2.921" stroke-linecap="round"/>
<path id="Stroke 19" d="M113.115 224.435H120.162" stroke="#D2D8DF" stroke-width="2.921" stroke-linecap="round"/>
<path id="Stroke 20" d="M134.254 243.225V236.178" stroke="#D2D8DF" stroke-width="2.921" stroke-linecap="round"/>
<path id="Stroke 21" d="M153.044 224.435H145.997" stroke="#D2D8DF" stroke-width="2.921" stroke-linecap="round"/>
<g id="Group 42">
<path id="Stroke 22" d="M639.833 459.401C645.446 459.401 649.998 463.954 649.998 469.569C649.998 475.186 645.446 479.737 639.833 479.737C634.22 479.737 629.667 475.186 629.667 469.569" stroke="#D2D8DF" stroke-width="2.921" stroke-linecap="round"/>
<path id="Fill 26" fill-rule="evenodd" clip-rule="evenodd" d="M686.357 367.152C692.393 365.27 701.645 357.888 703.786 349.946C705.729 356.966 713.87 365.27 721.216 365.898C712.947 368.826 705.041 377.524 703.786 384.357C702.933 377.392 691.998 368.168 686.357 367.152Z" fill="#EBECEE"/>
<path id="Fill 28" fill-rule="evenodd" clip-rule="evenodd" d="M66.78 456.269C69.7989 455.328 74.423 451.638 75.4938 447.667C76.4649 451.175 80.5346 455.328 84.2076 455.643C80.074 457.105 76.1219 461.455 75.4938 464.872C75.0671 461.389 69.5995 456.776 66.78 456.269Z" fill="#EBECEE"/>
<path id="Fill 30" fill-rule="evenodd" clip-rule="evenodd" d="M122.803 129.538C122.803 133.894 119.274 137.422 114.921 137.422C110.566 137.422 107.038 133.894 107.038 129.538C107.038 125.184 110.566 121.653 114.921 121.653C119.274 121.653 122.803 125.184 122.803 129.538Z" fill="#D1D8DF"/>
<path id="Fill 32" fill-rule="evenodd" clip-rule="evenodd" d="M649.146 150.708C649.146 157.986 643.246 163.886 635.972 163.886C628.693 163.886 622.795 157.986 622.795 150.708C622.795 143.43 628.693 137.531 635.972 137.531C643.246 137.531 649.146 143.43 649.146 150.708Z" fill="#EBECEE"/>
<path id="Fill 34" fill-rule="evenodd" clip-rule="evenodd" d="M831.634 115.005C831.634 120.779 826.957 125.458 821.186 125.458C815.413 125.458 810.735 120.779 810.735 115.005C810.735 109.231 815.413 104.551 821.186 104.551C826.957 104.551 831.634 109.231 831.634 115.005Z" fill="#EBECEE"/>
<path id="Stroke 36" fill-rule="evenodd" clip-rule="evenodd" d="M270.115 603.213C270.115 606.853 267.166 609.803 263.527 609.803C259.89 609.803 256.941 606.853 256.941 603.213C256.941 599.573 259.89 596.623 263.527 596.623C267.166 596.623 270.115 599.573 270.115 603.213Z" stroke="#D2D8DF" stroke-width="2.921" stroke-linecap="round"/>
<path id="Stroke 38" fill-rule="evenodd" clip-rule="evenodd" d="M266.196 78.886C266.196 83.2421 262.666 86.7704 258.313 86.7704C253.961 86.7704 250.431 83.2421 250.431 78.886C250.431 74.532 253.961 71.0017 258.313 71.0017C262.666 71.0017 266.196 74.532 266.196 78.886Z" stroke="#D2D8DF" stroke-width="2.921" stroke-linecap="round"/>
<path id="Stroke 40" fill-rule="evenodd" clip-rule="evenodd" d="M467.258 676.185C462.221 678.102 456.584 675.571 454.668 670.535C452.752 665.497 455.28 659.856 460.319 657.941C465.354 656.025 470.991 658.554 472.907 663.592C474.825 668.63 472.295 674.268 467.258 676.185Z" stroke="#D2D8DF" stroke-width="2.921" stroke-linecap="round"/>
</g>
</g>
<g id="search">
<g id="documents">
<path id="Fill 1" fill-rule="evenodd" clip-rule="evenodd" d="M464.257 489.844H271.648C258.091 489.844 246.994 478.715 246.994 465.112V190.442C246.994 176.84 258.091 165.716 271.648 165.716H464.257C477.819 165.716 488.916 176.84 488.916 190.442V465.112C488.916 478.715 477.819 489.844 464.257 489.844Z" fill="#E0E2EE"/>
<path id="Fill 3" fill-rule="evenodd" clip-rule="evenodd" d="M447.816 501.588H255.207C241.65 501.588 230.553 490.459 230.553 476.856V202.186C230.553 188.584 241.65 177.46 255.207 177.46H447.816C461.378 177.46 472.475 188.584 472.475 202.186V476.856C472.475 490.459 461.378 501.588 447.816 501.588Z" fill="#E8EBF2"/>
<path id="Fill 5" fill-rule="evenodd" clip-rule="evenodd" d="M431.822 510.859H238.815C225.23 510.859 214.11 499.776 214.11 486.23V212.697C214.11 199.151 225.23 188.073 238.815 188.073H431.822C445.413 188.073 456.533 199.151 456.533 212.697V486.23C456.533 499.776 445.413 510.859 431.822 510.859Z" fill="#D8DBEA"/>
<path id="Fill 8" fill-rule="evenodd" clip-rule="evenodd" d="M431.822 510.859H238.815C225.23 510.859 214.11 499.776 214.11 486.23V212.697C214.11 199.151 225.23 188.073 238.815 188.073H431.822C445.413 188.073 456.533 199.151 456.533 212.697V486.23C456.533 499.776 445.413 510.859 431.822 510.859Z" fill="#F1F2F7"/>
<path id="Fill 11" fill-rule="evenodd" clip-rule="evenodd" d="M404.004 271.41H261.444C257.373 271.41 254.041 268.24 254.041 264.366C254.041 260.488 257.373 257.317 261.444 257.317H404.004C408.075 257.317 411.407 260.488 411.407 264.366C411.407 268.24 408.075 271.41 404.004 271.41Z" fill="#E0E2EE"/>
<path id="Fill 13" fill-rule="evenodd" clip-rule="evenodd" d="M404.004 313.688H261.444C257.373 313.688 254.041 310.517 254.041 306.644C254.041 302.765 257.373 299.595 261.444 299.595H404.004C408.075 299.595 411.407 302.765 411.407 306.644C411.407 310.517 408.075 313.688 404.004 313.688Z" fill="#E0E2EE"/>
<path id="Fill 15" fill-rule="evenodd" clip-rule="evenodd" d="M404.004 355.965H261.444C257.373 355.965 254.041 352.795 254.041 348.921C254.041 345.048 257.373 341.873 261.444 341.873H404.004C408.075 341.873 411.407 345.048 411.407 348.921C411.407 352.795 408.075 355.965 404.004 355.965Z" fill="#E0E2EE"/>
<path id="Fill 17" fill-rule="evenodd" clip-rule="evenodd" d="M404.004 398.243H261.444C257.373 398.243 254.041 395.072 254.041 391.199C254.041 387.321 257.373 384.15 261.444 384.15H404.004C408.075 384.15 411.407 387.321 411.407 391.199C411.407 395.072 408.075 398.243 404.004 398.243Z" fill="#E0E2EE"/>
<path id="Fill 19" fill-rule="evenodd" clip-rule="evenodd" d="M335.858 440.52H261.476C257.387 440.52 254.041 437.35 254.041 433.477C254.041 429.598 257.387 426.428 261.476 426.428H335.858C339.947 426.428 343.293 429.598 343.293 433.477C343.293 437.35 339.947 440.52 335.858 440.52Z" fill="#E0E2EE"/>
</g>
<g id="search_2">
<path id="Fill 21" fill-rule="evenodd" clip-rule="evenodd" d="M485.992 385.881C457.486 414.382 413.355 417.597 381.316 395.592C377.222 392.73 373.324 389.514 369.69 385.881C367.819 384.016 366.056 382.092 364.394 380.066C361.071 376.02 358.16 371.705 355.775 367.246C351.573 359.716 348.716 351.726 347.155 343.466C342.122 317.565 349.648 289.685 369.69 269.652C389.78 249.56 417.665 242.083 443.571 247.067C451.826 248.675 459.823 251.532 467.355 255.685C471.82 258.124 476.076 261.034 480.129 264.357C482.149 266.013 484.074 267.782 485.939 269.652C489.579 273.286 492.842 277.176 495.652 281.276C517.667 313.304 514.445 357.433 485.992 385.881Z" fill="white" fill-opacity="0.1"/>
<path id="Fill 23" fill-rule="evenodd" clip-rule="evenodd" d="M478.015 380.267C448.359 409.929 400.297 409.924 370.635 380.267C341.011 350.643 341.011 302.576 370.674 272.919C400.297 243.296 448.359 243.296 477.982 272.919C507.639 302.576 507.639 350.643 478.015 380.267ZM493.236 257.682C455.169 219.615 393.482 219.615 355.415 257.682C317.353 295.744 317.32 357.469 355.382 395.536C390.027 430.171 444.33 433.295 482.524 404.857C486.255 402.076 489.847 398.958 493.274 395.536C496.696 392.109 499.814 388.517 502.59 384.786C531.027 346.587 527.876 292.322 493.236 257.682Z" fill="#E0E2EE"/>
<path id="Fill 25" fill-rule="evenodd" clip-rule="evenodd" d="M643.047 539.031L641.449 540.63C630.876 551.208 613.562 551.208 602.984 540.63L505.358 443.004L545.421 402.94L643.047 500.566C653.626 511.145 653.626 528.453 643.047 539.031Z" fill="#E94033"/>
<path id="Fill 27" fill-rule="evenodd" clip-rule="evenodd" d="M504.694 381.802L533.543 410.65L513.062 431.126L484.219 402.277C488.025 399.439 491.686 396.257 495.188 392.766C498.68 389.274 501.861 385.608 504.694 381.802Z" fill="#E0E2EE"/>
<path id="Fill 29" fill-rule="evenodd" clip-rule="evenodd" d="M641.586 499.365L601.778 539.168L594.611 531.996L634.414 492.193L641.586 499.365Z" fill="#E94033"/>
<path id="Fill 31" fill-rule="evenodd" clip-rule="evenodd" d="M547.635 404.318L506.737 445.218L500.66 439.142L541.559 398.243L547.635 404.318Z" fill="#E94033"/>
<path id="Fill 33" fill-rule="evenodd" clip-rule="evenodd" d="M458.382 262.716L358.082 363.011C354.305 356.242 351.736 349.058 350.339 341.633L437.003 254.969C444.423 256.419 451.612 258.982 458.382 262.716Z" fill="white" fill-opacity="0.5"/>
<path id="Fill 35" fill-rule="evenodd" clip-rule="evenodd" d="M491.265 286.556L382.83 388.848C378.946 386.291 375.25 383.414 371.803 380.163C370.029 378.489 368.351 376.772 366.781 374.959L476.537 271.41C478.459 272.897 480.284 274.48 482.053 276.154C485.5 279.405 488.601 282.887 491.265 286.556Z" fill="white" fill-opacity="0.5"/>
</g>
</g>
</g>
</svg>
