<svg width="338" height="377" viewBox="0 0 338 377" fill="none" xmlns="http://www.w3.org/2000/svg">
<g clip-path="url(#clip0_155_11007)">
<path d="M266.7 166.3C266.7 166.3 259.3 164.7 257.9 161.8C256.5 158.9 270.5 162.1 270.5 162.1L266.7 166.3Z" fill="#F7B369"/>
<path d="M212.8 0V365.3C212.8 367.5 211 369.2 208.9 369.2H205.6C203.4 369.2 201.7 367.4 201.7 365.3V0H212.8Z" fill="#CED0DB"/>
<path d="M192.2 0V365.3C192.2 367.5 190.4 369.2 188.3 369.2C186.2 369.2 184.4 367.4 184.4 365.3V0H192.2Z" fill="#CED0DB"/>
<path d="M225.6 212C225.6 212 219.3 212.9 216.2 214.5C213.1 216.1 212.9 219.2 212.9 219.2C212.9 219.2 214.4 217.4 211.7 220.3C209.1 223.2 212.1 231.9 213.3 232.2C214.5 232.5 214.9 230.1 214.9 230.1C214.9 230.1 216.5 233.1 217.8 232C219.2 230.9 219.4 228 219.4 228C219.4 228 219.1 231.8 221.8 230.8C224.5 229.8 225.4 230 225.4 230C225.4 230 233 229.6 235.2 219.6C237.5 209.6 225.6 212 225.6 212Z" fill="#F48462"/>
<path d="M218.9 219.9C218.8 219.9 218.7 219.8 218.6 219.7C218.5 219.6 218.6 219.4 218.7 219.3C221.8 217.7 222.3 215.8 222.3 215.8C222.3 215.6 222.5 215.5 222.7 215.6C222.9 215.6 223 215.8 222.9 216C222.9 216.1 222.4 218.1 219 219.9C219 219.9 219 219.9 218.9 219.9Z" fill="black"/>
<path d="M225.5 209.6L232.3 230.2C232.3 230.2 251 231.1 261 220.3C269.3 211.4 262.9 186.6 262.9 186.6C262.9 186.6 250.1 196.6 244.7 200C239.5 203.5 225.5 209.6 225.5 209.6Z" fill="#A5C4F2"/>
<path d="M282.2 342.8L281 338H262.9V348.4L282.2 342.8Z" fill="#F48462"/>
<path d="M329.5 342.8L326.2 336.1L307.4 338L310.3 348.4L329.5 342.8Z" fill="#F48462"/>
<path d="M299.2 219.5C300.5 218.8 292.6 185.3 288.2 183.5C282.5 181.1 265.7 182.2 261.3 188.3C256.9 194.3 265.1 238.8 265.1 238.8L298.3 235.4L299.2 219.5Z" fill="#A5C4F2"/>
<path d="M298.9 227.1C298.9 227.1 302.4 233.5 306.5 248.5C310.6 263.5 310.7 285.3 311.4 287.4C312.1 289.5 334.1 333.6 333.7 334.6C333.2 335.5 304.8 345.4 303.4 345.4C302 345.4 285 306.5 283.7 301.8C282.4 297.1 282.4 297.1 282.4 297.1L286.6 341.2C286.6 341.2 255.8 342.1 255.4 341.2C255 340.3 247.7 302.1 248.4 291C249.1 279.9 261.7 236.1 261.7 236.1L298.9 227.1Z" fill="#E94033"/>
<path d="M337.7 364.7C336.9 365.8 292.3 376.8 291.4 376.5C290.7 376.3 289.3 374 289.3 371.2C289.3 370.4 289.4 369.5 289.8 368.6C291.2 364.8 296.6 361.5 296.6 361.5C296.6 361.5 308.1 346.9 309.3 345.8C310.5 344.7 329.2 340 329.2 340C332.1 345.6 335.2 354 336.8 359.5C337.6 362.3 338 364.3 337.7 364.7Z" fill="#BA91A8"/>
<path d="M283.8 362.6C283.8 366 283.6 368.4 283.1 368.7C282 369.6 236.1 368.9 235.3 368.4C234.7 368 233.9 365.3 234.9 362.6C235.1 361.9 235.5 361.1 236 360.4C238.5 357.1 244.6 355.3 244.6 355.3C244.6 355.3 259.9 344.2 261.4 343.4C262.9 342.6 282.1 342.8 282.1 342.8C283.3 348.6 283.8 357 283.8 362.6Z" fill="#BA91A8"/>
<path d="M278 175.4L278.8 183C278.8 183 277.5 185.7 273.1 186.5C269.8 187.1 268.8 186.1 268.8 186.1L268.9 182.2L269 178.4L276.8 175.8L278 175.4Z" fill="#F48462"/>
<path d="M276.7 175.9C276.7 176.1 276.6 176.4 276.6 176.7C275.3 180.7 270.7 182 268.8 182.3L268.9 178.5L276.7 175.9Z" fill="black"/>
<path d="M265.3 161.3C265.3 161.3 262.3 171.2 264.4 176.4C266.5 181.5 271.3 180.1 274 178.7C276.8 177.3 277.9 175.4 277.9 175.4C277.9 175.4 280.7 176 282.2 173.3C283.7 170.6 282.3 167.8 280.6 167.3C279 166.8 277.3 168.2 277.3 168.2L278.4 165.3C278.5 165.3 270.8 152.1 265.3 161.3Z" fill="#F48462"/>
<path d="M267.2 173.3C267.1 173.3 267 173.2 266.9 173.1C266 171.2 267.2 168.9 267.2 168.8C267.3 168.6 267.5 168.6 267.6 168.7C267.8 168.8 267.8 169 267.7 169.1C267.7 169.1 266.6 171.2 267.4 172.8C267.5 173 267.4 173.1 267.2 173.2C267.3 173.3 267.2 173.3 267.2 173.3Z" fill="black"/>
<path d="M278.3 172.6C278.2 172.6 278.2 172.6 278.1 172.5C278 172.4 277.9 172.2 278 172.1L280.2 169.1C280.3 169 280.5 168.9 280.6 169C280.7 169.1 280.8 169.3 280.7 169.4L278.5 172.4C278.5 172.6 278.4 172.6 278.3 172.6Z" fill="black"/>
<path d="M281 171.5H279.2C279 171.5 278.9 171.4 278.9 171.2C278.9 171 279 170.9 279.2 170.9H281C281.2 170.9 281.3 171 281.3 171.2C281.3 171.4 281.1 171.5 281 171.5Z" fill="black"/>
<path d="M270.3 175.8C269.4 175.8 268.7 175.2 268.6 175.2C268.5 175.1 268.5 175 268.5 174.9C268.5 174.8 268.6 174.7 268.7 174.7L272.2 173C272.3 173 272.4 173 272.5 173C272.6 173.1 272.6 173.2 272.6 173.3C272.6 173.4 272.4 174.7 271.2 175.5C271 175.8 270.7 175.8 270.3 175.8ZM269.5 175C269.9 175.2 270.5 175.3 271 175C271.5 174.7 271.8 174.2 271.9 173.8L269.5 175Z" fill="black"/>
<path d="M271 169.2C270.8 169.2 270.7 169.1 270.7 168.9V167.1C270.7 166.9 270.8 166.8 271 166.8C271.2 166.8 271.3 166.9 271.3 167.1V168.9C271.3 169.1 271.2 169.2 271 169.2Z" fill="black"/>
<path d="M265.7 169.5C265.5 169.5 265.4 169.4 265.4 169.2V167.4C265.4 167.2 265.5 167.1 265.7 167.1C265.9 167.1 266 167.2 266 167.4V169.2C266 169.3 265.9 169.5 265.7 169.5Z" fill="black"/>
<path d="M272.2 165.7C272.1 165.7 272 165.7 271.9 165.6C271.4 164.8 270.3 165.2 270.2 165.2C270 165.3 269.9 165.2 269.8 165C269.7 164.8 269.8 164.7 270 164.6C270.1 164.6 271.6 164.1 272.4 165.2C272.5 165.3 272.5 165.5 272.3 165.6C272.3 165.6 272.3 165.7 272.2 165.7Z" fill="black"/>
<path d="M264.8 165.5C264.7 165.5 264.7 165.5 264.6 165.4C264.5 165.3 264.5 165.1 264.6 165C264.6 165 265.3 164.2 266.1 164.2C266.5 164.2 266.9 164.4 267.2 164.7C267.3 164.8 267.3 165 267.2 165.1C267.1 165.2 266.9 165.2 266.8 165.1C266.6 164.9 266.4 164.8 266.2 164.8C265.7 164.8 265.3 165.2 265.1 165.4C265 165.5 264.9 165.5 264.8 165.5Z" fill="black"/>
<path d="M277.4 168.2C277.4 168.2 276.6 170.8 275.1 169C273.5 167 272.9 164.6 271.7 161.8C270.5 159 268.2 157.3 266.8 159.3C265.4 161.3 265.4 161.3 265.4 161.3C265.4 161.3 264.8 160.3 266.6 157.4C267.5 156 268.8 155 268.8 155C268.8 155 273.2 151.8 278.3 155.8C284.1 160.4 282.6 163.7 282.6 163.7C282.6 163.7 284 165.5 283.7 167C283.4 168.5 282.9 169.8 282.9 169.8C282.9 169.8 280.9 166.4 277.4 168.2Z" fill="black"/>
<path d="M280.5 182.3L285.4 182.7C285.4 182.7 287.8 202.7 294.4 208C301 213.3 300 227 300 227L274.5 237.8L262.3 245.7C262.3 245.7 259.9 213.5 260.1 202C260.4 190.5 261.5 187.2 261.5 187.2C261.5 187.2 263.2 186.1 264.6 185.4C266 184.7 266 184.7 266 184.7C266 184.7 264.9 192.8 265.1 199.4C265.3 206 265.6 208.8 265.6 208.8L283.4 206C283.7 206 280.1 198.8 280.5 182.3Z" fill="#E94033"/>
<path d="M273.3 227.4C264.3 227.4 263.2 214.2 263.2 214C263.2 213.9 263.2 213.8 263.3 213.8C263.4 213.7 263.4 213.7 263.5 213.7L281.8 213.6C282 213.6 282.1 213.7 282.1 213.9C282.1 214.2 282.2 221.5 278.5 225.3C277.2 226.6 275.4 227.4 273.3 227.4ZM263.9 214.3C264.1 216.3 265.6 226.8 273.3 226.8C275.2 226.8 276.9 226.1 278.1 224.8C281.2 221.6 281.5 215.6 281.5 214.2L263.9 214.3Z" fill="white"/>
<path d="M271.6 187C270.6 187 269.6 186.8 268.6 186.4C268.4 186.3 268.4 186.2 268.4 186C268.5 185.8 268.6 185.8 268.8 185.8C274.2 188.1 279 182.6 279.1 182.6C279.2 182.5 279.4 182.5 279.5 182.6C279.6 182.7 279.6 182.9 279.5 183C279.6 183.1 276.1 187 271.6 187Z" fill="#E94033"/>
<path d="M274.6 215.2L281.3 190.3L284.4 188.1L283 183.9L281.6 187L279 186.2L279.1 182.8L275.5 186.2L277.3 189.2L270.5 214.1L267.5 215.8L268.9 220.6L270.5 217.6L273.1 218.3L272.8 221.6L276.1 218.7L274.6 215.2Z" fill="#DDD7E0"/>
<path d="M276.2 198C276 197.9 275.9 197.8 275.9 197.6L277.9 190.3C277.9 190.1 278.1 190 278.3 190.1C278.5 190.1 278.6 190.3 278.5 190.5L276.5 197.8C276.5 197.9 276.3 198 276.2 198Z" fill="white"/>
<path d="M289.5 206.4C289.5 206.4 284.3 196.9 279.4 197.2L278.7 200L275.1 199C273.9 198.7 272.6 198.4 271.4 198.4C270 198.3 268.3 198.5 267.5 199.3C265.9 200.9 268.6 202.8 268.6 202.8C268.6 202.8 265.4 202 264.5 204C263.7 206 266.1 207.7 266.1 207.7C266.1 207.7 263.1 208.5 264.7 210.5C269.1 216 284.6 218.4 284.6 218.4L289.5 206.4Z" fill="#F48462"/>
<path d="M261.4 232.3L260.7 239.5C260.7 239.5 271.5 239.6 286.5 236.6C301.6 233.6 301.1 232.4 301.1 232.4L298.7 227.1C298.9 227.1 279.1 233.9 261.4 232.3Z" fill="#BA91A8"/>
<path d="M299.6 243.3C299.3 243.2 293.1 241.4 292.1 236C292.1 235.8 292.2 235.7 292.3 235.6C292.5 235.6 292.6 235.7 292.7 235.8C293.7 240.8 299.7 242.6 299.7 242.6C299.9 242.6 300 242.8 299.9 243C299.9 243.2 299.7 243.3 299.6 243.3Z" fill="white"/>
<path d="M282.4 297.3C282.3 297.3 282.2 297.2 282.1 297.1C282.1 297 281 294.7 279.4 288.6C277.6 281.6 276.5 259.3 276.4 256.8L263.1 253.3C262.9 253.3 262.8 253.1 262.9 252.9C262.9 252.7 263.1 252.6 263.3 252.7L276.9 256.2C277 256.2 277.1 256.3 277.1 256.5C277.1 256.7 278.2 281.1 280.1 288.4C281.7 294.4 282.7 296.7 282.7 296.8C282.8 297 282.7 297.1 282.6 297.2C282.5 297.3 282.4 297.3 282.4 297.3Z" fill="white"/>
<path d="M285.8 332.2L253.2 333.1L253.9 341.9L286.6 341.1L285.8 332.2Z" fill="#A5C4F2"/>
<path d="M331.4 326L335.8 336.2L302 346.3L297.9 337.1L331.4 326Z" fill="#A5C4F2"/>
<path d="M281.3 201.7H281.2L278.7 200.4C278.5 200.3 278.5 200.1 278.6 200C278.7 199.8 278.9 199.8 279 199.9L281.5 201.2C281.7 201.3 281.7 201.5 281.6 201.6C281.5 201.6 281.4 201.7 281.3 201.7Z" fill="black"/>
<path d="M264.2 160.9C264.2 160.9 266 151.2 275.6 152.8C285.2 154.5 283.6 166.9 283.6 166.9L279.2 165.7L264.2 160.9Z" fill="#F7B369"/>
<path d="M287.6 183.1C287.6 183.1 324.8 196.4 327.8 214.5C330.8 232.6 306.3 231.5 293.5 226.9C280.7 222.3 278.8 220.1 278.8 220.1L284.9 199.8L293.5 203.1L287.6 183.1Z" fill="#A5C4F2"/>
<path d="M310.4 209.5C310.3 209.5 310.3 209.5 310.2 209.4C306.4 206.1 293.6 203.4 293.4 203.4C293.2 203.4 293.1 203.2 293.2 203C293.2 202.8 293.4 202.7 293.6 202.8C294.1 202.9 306.8 205.6 310.7 209C310.8 209.1 310.8 209.3 310.7 209.4C310.5 209.4 310.5 209.5 310.4 209.5Z" fill="#E94033"/>
<path d="M307 205.9C304.7 205.9 302 205.5 301.2 205.3C301.1 205.3 301 205.2 300.9 205C300.9 204.9 301 204.7 301.1 204.7C301.9 204.4 309 201.7 310.1 204.2C310.3 204.6 310.2 204.9 310 205.1C309.7 205.8 308.4 205.9 307 205.9ZM302.5 204.9C305.5 205.3 309.1 205.5 309.6 204.8C309.6 204.8 309.7 204.7 309.6 204.5C309 203.2 305.3 204 302.5 204.9Z" fill="#E94033"/>
<path d="M248.2 206.4C247.8 206.4 247.4 206.3 247.1 206C245.4 204.6 245.1 200.3 245.1 200.1C245.1 200 245.2 199.8 245.3 199.8C245.4 199.7 245.6 199.8 245.6 199.9C246.3 200.6 249.8 204.4 249.3 205.8C249.2 206 249 206.3 248.4 206.4C248.4 206.4 248.3 206.4 248.2 206.4ZM245.8 201C246 202.3 246.5 204.7 247.5 205.5C247.8 205.7 248.1 205.8 248.4 205.8C248.7 205.8 248.7 205.6 248.8 205.6C249 204.9 247.3 202.7 245.8 201Z" fill="#E94033"/>
<path d="M207.7 225.5C197.7 225.5 189.7 217.4 189.7 207.5C189.7 197.5 197.8 189.5 207.7 189.5C217.7 189.5 225.7 197.6 225.7 207.5C225.7 217.4 217.6 225.5 207.7 225.5ZM207.7 193.1C199.8 193.1 193.3 199.5 193.3 207.5C193.3 215.4 199.7 221.9 207.7 221.9C215.6 221.9 222.1 215.5 222.1 207.5C222 199.6 215.6 193.1 207.7 193.1Z" fill="#031D3C"/>
<path d="M217.9 226.8C217.9 226.8 222.5 231.6 223.7 228.2C224.9 224.7 218.9 214.3 215.3 215.4C211.6 216.5 217.9 226.8 217.9 226.8Z" fill="#F48462"/>
<path d="M214.3 228.1C214.3 228.1 218.9 232.9 220.1 229.5C221.3 226 215.3 215.6 211.7 216.7C208 217.8 214.3 228.1 214.3 228.1Z" fill="#F48462"/>
<path d="M209 227.5C209.5 228.9 210.3 230.2 211.4 231.2C212.4 232.1 213.6 232.6 214.4 231.2C216 228.4 212.3 218.4 209 218.8C206.5 219.1 208 224.7 209 227.5Z" fill="#F48462"/>
<path d="M219.8 227.4C219.7 227.4 219.6 227.3 219.5 227.2L214.5 218.7C214.4 218.6 214.5 218.4 214.6 218.3C214.7 218.2 214.9 218.3 215 218.4L220 226.9C220.1 227 220 227.2 219.9 227.3C219.9 227.4 219.9 227.4 219.8 227.4Z" fill="black"/>
<path d="M215.1 229.6C215 229.6 214.9 229.5 214.8 229.4L210.2 220.1C210.1 219.9 210.2 219.8 210.3 219.7C210.5 219.6 210.6 219.7 210.7 219.8L215.3 229.1C215.4 229.3 215.3 229.4 215.2 229.5C215.2 229.5 215.2 229.6 215.1 229.6Z" fill="black"/>
<path d="M222.2 216C221.9 216 221.7 215.9 221.4 215.8L192.4 202.6C191.5 202.2 191.1 201.1 191.5 200.2C191.9 199.3 193 198.9 193.9 199.3L222.9 212.5C223.8 212.9 224.2 214 223.8 214.9C223.5 215.6 222.9 216 222.2 216Z" fill="#031D3C"/>
<path d="M193.1 216C192.4 216 191.7 215.6 191.4 214.9C191 214 191.4 212.9 192.3 212.5L221.3 199.3C222.2 198.9 223.3 199.3 223.7 200.2C224.1 201.1 223.7 202.2 222.8 202.6L193.8 215.8C193.7 215.9 193.4 216 193.1 216Z" fill="#031D3C"/>
<path d="M211.2 207.5C211.2 209.5 209.6 211.1 207.6 211.1C205.6 211.1 204 209.5 204 207.5C204 205.5 205.6 203.9 207.6 203.9C209.6 203.9 211.2 205.5 211.2 207.5Z" fill="#031D3C"/>
<path d="M188.2 311.1C178.5 311.1 170.6 303.2 170.6 293.5C170.6 283.8 178.5 275.9 188.2 275.9C197.9 275.9 205.8 283.8 205.8 293.5C205.9 303.2 198 311.1 188.2 311.1ZM188.2 279.4C180.5 279.4 174.2 285.7 174.2 293.4C174.2 301.1 180.5 307.4 188.2 307.4C195.9 307.4 202.2 301.1 202.2 293.4C202.3 285.7 196 279.4 188.2 279.4Z" fill="#031D3C"/>
<path d="M202.4 301.7C202.1 301.7 201.9 301.6 201.7 301.5L173.3 288.6C172.4 288.2 172 287.1 172.4 286.2C172.8 285.3 173.9 284.9 174.8 285.3L203.2 298.2C204.1 298.6 204.5 299.7 204.1 300.6C203.8 301.3 203.1 301.7 202.4 301.7Z" fill="#031D3C"/>
<path d="M174.1 301.7C173.4 301.7 172.8 301.3 172.5 300.6C172.1 299.7 172.5 298.6 173.4 298.2L201.8 285.3C202.7 284.9 203.8 285.3 204.2 286.2C204.6 287.1 204.2 288.2 203.3 288.6L174.9 301.5C174.6 301.6 174.3 301.7 174.1 301.7Z" fill="#031D3C"/>
<path d="M191.7 293.4C191.7 295.3 190.1 296.9 188.2 296.9C186.3 296.9 184.7 295.3 184.7 293.4C184.7 291.5 186.3 289.9 188.2 289.9C190.1 289.9 191.7 291.5 191.7 293.4Z" fill="#031D3C"/>
<path d="M305.6 294C305.1 294 304.7 293.9 304.3 293.7C303.6 293.3 303.3 292.9 303.3 292.3C303.4 290 310.5 287 311.3 286.7C311.4 286.7 311.5 286.7 311.6 286.8C311.7 286.9 311.7 287 311.7 287.1C311.6 287.3 309.6 292.8 306.7 293.9C306.2 294 305.9 294 305.6 294ZM310.8 287.5C307.9 288.8 303.9 290.9 303.9 292.3C303.9 292.4 303.9 292.8 304.6 293.1C305.2 293.4 305.8 293.5 306.5 293.2C308.4 292.5 310.1 289 310.8 287.5Z" fill="white"/>
<path d="M272.6 160.5L267.6 159C267.3 158.9 267.1 158.5 267.2 158.2L267.4 157.4C267.5 157.1 267.9 156.9 268.2 157L273.2 158.5C273.5 158.6 273.7 159 273.6 159.3L273.4 160.1C273.3 160.4 272.9 160.6 272.6 160.5Z" fill="#E94033"/>
<path d="M261.4 349.5H261.3L256.4 347.1C256.2 347 256.2 346.8 256.3 346.7C256.4 346.5 256.6 346.5 256.7 346.6L261.6 349C261.8 349.1 261.8 349.3 261.7 349.4C261.7 349.4 261.6 349.5 261.4 349.5Z" fill="white"/>
<path d="M257.9 353.5H257.8L251.9 350.3C251.8 350.2 251.7 350 251.8 349.9C251.9 349.8 252.1 349.7 252.2 349.8L258.1 353C258.2 353.1 258.3 353.3 258.2 353.4C258.1 353.5 258 353.5 257.9 353.5Z" fill="white"/>
<path d="M283.8 362.6C283.8 366 283.6 368.4 283.1 368.7C282 369.6 236.1 368.9 235.3 368.4C234.7 368 233.9 365.3 234.9 362.6H283.8Z" fill="#E94033"/>
<path d="M337.7 364.7C336.9 365.8 292.3 376.8 291.4 376.5C290.7 376.3 289.3 374 289.3 371.2L336.8 359.3C337.6 362.3 338 364.3 337.7 364.7Z" fill="#E94033"/>
<path d="M310 351.9H304.5C304.3 351.9 304.2 351.8 304.2 351.6C304.2 351.4 304.3 351.3 304.5 351.3H310C310.2 351.3 310.3 351.4 310.3 351.6C310.3 351.8 310.1 351.9 310 351.9Z" fill="white"/>
<path d="M308.8 356.2H301.2C301 356.2 300.9 356.1 300.9 355.9C300.9 355.7 301 355.6 301.2 355.6H308.8C309 355.6 309.1 355.7 309.1 355.9C309.1 356.1 309 356.2 308.8 356.2Z" fill="white"/>
<path d="M279.7 243.9L272.9 244.3C272.2 244.3 271.7 243.8 271.6 243.2L271 232.2C271 231.5 271.5 231 272.1 230.9L278.9 230.5C279.6 230.5 280.1 231 280.2 231.6L280.8 242.6C280.9 243.3 280.4 243.8 279.7 243.9Z" fill="#BA91A8"/>
<path d="M294.3 243.8L286.5 244.9C285.7 245 285 244.5 284.9 243.7L283.1 231.1C283 230.3 283.5 229.6 284.3 229.5L292.1 228.4C292.9 228.3 293.6 228.8 293.7 229.6L295.5 242.2C295.6 243 295.1 243.7 294.3 243.8Z" fill="#BA91A8"/>
<path d="M273.3 241.4C273.1 241.4 273 241.3 273 241.1L272.4 233.4C272.4 233.2 272.5 233.1 272.7 233.1C272.9 233.1 273 233.2 273 233.4L273.6 241.1C273.6 241.2 273.5 241.3 273.3 241.4Z" fill="#E94033"/>
<path d="M287.5 231C287.3 231 287.2 230.9 287.2 230.7C287.2 230.5 287.3 230.4 287.5 230.4L292.4 230C292.6 230 292.7 230.1 292.7 230.3C292.7 230.5 292.6 230.6 292.4 230.6L287.5 231Z" fill="#E94033"/>
<path d="M144.7 302V305.8C144.7 307.5 143.3 308.9 141.6 308.9H0V302H144.7Z" fill="#DADBE5"/>
<path d="M135.8 286.8V290.7C135.8 292.4 134.4 293.8 132.7 293.8H0V286.8H135.8Z" fill="#DADBE5"/>
<path d="M133.4 293.8C132 293.8 130.9 292.7 130.9 291.3V243.2C130.9 241.8 132 240.7 133.4 240.7H133.5C134.9 240.7 136 241.8 136 243.2V291.3C135.8 292.7 134.7 293.8 133.4 293.8Z" fill="#DADBE5"/>
<path d="M142.4 307.8C141 307.8 139.9 306.7 139.9 305.3V243.2C139.9 241.8 141 240.7 142.4 240.7H142.5C143.9 240.7 145 241.8 145 243.2V305.3C144.8 306.7 143.7 307.8 142.4 307.8Z" fill="#DADBE5"/>
<path d="M127.3 205.5C127.3 205.5 115.3 204.7 112.6 200.9C109.9 197.1 117.1 190.9 117.1 190.9L125.9 192.5L127.3 205.5Z" fill="#F48462"/>
<path d="M113.5 190.4C113.5 190.4 117.1 186.4 119.8 184.8C122.5 183.2 127.8 185.8 127.8 187.6C127.8 189.4 121.8 188.8 121.8 188.8C121.8 188.8 119.4 197.5 113.5 197.5C107.5 197.5 113.5 190.4 113.5 190.4Z" fill="#F48462"/>
<path d="M113.7 197.8C113.3 197.8 112.8 197.8 112.3 197.7C112.1 197.7 112 197.5 112.1 197.3C112.1 197.1 112.3 197 112.5 197.1C118.3 198.1 120.3 192 120.4 192C120.5 191.8 120.6 191.7 120.8 191.8C121 191.9 121.1 192 121 192.2C120.8 192.2 119 197.8 113.7 197.8Z" fill="black"/>
<path d="M116.8 205.7C116.8 205.7 99.8 221.9 76.8 216.2C53.8 210.5 64.2 181.6 64.2 181.6C64.2 181.6 76.8 188.6 85.4 190.1C93.9 191.6 111.9 188.9 111.9 188.9L116.8 205.7Z" fill="#F7B369"/>
<path d="M57.8 347.2L58.4 357.4L42.3 358.8L41.8 348.6L57.8 347.2Z" fill="#F48462"/>
<path d="M81.2 342L79.6 352.1L63.6 349.7L65.3 339.6L81.2 342Z" fill="#F48462"/>
<path d="M83.7 354.5C83.7 354.5 87.5 343.5 83.7 344.2C79.9 344.9 76.2 348.6 76.2 348.6C76.2 348.6 63.8 344.4 62.5 344.1C61.1 343.9 58.4 358 58.4 358L74.7 372C74.7 372 103.6 373.7 105.1 372C106.6 370.3 101.1 361.7 95.9 361C90.7 360.3 90.7 360.3 90.7 360.3L83.7 354.5Z" fill="#031D3C"/>
<path d="M77.2 233.9C77.2 233.9 91 264.7 94.1 278.3C96.3 288.2 91.1 343.3 89 343.5C86.9 343.8 64.5 343.5 64.5 343.5L63.3 348.8H37C37 348.8 36.3 318.8 37 296.3C37.7 273.8 40.1 235.6 40.1 235.6L55.6 229.6L77.2 233.9Z" fill="#E94033"/>
<path d="M65.2 342.5C65 342.5 64.9 342.3 64.9 342.1C71.5 300.3 70.4 254.9 70.4 254.5C70.4 254.4 70.5 254.2 70.6 254.2L79.2 251.2C79.4 251.1 79.5 251.2 79.6 251.4C79.7 251.6 79.6 251.7 79.4 251.8L71 254.7C71.1 258.2 71.9 301.9 65.5 342.2C65.4 342.4 65.3 342.5 65.2 342.5Z" fill="#A5C4F2"/>
<path d="M62.8 354.9C62.8 354.9 61.7 349.3 59 349C56.2 348.7 52.3 354.9 52.3 354.9C52.3 354.9 41.5 354.1 40.7 354.9C39.9 355.7 39.9 373.5 40.7 373.7C41.5 374 86.4 374 88.4 373.7C90.4 373.4 87.5 364.3 83.5 362.7C79.5 361.1 75.1 361.1 75.1 361.1L62.8 354.9Z" fill="#031D3C"/>
<path d="M75 361.4L70.2 361.3C70 361.3 69.9 361.2 69.9 361C69.9 360.8 70 360.7 70.2 360.7L75 360.8C75.2 360.8 75.3 360.9 75.3 361.1C75.3 361.3 75.2 361.4 75 361.4Z" fill="#F7B369"/>
<path d="M90.8 360.5L85.4 359.7C85.2 359.7 85.1 359.5 85.1 359.4C85.1 359.2 85.3 359.1 85.4 359.1L90.7 359.9C90.9 359.9 91 360.1 91 360.2C91 360.4 90.9 360.5 90.8 360.5Z" fill="#F7B369"/>
<path d="M78.5 237.5C78.5 237.5 77.5 204.7 70.8 188.6C64.8 174.2 40.7 179.7 38.6 185C36.5 190.4 40.2 239.7 40.2 239.7C40.2 239.7 65.3 243.6 78.5 237.5Z" fill="#F7B369"/>
<path d="M59.8 175.2V175.4L59.7 179.4L59.6 182.5C59.6 182.5 59.9 183.2 56.5 183C52 182.7 50.5 180.6 50.5 180.6L50.3 173.3L51.7 173.6L59.8 175.2Z" fill="#F48462"/>
<path d="M60.1 176.1L60 179.7C58 179.5 54.3 178.6 52.8 175.2C52.7 174.9 52.6 174.7 52.6 174.5L60.1 176.1Z" fill="black"/>
<path d="M61.3 158.9C61.3 158.9 65.2 168.2 63.9 173.5C62.5 178.8 58 178 55.3 177C52.6 176 51.3 174.3 51.3 174.3C51.3 174.3 48.8 175.2 47.1 172.7C45.4 170.2 46.4 167.4 47.9 166.7C49.3 166 51.1 167.1 51.1 167.1L49.7 164.4C49.6 164.4 55.2 150.6 61.3 158.9Z" fill="#F48462"/>
<path d="M61 170.8C60.8 170.7 60.7 170.6 60.7 170.4C61.2 168.7 60 166.8 60 166.8C59.9 166.7 59.9 166.5 60.1 166.4C60.2 166.3 60.4 166.3 60.5 166.5C60.6 166.6 61.9 168.6 61.3 170.6C61.2 170.7 61.1 170.8 61 170.8Z" fill="black"/>
<path d="M50.6 171.5C50.5 171.5 50.4 171.5 50.4 171.4L48 168.7C47.9 168.6 47.9 168.4 48 168.3C48.1 168.2 48.3 168.2 48.4 168.3L50.8 171C50.9 171.1 50.9 171.3 50.8 171.4C50.7 171.5 50.7 171.5 50.6 171.5Z" fill="black"/>
<path d="M48 170.8C47.9 170.8 47.7 170.7 47.7 170.5C47.7 170.3 47.8 170.2 48 170.1L49.7 169.8C49.9 169.8 50 169.9 50.1 170.1C50.1 170.3 50 170.4 49.8 170.5L48 170.8Z" fill="black"/>
<path d="M61.9 166.9C61.7 166.9 61.6 166.8 61.6 166.6L61.4 164.9C61.4 164.7 61.5 164.6 61.7 164.6C61.9 164.6 62 164.7 62 164.9L62.2 166.6C62.2 166.7 62.1 166.9 61.9 166.9Z" fill="black"/>
<path d="M57 167.3C56.8 167.3 56.7 167.2 56.7 167L56.5 165.3C56.5 165.1 56.6 165 56.8 165C57 165 57.1 165.1 57.1 165.3L57.3 167C57.3 167.2 57.2 167.3 57 167.3Z" fill="black"/>
<path d="M50.8 165.7V168.5L48.4 166L50.8 165.7Z" fill="black"/>
<path d="M78.6 238.3C78.6 238.3 78.7 226 75 206.6C71.3 187.1 65.9 182.7 65.9 182.7C65.9 182.7 63.3 181.6 62.2 181.2C61.1 180.8 61.1 180.8 61.1 180.8C61.1 180.8 63.3 187.2 64.1 189.4C64.8 191.6 66.1 197.9 66.1 197.9H53.5C53.5 197.9 52.6 190.8 51.6 186.1C50.5 181.4 49.9 180.1 49.9 180.1C49.9 180.1 48.4 180.2 46.9 180.6C45.4 181 45 181.1 45 181.1C45 181.1 51.6 213.4 46.8 218.4C42 223.4 38.8 224.8 38.8 224.8L39.1 244C39.2 243.9 74.9 248 78.6 238.3Z" fill="#E94033"/>
<path d="M35.9 282.1C34.7 282.1 33.5 282 32.2 281.9C31.2 281.8 30.5 280.9 30.5 280C30.6 279 31.5 278.3 32.4 278.3C57.7 280.4 66.3 259.5 71.5 238.8C76.8 217.8 92.8 207.4 93.5 207C94.3 206.5 95.5 206.7 96 207.6C96.5 208.4 96.3 209.6 95.4 210.1C95.2 210.2 79.9 220.2 75 239.8C70.1 259.6 61.2 282.1 35.9 282.1Z" fill="#DDD7E0"/>
<path d="M80.1 215.4C81.5 215.6 84.1 217.9 84.1 217.9C84.1 217.9 89 219 89.3 220.5C89.6 222 87.2 223.5 87.2 223.5C87.2 223.5 88.4 226.6 88.1 227.8C87.8 228.9 87 234.5 84.1 235.6C81.2 236.8 69.1 231.1 69.1 231.1L68.7 218.8C68.7 218.8 78.7 215.2 80.1 215.4Z" fill="#F48462"/>
<path d="M62.4 163L60.6 162.8C60.4 162.8 60.3 162.6 60.3 162.5C60.3 162.3 60.5 162.2 60.6 162.2L62.4 162.4C62.6 162.4 62.7 162.6 62.7 162.7C62.7 162.8 62.6 163 62.4 163Z" fill="black"/>
<path d="M55.7 163.5C55.6 163.5 55.4 163.4 55.4 163.2C55.4 163 55.5 162.9 55.6 162.8L57.3 162.5C57.5 162.5 57.6 162.6 57.7 162.7C57.7 162.9 57.6 163 57.5 163.1L55.7 163.5Z" fill="black"/>
<path d="M58 173.8C57.8 173.8 57.6 173.7 57.4 173.6C56.7 173.2 56.5 172.1 56.4 171.7C56.4 171.6 56.5 171.4 56.6 171.4C56.7 171.3 57.1 171.1 59.8 172.2C59.9 172.2 60 172.3 60 172.4C60 172.5 60 172.6 59.9 172.7C59.9 172.7 59.3 173.5 58.3 173.8C58.2 173.8 58.1 173.8 58 173.8ZM57.1 171.9C57.2 172.3 57.4 172.8 57.8 173.1C57.9 173.2 58 173.2 58.2 173.2C58.6 173.1 59 172.8 59.2 172.6C58.4 172.3 57.5 172 57.1 171.9Z" fill="black"/>
<path d="M50.7 167.7C50.7 167.7 51.7 168.3 52.3 167.2C53 166.1 51.5 162.9 51.5 162.9C51.5 162.9 54.4 163.6 56.1 162.6C57.9 161.7 58.7 159 58.7 159C58.7 159 60 161.7 63.9 160.5C67.8 159.3 68.6 154 64.4 152.9C60.2 151.8 57.9 153.7 57.9 153.7C57.9 153.7 57.4 149.8 52.2 151.7C47.5 153.4 46.7 159.3 46.7 159.3C46.7 159.3 43.9 159.4 43.3 162.5C42.8 165.6 46.3 167.8 46.3 167.8C46.3 167.8 48.6 166.8 50.7 167.7Z" fill="black"/>
<path d="M71.9 233.8C71.9 233.8 29.1 244.4 23.7 221.2C17.7 195.3 40.6 183 40.6 183L46 212L69.9 215.7L71.9 233.8Z" fill="#F7B369"/>
<path d="M49.5 213C49.4 213 43.7 211.7 37.6 212.3C37.4 212.3 37.3 212.2 37.3 212C37.3 211.8 37.4 211.7 37.6 211.7C43.8 211 49.6 212.3 49.6 212.4C49.8 212.4 49.9 212.6 49.8 212.8C49.7 212.9 49.6 213 49.5 213Z" fill="white"/>
<path d="M46 212.5C45.9 212.5 45.9 212.5 46 212.5C43.5 211.7 39.5 210.2 39.6 209.2C39.6 208.9 39.9 208.7 40.4 208.5C43.3 207.8 46.2 211.9 46.3 212C46.4 212.1 46.4 212.3 46.3 212.4C46.2 212.4 46.1 212.5 46 212.5ZM41 209C40.8 209 40.6 209 40.5 209.1C40.2 209.2 40.2 209.2 40.2 209.2C40.3 209.6 42.7 210.7 45.1 211.5C44.2 210.5 42.6 209 41 209Z" fill="white"/>
<path d="M57.8 183.4C55.4 183.4 52.2 182.9 50.1 180.6C50 180.5 50 180.3 50.1 180.2C50.2 180.1 50.4 180.1 50.5 180.2C53.8 184 60.8 182.5 60.9 182.5C61.1 182.5 61.2 182.6 61.3 182.7C61.3 182.9 61.2 183 61.1 183.1C61 183.1 59.6 183.4 57.8 183.4Z" fill="white"/>
<path d="M86.9 198.5H86.8C86.5 198.5 86.2 198.3 86 198C85.1 196.4 87.5 190.9 87.8 190.3C87.9 190.2 88 190.1 88.1 190.1C88.2 190.1 88.3 190.2 88.4 190.4C88.5 191 89.1 196.8 87.8 198.2C87.5 198.4 87.3 198.5 86.9 198.5ZM87.9 191.6C87 193.8 86.1 196.8 86.6 197.7C86.7 197.8 86.8 197.9 86.9 197.9C87.1 197.9 87.2 197.9 87.3 197.7C88.1 196.9 88.1 193.7 87.9 191.6Z" fill="white"/>
<path d="M36.7 340.7C36.5 340.7 36.4 340.6 36.4 340.4C36.4 340.2 36.5 340.1 36.7 340.1L65.4 339.3C65.6 339.3 65.7 339.4 65.7 339.6C65.7 339.8 65.6 339.9 65.4 339.9L36.7 340.7Z" fill="#A5C4F2"/>
<path d="M90.3 336.6H66.3C66.1 336.6 66 336.5 66 336.3C66 336.1 66.1 336 66.3 336H90.3C90.5 336 90.6 336.1 90.6 336.3C90.6 336.5 90.5 336.6 90.3 336.6Z" fill="#A5C4F2"/>
<path d="M129.1 196.4C129.1 196.4 134.9 195.7 133.1 193.1C131.3 190.4 120.8 189.1 119.6 192.3C118.5 195.4 129.1 196.4 129.1 196.4Z" fill="#F48462"/>
<path d="M128.4 201.2C128.4 201.2 134.2 200.5 132.4 197.9C130.6 195.2 120.1 193.9 118.9 197.1C117.9 200.2 128.4 201.2 128.4 201.2Z" fill="#F48462"/>
<path d="M125.1 205.2C126.4 205.6 127.7 205.8 129 205.5C130.2 205.2 131.2 204.7 130.6 203.4C129.4 200.8 120.4 198.1 119 200.6C117.8 202.5 122.6 204.4 125.1 205.2Z" fill="#F48462"/>
<path d="M130 196.6L122.9 195.5C122.7 195.5 122.6 195.3 122.6 195.1C122.6 194.9 122.8 194.8 123 194.8L130.1 195.9C130.3 195.9 130.4 196.1 130.4 196.3C130.3 196.5 130.2 196.6 130 196.6Z" fill="black"/>
<path d="M128.4 201.6L121 200C120.8 200 120.7 199.8 120.7 199.6C120.7 199.4 120.9 199.3 121.1 199.3L128.4 200.9C128.6 200.9 128.7 201.1 128.7 201.3C128.7 201.4 128.6 201.6 128.4 201.6Z" fill="black"/>
<path d="M84.1 218.2L79.7 217.6C79.5 217.6 79.4 217.4 79.4 217.3C79.4 217.1 79.6 217 79.7 217L84.1 217.6C84.3 217.6 84.4 217.8 84.4 217.9C84.4 218.1 84.3 218.2 84.1 218.2Z" fill="black"/>
<path d="M87.2 223.7L86 223.4C85.8 223.4 85.7 223.2 85.8 223C85.8 222.8 86 222.7 86.2 222.8L87.3 223.1C87.5 223.1 87.6 223.3 87.5 223.5C87.4 223.6 87.3 223.7 87.2 223.7Z" fill="black"/>
<path d="M44 248.1C43.8 248.1 43.7 248.1 43.5 248.1C43.3 248.1 43.2 247.9 43.2 247.8C43.2 247.6 43.4 247.5 43.5 247.5C45 247.6 46.2 247.2 47.1 246.4C49.1 244.5 49.1 240.8 49.1 240.8C49.1 240.6 49.2 240.5 49.4 240.5C49.6 240.5 49.7 240.6 49.7 240.8C49.7 241 49.7 244.8 47.5 246.9C46.6 247.7 45.4 248.1 44 248.1Z" fill="#A5C4F2"/>
<path d="M62.1 209.3C55.4 209.3 54.6 200.4 54.6 200.3C54.6 200.2 54.6 200.1 54.7 200.1C54.8 200 54.8 200 54.9 200H66.8C66.9 200 67.1 200.1 67.1 200.2C67.2 200.4 68.3 204.7 66.4 207.4C65.5 208.6 64.2 209.2 62.4 209.3C62.3 209.3 62.2 209.3 62.1 209.3ZM55.3 200.6C55.5 202.2 56.7 208.9 62.4 208.7C64 208.6 65.2 208.1 66 207.1C67.5 205 66.9 201.6 66.7 200.7H55.3V200.6Z" fill="#A5C4F2"/>
<path d="M89.4 215.2C89.3 215.2 89.2 215.2 89.2 215.1L87 212.5C86.9 212.4 86.9 212.2 87 212.1C87.1 212 87.3 212 87.4 212.1L89.6 214.7C89.7 214.8 89.7 215 89.6 215.1C89.5 215.2 89.4 215.2 89.4 215.2Z" fill="white"/>
<path d="M91.9 213C91.8 213 91.7 213 91.6 212.9L89.8 210.3C89.7 210.2 89.7 210 89.9 209.9C90 209.8 90.2 209.8 90.3 210L92.1 212.6C92.2 212.7 92.2 212.9 92 213C92 213 92 213 91.9 213Z" fill="white"/>
<path d="M74.1 243C74 243 74 243 74.1 243L70.9 242C70.7 241.9 70.7 241.8 70.7 241.6C70.8 241.4 70.9 241.4 71.1 241.4L74.2 242.4C74.4 242.5 74.4 242.6 74.4 242.8C74.3 243 74.2 243 74.1 243Z" fill="white"/>
<path d="M73.1 247H73L69.8 245.9C69.6 245.8 69.6 245.7 69.6 245.5C69.7 245.3 69.8 245.3 70 245.3L73.2 246.4C73.4 246.5 73.4 246.6 73.4 246.8C73.4 247 73.3 247 73.1 247Z" fill="white"/>
<path d="M71.9 250.9H71.8L68.6 249.8C68.4 249.7 68.4 249.6 68.4 249.4C68.5 249.2 68.6 249.2 68.8 249.2L72 250.3C72.2 250.4 72.2 250.5 72.2 250.7C72.2 250.9 72 250.9 71.9 250.9Z" fill="white"/>
<path d="M40.3 281.6C40.1 281.6 40 281.5 40 281.3V278.3C40 278.1 40.1 278 40.3 278C40.5 278 40.6 278.1 40.6 278.3V281.3C40.6 281.5 40.5 281.6 40.3 281.6Z" fill="white"/>
<path d="M43.3 281.6C43.1 281.6 43 281.5 43 281.3V278.3C43 278.1 43.1 278 43.3 278C43.5 278 43.6 278.1 43.6 278.3V281.3C43.6 281.5 43.5 281.6 43.3 281.6Z" fill="white"/>
<path d="M174.1 244.8H121.6C120.1 244.8 118.8 243.6 118.8 242V155.5C118.8 154 120 152.7 121.6 152.7H174.1C175.6 152.7 176.9 153.9 176.9 155.5V242C176.8 243.6 175.6 244.8 174.1 244.8Z" fill="#DCEAF9"/>
<path d="M165.8 152.8H156.8V244.8H165.8V152.8Z" fill="#C5DCED"/>
<path d="M147.4 237.8H142.4C141.6 237.8 140.9 237.1 140.9 236.3C140.9 235.4 141.6 234.8 142.4 234.8H147.4C148.2 234.8 148.9 235.5 148.9 236.3C148.8 237.1 148.2 237.8 147.4 237.8Z" fill="white"/>
<path d="M137.4 237.8H132.4C131.6 237.8 130.9 237.1 130.9 236.3C130.9 235.4 131.6 234.8 132.4 234.8H137.4C138.2 234.8 138.9 235.5 138.9 236.3C138.8 237.1 138.2 237.8 137.4 237.8Z" fill="white"/>
<path d="M147.4 232.8H142.4C141.6 232.8 140.9 232.1 140.9 231.3C140.9 230.4 141.6 229.8 142.4 229.8H147.4C148.2 229.8 148.9 230.5 148.9 231.3C148.8 232.1 148.2 232.8 147.4 232.8Z" fill="white"/>
<path d="M137.4 232.8H132.4C131.6 232.8 130.9 232.1 130.9 231.3C130.9 230.4 131.6 229.8 132.4 229.8H137.4C138.2 229.8 138.9 230.5 138.9 231.3C138.8 232.1 138.2 232.8 137.4 232.8Z" fill="white"/>
<path d="M146.4 159.8H141.4C140.6 159.8 139.9 159.1 139.9 158.3C139.9 157.4 140.6 156.8 141.4 156.8H146.4C147.2 156.8 147.9 157.5 147.9 158.3C147.8 159.1 147.2 159.8 146.4 159.8Z" fill="#BA91A8"/>
<path d="M136.4 159.8H131.4C130.6 159.8 129.9 159.1 129.9 158.3C129.9 157.4 130.6 156.8 131.4 156.8H136.4C137.2 156.8 137.9 157.5 137.9 158.3C137.8 159.1 137.2 159.8 136.4 159.8Z" fill="#BA91A8"/>
</g>
<defs>
<clipPath id="clip0_155_11007">
<rect width="337.8" height="376.6" fill="white"/>
</clipPath>
</defs>
</svg>
