<svg width="362" height="213" viewBox="0 0 362 213" fill="none" xmlns="http://www.w3.org/2000/svg">
<g clip-path="url(#clip0_155_10504)">
<path d="M164.869 205.589C164.175 205.589 163.568 205.107 163.394 204.434C163.134 203.567 163.568 202.509 164.435 202.22C165.996 201.642 170.246 199.525 170.94 196.541C171.287 195.098 170.766 193.558 169.465 191.825C168.858 191.055 168.945 189.996 169.639 189.419C170.333 188.745 171.287 188.841 171.807 189.611C173.888 192.306 174.582 195.001 173.975 197.6C172.674 202.894 166.17 205.3 165.389 205.589C165.216 205.589 165.042 205.589 164.869 205.589Z" fill="#B6AFBC"/>
<path d="M173.715 210.69C193.401 210.69 209.36 209.397 209.36 207.803C209.36 206.208 193.401 204.915 173.715 204.915C154.029 204.915 138.07 206.208 138.07 207.803C138.07 209.397 154.029 210.69 173.715 210.69Z" fill="#44A4F2"/>
<path d="M160.185 98.5592C159.318 98.5592 158.624 97.7892 158.624 96.8267V71.0319H153.768C152.9 71.0319 152.206 70.2619 152.206 69.2994C152.206 68.3369 152.9 67.5669 153.768 67.5669H160.185C161.053 67.5669 161.746 68.3369 161.746 69.2994V96.923C161.746 97.7892 161.053 98.5592 160.185 98.5592Z" fill="#D0CBD3"/>
<path d="M163.568 210.69H156.803C155.155 210.69 153.768 209.15 153.768 207.321V112.997H166.603V207.321C166.603 209.246 165.216 210.69 163.568 210.69Z" fill="#FFD2A6"/>
<path d="M156.63 92.1109C156.63 92.1109 154.808 92.6884 154.461 94.0358C154.288 94.8058 152.64 93.1696 152.12 93.6509C150.819 94.9021 148.477 94.1321 148.477 94.1321C148.477 94.1321 148.564 95.9608 146.656 96.7308C144.748 97.5008 143.274 95.8646 143.274 95.8646C143.274 95.8646 142.233 97.2121 140.758 96.8271C139.197 96.4421 138.243 92.3034 138.243 92.3034C138.243 92.3034 136.509 92.7846 133.907 90.6671C131.392 88.5496 130.264 83.4484 130.264 83.4484L140.412 73.4385L156.63 92.1109Z" fill="#F48462"/>
<path d="M112.659 33.2061C112.659 33.2061 116.908 36.0935 121.678 45.526C126.448 54.9584 142.84 73.4383 142.84 73.4383L126.709 88.742L111.184 69.4921L105.721 38.4998L112.659 33.2061Z" fill="#F7B369"/>
<path d="M88.115 180.275L88.9822 194.135H106.501V177.965L88.115 180.275Z" fill="#F48462"/>
<path d="M35.2113 112.612L22.8093 110.494L18.8198 129.359L33.0431 133.113L35.2113 112.612Z" fill="#F48462"/>
<path d="M33.4767 110.205C33.4767 110.205 54.378 112.804 62.5304 100.965C72.2439 87.0092 79.4422 69.2993 79.4422 69.2993L110.404 76.3255C110.404 76.3255 114.74 109.724 114.22 135.519C113.786 161.314 111.531 182.585 110.751 183.547C109.97 184.51 85.1663 183.932 83.6919 183.547C82.2175 183.162 84.6459 153.903 84.8193 145.336C84.9928 136.77 84.8193 124.161 84.8193 124.161C84.8193 124.161 77.1873 136.674 63.0508 139.561C49.0009 142.449 30.8749 139.561 29.6607 138.695C28.5333 137.733 33.4767 110.205 33.4767 110.205Z" fill="#E94033"/>
<path d="M141.539 74.8818C141.539 74.8818 152.12 78.8281 154.375 85.4693C155.068 87.3943 146.743 84.603 146.743 84.603C146.743 84.603 145.528 86.7205 141.279 86.2393C137.029 85.758 135.468 82.7743 135.468 82.7743L141.539 74.8818Z" fill="#F48462"/>
<path d="M111.098 85.3734C109.884 85.2771 77.7077 75.9409 77.3608 74.9784C76.9272 74.1122 82.391 52.1673 82.391 52.1673C82.391 52.1673 80.6564 51.6861 77.3608 53.611C73.9784 55.6323 66.6066 70.8397 66.6066 70.8397L61.9233 69.2997C61.5764 68.626 61.1428 68.0485 60.5357 67.5672C57.4135 65.161 49.9549 64.4872 49.9549 64.4872C49.9549 64.4872 49.8682 64.5835 49.7815 64.6797L46.8328 63.621C46.8328 63.621 54.6382 38.3074 73.0244 29.6449C90.977 21.175 113.7 33.2062 114.22 34.2649C114.74 35.2274 112.225 85.4696 111.098 85.3734Z" fill="#F7B369"/>
<path d="M104.42 22.4263L102.772 29.645C102.772 29.645 103.466 32.0512 107.195 33.495C109.97 34.5537 111.184 34.1687 111.184 34.1687L111.618 30.415L112.052 26.7575L105.547 23.1L104.42 22.4263Z" fill="#F48462"/>
<path d="M105.547 23.0034C105.547 23.1959 105.547 23.4847 105.547 23.7734C106.154 27.8159 109.97 29.7409 111.618 30.3184L112.052 26.6609L105.547 23.0034Z" fill="black"/>
<path d="M117.342 10.5872C117.342 10.5872 118.643 20.5971 116.128 25.3133C113.613 29.9333 109.623 27.9121 107.455 26.1796C105.2 24.4471 104.506 22.4258 104.506 22.4258C104.506 22.4258 101.991 22.6183 101.037 19.7309C100.083 16.8434 101.731 14.4371 103.206 14.1484C104.68 13.9559 105.981 15.4959 105.981 15.4959L105.374 12.5121C105.287 12.5121 113.786 0.865966 117.342 10.5872Z" fill="#F48462"/>
<path d="M114.22 21.8483C114.133 21.8483 114.046 21.8483 114.046 21.7521C113.96 21.6558 113.96 21.4633 114.133 21.3671C115.347 20.3083 114.307 17.4209 114.307 17.3246C114.22 17.1321 114.307 17.0359 114.48 16.9396C114.654 16.8434 114.74 16.9396 114.827 17.1321C114.914 17.2284 116.041 20.5008 114.48 21.8483C114.307 21.8483 114.307 21.8483 114.22 21.8483Z" fill="black"/>
<path d="M104.593 19.635C104.506 19.635 104.42 19.5387 104.333 19.4425L102.772 16.17C102.685 15.9775 102.772 15.8812 102.859 15.785C103.032 15.6887 103.119 15.785 103.206 15.8812L104.767 19.1537C104.853 19.3462 104.767 19.4425 104.68 19.5387L104.593 19.635Z" fill="black"/>
<path d="M103.986 18.3838L102.338 18.1913C102.165 18.1913 102.078 17.9988 102.078 17.9025C102.078 17.71 102.252 17.6138 102.338 17.6138L103.899 17.8063C104.073 17.8063 104.16 17.9988 104.16 18.095C104.246 18.2875 104.16 18.3838 103.986 18.3838Z" fill="black"/>
<path d="M105.894 15.4961C105.894 15.4961 106.588 16.3623 107.455 15.4961C108.322 14.6298 107.802 11.0686 107.802 11.0686C107.802 11.0686 110.144 12.5123 111.878 12.0311C113.7 11.5498 115.087 9.33611 115.087 9.33611C115.087 9.33611 115.521 12.3198 119.25 12.2236C122.979 12.1273 124.887 7.21863 121.505 5.00489C118.123 2.79115 115.694 3.94614 115.694 3.94614C115.694 3.94614 116.215 0.0961672 111.184 0.481165C106.675 0.866163 104.506 6.35238 104.506 6.35238C104.506 6.35238 102.078 5.77488 100.864 8.66237C99.6497 11.5498 102.252 14.6298 102.252 14.6298C102.252 14.6298 104.333 13.9561 105.894 15.4961Z" fill="black"/>
<path d="M111.445 17.4209C111.271 17.4209 111.184 17.2284 111.184 17.0359L111.445 15.3034C111.445 15.1109 111.618 15.0146 111.705 15.0146C111.878 15.0146 111.965 15.2071 111.965 15.3996L111.705 17.1321C111.618 17.3246 111.531 17.4209 111.445 17.4209Z" fill="black"/>
<path d="M115.954 18.3837C115.781 18.3837 115.694 18.1912 115.694 18.095L115.868 16.3625C115.868 16.17 116.041 16.0737 116.128 16.0737C116.301 16.0737 116.388 16.2662 116.388 16.3625L116.215 18.095C116.215 18.2875 116.128 18.3837 115.954 18.3837Z" fill="black"/>
<path d="M110.838 13.7634C110.751 13.7634 110.664 13.7634 110.664 13.6672C110.577 13.5709 110.577 13.3784 110.664 13.2822C111.531 12.3197 112.746 12.9934 112.832 12.9934C112.919 13.0897 113.006 13.2822 112.919 13.3784C112.832 13.4747 112.659 13.5709 112.572 13.4747C112.572 13.4747 111.618 12.8972 111.011 13.5709C110.924 13.7634 110.924 13.7634 110.838 13.7634Z" fill="black"/>
<path d="M117.255 14.726C117.169 14.726 117.082 14.726 116.995 14.6297C116.908 14.4372 116.562 13.956 116.128 13.8597C115.954 13.8597 115.694 13.8597 115.521 14.0522C115.434 14.1485 115.261 14.1485 115.174 14.0522C115.087 13.956 115.087 13.7635 115.174 13.6672C115.521 13.3785 115.868 13.2822 116.215 13.2822C116.908 13.3785 117.429 14.2447 117.429 14.2447C117.516 14.341 117.516 14.5335 117.342 14.6297C117.429 14.6297 117.342 14.726 117.255 14.726Z" fill="black"/>
<path d="M110.838 34.4574C105.2 34.4574 102.598 29.8375 102.598 29.8375C102.512 29.7412 102.598 29.5487 102.685 29.4525C102.772 29.3562 102.945 29.4525 103.032 29.5487C103.032 29.5487 105.634 34.0724 111.184 33.8799C111.358 33.8799 111.445 33.9762 111.445 34.1687C111.445 34.3612 111.358 34.4574 111.184 34.4574C111.011 34.4574 110.924 34.4574 110.838 34.4574Z" fill="#E94033"/>
<path d="M84.8193 124.546C84.7326 124.546 84.6459 124.546 84.6459 124.45C84.5591 124.354 84.5591 124.161 84.7326 124.065C84.8193 124.065 89.4159 120.215 93.1452 108.858C95.6602 101.254 97.1346 94.7092 97.1346 94.6129C97.1346 94.5167 97.3081 94.4204 97.3948 94.4204H108.93C109.103 94.4204 109.19 94.5167 109.19 94.7092C109.19 94.9017 109.103 94.9979 108.93 94.9979H97.655C97.3948 96.2491 95.9204 102.217 93.6655 109.05C89.8495 120.6 85.253 124.354 85.0795 124.546C84.906 124.45 84.9061 124.546 84.8193 124.546Z" fill="white"/>
<path d="M143.36 85.662C138.59 85.662 136.682 80.9458 136.682 80.8495C136.596 80.657 136.682 80.5608 136.856 80.4645C137.029 80.3683 137.116 80.4645 137.203 80.657C137.289 80.9458 139.891 87.202 146.656 84.4107C146.829 84.3145 146.916 84.4107 147.003 84.6032C147.09 84.7957 147.003 84.892 146.829 84.9882C145.528 85.4695 144.314 85.662 143.36 85.662Z" fill="black"/>
<path d="M30.0076 109.05C30.0076 109.05 32.6095 112.708 30.6147 117.328C29.1404 120.696 25.1509 122.91 25.1509 122.91C25.1509 122.91 29.4873 128.589 28.9669 131.765C28.4465 135.038 23.3296 135.23 23.3296 135.23C23.3296 135.23 8.75943 159.293 3.12216 156.501C-2.51512 153.614 1.47434 141.679 1.47434 141.679C1.47434 141.679 12.1418 105.297 13.0958 104.623C14.0498 103.949 30.0076 109.05 30.0076 109.05Z" fill="#031D3C"/>
<path d="M85.9468 189.419C85.9468 189.419 88.5486 185.761 93.1451 186.82C96.4408 187.59 99.3028 191.44 99.3028 191.44C99.3028 191.44 103.292 185.376 106.328 185.184C109.363 184.991 110.664 190.477 110.664 190.477C110.664 190.477 135.208 200.68 133.907 207.514C132.693 214.347 121.245 212.807 121.245 212.807C121.245 212.807 85.5131 210.882 84.7326 210.016C83.7786 209.15 85.9468 189.419 85.9468 189.419Z" fill="#031D3C"/>
<path d="M111.531 86.6245C111.531 86.6245 113.179 65.1609 113.7 52.3597C114.22 39.5585 114.22 34.1686 114.22 34.1686L113.96 33.8798C113.266 33.2061 112.485 32.7248 111.531 32.4361H111.358L109.19 53.4184L97.8284 50.0497C97.8284 50.0497 101.298 28.2011 100.69 28.2973C100.083 28.2973 96.7877 27.5273 96.7877 27.5273C96.7877 27.5273 94.2726 52.6484 89.4159 57.0759C84.6459 61.4071 80.9166 58.0384 80.9166 58.0384L75.8864 78.6358C75.8864 78.6358 98.609 88.6457 111.531 86.6245Z" fill="#E94033"/>
<path d="M75.0192 84.8921C74.8457 84.8921 74.759 84.7959 74.759 84.6034C74.759 84.4109 74.8457 84.3146 75.0192 84.3146C75.2793 84.3146 80.6564 84.1221 81.6104 77.8659C81.6104 77.6734 81.7839 77.5771 81.9573 77.5771C82.1308 77.5771 82.2175 77.7696 82.2175 77.9621C81.0901 84.6996 75.1059 84.8921 75.0192 84.8921C75.1059 84.8921 75.1059 84.8921 75.0192 84.8921Z" fill="white"/>
<path d="M88.2884 91.1482L39.8078 74.4008C38.16 73.8233 37.206 71.8021 37.7263 69.9733C38.2467 68.1446 40.068 67.0859 41.7158 67.6634L90.1964 84.3145C91.8442 84.892 92.7982 86.9132 92.2779 88.742C91.7575 90.667 90.023 91.7257 88.2884 91.1482Z" fill="#DDD7E0"/>
<path d="M85.3397 101.062C83.5184 100.484 82.5644 98.3666 83.0848 96.3453L86.7273 83.1592L89.4159 84.1217C91.4973 84.7954 92.6248 87.2979 92.0177 89.5116L89.5026 98.5591C89.069 100.58 87.161 101.639 85.3397 101.062Z" fill="#DDD7E0"/>
<path d="M63.2242 83.2555L62.4437 82.9667C61.9233 82.7742 61.6631 82.1967 61.8366 81.7155L63.5711 75.363C63.7446 74.7855 64.265 74.4968 64.6986 74.6893L65.4791 74.978C65.9995 75.1705 66.2597 75.748 66.0862 76.2293L64.3517 82.5817C64.265 83.1592 63.7446 83.448 63.2242 83.2555Z" fill="#E94033"/>
<path d="M75.8864 87.587L75.1059 87.2983C74.5855 87.1058 74.3253 86.5283 74.4988 86.047L76.2333 79.6946C76.4068 79.1171 76.9271 78.8283 77.3608 79.0208L78.1413 79.3096C78.6617 79.5021 78.9219 80.0796 78.7484 80.5608L77.0139 86.9133C76.9271 87.4908 76.4068 87.7795 75.8864 87.587Z" fill="#E94033"/>
<path d="M103.119 64.1984C102.598 64.1984 101.991 64.1022 101.471 64.0059C99.7364 63.6209 98.3488 62.6584 97.5682 61.1185C95.9204 58.0385 96.8744 53.996 96.9612 53.8035C96.9612 53.611 97.1346 53.5148 97.3081 53.611L109.363 56.9797C109.537 56.9797 109.623 57.1722 109.537 57.2685C109.537 57.461 108.93 61.2147 106.414 63.0434C105.374 63.8134 104.333 64.1984 103.119 64.1984ZM97.3081 54.1885C97.1346 55.151 96.6142 58.3272 97.9152 60.7335C98.609 62.0809 99.8232 62.9472 101.471 63.3322C103.206 63.7172 104.767 63.5247 105.981 62.5622C107.976 61.1185 108.669 58.231 108.843 57.3647L97.3081 54.1885Z" fill="white"/>
<path d="M82.391 52.456C82.2175 52.456 82.1308 52.3597 82.1308 52.1672C82.1308 51.5897 81.8706 46.1035 82.998 44.756C83.345 44.2748 83.952 44.371 84.2122 44.756C84.9928 46.0073 82.9981 51.2047 82.6511 52.2635C82.6511 52.3597 82.5644 52.456 82.391 52.456ZM83.6919 45.0448C83.6051 45.0448 83.5184 45.0448 83.4317 45.141C82.8246 45.911 82.6511 48.7022 82.6511 50.6272C83.4317 48.3172 84.1255 45.6223 83.7786 45.0448C83.7786 45.141 83.6919 45.0448 83.6919 45.0448Z" fill="#E94033"/>
<path d="M58.8011 75.2669C57.8471 79.5982 60.5357 81.3307 60.5357 81.3307C60.5357 81.3307 60.7959 83.3519 58.8878 84.1219C57.0666 84.7956 54.8984 82.3894 54.8984 82.3894C54.8984 82.3894 53.9444 82.2931 52.3833 82.1006C50.8222 81.9081 49.7815 80.0794 49.7815 80.0794C49.7815 80.0794 48.3938 80.8494 47.7867 79.8869C47.1797 78.9244 45.9655 76.4219 46.5726 71.6095C47.0929 67.3745 50.1284 63.5245 50.9089 62.562L62.7039 68.337C64.0048 71.417 63.3977 74.9782 63.3977 74.9782C63.3977 74.9782 59.148 73.5344 58.8011 75.2669Z" fill="#F48462"/>
<path d="M54.8117 82.582C54.7249 82.582 54.6382 82.582 54.6382 82.4858C52.6435 79.7908 53.5107 75.8446 53.5107 75.7483C53.5107 75.5558 53.6842 75.4596 53.8576 75.5558C54.0311 75.5558 54.1178 75.7483 54.0311 75.9408C54.0311 75.9408 53.2506 79.7908 55.0718 82.197C55.1586 82.2933 55.1586 82.4858 55.0718 82.582C54.9851 82.582 54.8984 82.582 54.8117 82.582Z" fill="black"/>
<path d="M49.6948 80.3684C49.608 80.3684 49.5213 80.2721 49.4346 80.1759C47.9602 76.8072 48.9142 73.8234 49.0009 73.7272C49.0877 73.5347 49.1744 73.5347 49.3478 73.5347C49.5213 73.6309 49.5213 73.7272 49.5213 73.9197C49.5213 73.9197 48.654 76.8071 49.9549 79.8871C50.0417 80.0796 49.9549 80.1759 49.8682 80.2721C49.7815 80.3684 49.6948 80.3684 49.6948 80.3684Z" fill="black"/>
<path d="M63.4844 69.877L48.9142 64.4871C49.0009 64.3908 49.7815 62.4658 49.7815 62.4658C49.7815 62.4658 56.7197 62.4658 59.8419 64.8721C60.3622 65.2571 64.6986 66.9895 63.4844 69.877Z" fill="#F7B369"/>
<path d="M77.621 71.6094C77.621 71.6094 85.1662 76.3256 96.0072 78.7318C106.848 81.1381 111.878 80.7531 111.878 80.7531L111.531 85.8543C111.531 85.8543 102.685 85.9505 93.6655 83.7368C84.6459 81.5231 75.8864 76.9031 75.8864 76.9031L77.621 71.6094Z" fill="#88D0EA"/>
<path d="M113.179 24.3508C111.792 24.1583 111.358 23.1958 111.271 22.7146C111.271 22.5221 111.358 22.4258 111.531 22.3296C111.705 22.3296 111.792 22.4258 111.792 22.6183C111.792 22.6183 111.965 23.6771 113.179 23.7733C113.353 23.7733 113.439 23.9658 113.439 24.0621C113.439 24.2546 113.353 24.3508 113.179 24.3508Z" fill="black"/>
<path d="M194.009 94.9016V98.7516C194.009 109.147 186.464 117.52 177.097 117.52H143.274C133.907 117.52 126.362 109.147 126.362 98.7516V94.9016C126.362 92.8804 127.836 91.2441 129.657 91.2441H190.713C192.535 91.2441 194.009 92.8804 194.009 94.9016Z" fill="#FFEAD9"/>
<path d="M162.874 89.4158C162.874 89.4158 163.308 79.3096 167.731 74.8821C172.154 70.4547 178.225 72.8609 178.225 76.3259C178.225 79.7908 171.894 77.8659 171.894 77.8659C171.894 77.8659 166.603 77.5771 162.874 89.4158Z" fill="#44A4F2"/>
<path d="M164.609 75.9409C164.609 75.9409 164.782 67.8559 168.251 64.1984C171.72 60.541 176.577 62.3697 176.664 65.1609C176.75 67.9522 171.633 66.5084 171.633 66.5084C171.633 66.5084 167.297 66.4122 164.609 75.9409Z" fill="#44A4F2"/>
<path d="M178.311 91.2441C178.225 94.6129 177.878 98.9441 176.664 99.5216C174.669 100.484 173.715 94.6129 173.715 94.6129C173.715 94.6129 173.021 110.494 168.685 109.82C164.608 109.243 163.047 94.2279 162.874 92.7841C162.961 94.0354 163.828 104.815 160.099 104.334C156.196 103.853 156.543 92.1104 156.543 92.1104C156.543 91.8216 156.543 91.5329 156.543 91.2441H178.311Z" fill="#44A4F2"/>
<path d="M151.773 94.9018L132.866 94.8055C132.693 94.8055 132.606 94.7093 132.606 94.5168C132.606 94.3243 132.693 94.228 132.866 94.228L151.773 94.3243C151.946 94.3243 152.033 94.4205 152.033 94.613C152.033 94.8055 151.946 94.9018 151.773 94.9018Z" fill="white"/>
<path d="M170.593 192.403C170.159 192.403 169.725 192.21 169.465 191.825C168.338 190.478 166.43 188.841 164.175 186.82C157.15 180.756 146.569 171.516 146.916 159.678C147.35 144.182 163.221 135.519 163.915 135.134C164.695 134.749 165.649 135.038 165.996 135.904C166.343 136.77 166.083 137.829 165.302 138.214C165.129 138.31 150.472 146.299 150.038 159.678C149.778 169.784 159.231 177.965 166.083 184.029C168.424 186.05 170.506 187.879 171.807 189.419C172.414 190.093 172.327 191.248 171.72 191.921C171.373 192.306 171.026 192.403 170.593 192.403Z" fill="#B6AFBC"/>
<path d="M166.603 144.663C170.531 144.663 173.715 141.129 173.715 136.77C173.715 132.412 170.531 128.878 166.603 128.878C162.676 128.878 159.492 132.412 159.492 136.77C159.492 141.129 162.676 144.663 166.603 144.663Z" fill="#BA91A8"/>
<path d="M170.072 136.578C170.072 138.695 168.511 140.428 166.603 140.428C164.695 140.428 163.134 138.695 163.134 136.578C163.134 134.461 164.695 132.728 166.603 132.728C168.511 132.728 170.072 134.461 170.072 136.578Z" fill="#D0CBD3"/>
<path d="M165.389 134.749C165.216 134.749 165.042 134.653 164.955 134.46L162.614 130.803C162.44 130.514 162.527 130.129 162.701 129.936C162.961 129.744 163.308 129.84 163.481 130.033L165.823 133.69C165.996 133.979 165.909 134.364 165.736 134.556C165.649 134.749 165.476 134.749 165.389 134.749Z" fill="#D0CBD3"/>
<path d="M166.603 137.252C166.517 137.252 166.343 137.252 166.256 137.155C165.996 136.963 165.996 136.578 166.17 136.289L170.506 130.226C170.679 129.937 171.026 129.937 171.287 130.129C171.547 130.322 171.547 130.707 171.373 130.996L167.037 137.059C166.863 137.155 166.69 137.252 166.603 137.252Z" fill="#D0CBD3"/>
<path d="M149.778 159.1H147.176C147.003 159.1 146.916 159.004 146.916 158.812C146.916 158.619 147.003 158.523 147.176 158.523H149.778C149.952 158.523 150.038 158.619 150.038 158.812C150.038 158.908 149.865 159.1 149.778 159.1Z" fill="white"/>
<path d="M150.732 154.191L148.39 153.518C148.217 153.518 148.13 153.325 148.217 153.133C148.217 152.94 148.39 152.844 148.564 152.94L150.819 153.614C150.992 153.614 151.079 153.806 150.992 153.999C150.906 154.095 150.819 154.191 150.732 154.191Z" fill="white"/>
<path d="M152.9 149.764H152.814L150.212 148.32C150.038 148.224 150.038 148.032 150.125 147.935C150.212 147.743 150.385 147.743 150.472 147.839L153.074 149.283C153.247 149.379 153.247 149.572 153.16 149.668C153.16 149.764 153.074 149.764 152.9 149.764Z" fill="white"/>
<path d="M156.543 179.89C156.456 179.89 156.369 179.89 156.283 179.794C156.196 179.698 156.196 179.505 156.369 179.409L158.538 177.773C158.624 177.676 158.798 177.676 158.884 177.869C158.971 177.965 158.971 178.158 158.798 178.254L156.63 179.89C156.716 179.89 156.63 179.89 156.543 179.89Z" fill="white"/>
<path d="M159.492 182.97C159.405 182.97 159.405 182.97 159.318 182.874C159.231 182.777 159.231 182.585 159.318 182.489L161.226 180.082C161.313 179.986 161.486 179.986 161.573 180.082C161.66 180.179 161.66 180.371 161.573 180.467L159.665 182.874C159.665 182.97 159.578 182.97 159.492 182.97Z" fill="white"/>
<path d="M163.047 185.954H162.961C162.787 185.857 162.787 185.665 162.874 185.569L164.001 183.066C164.088 182.874 164.262 182.874 164.348 182.97C164.522 183.066 164.522 183.259 164.435 183.355L163.308 185.857C163.308 185.857 163.221 185.954 163.047 185.954Z" fill="white"/>
<path d="M153.768 128.878C156.019 128.878 157.844 126.853 157.844 124.354C157.844 121.856 156.019 119.831 153.768 119.831C151.516 119.831 149.691 121.856 149.691 124.354C149.691 126.853 151.516 128.878 153.768 128.878Z" fill="#B6AFBC"/>
<path d="M142.84 91.533C142.753 91.533 142.666 91.533 142.58 91.4367C142.493 91.3405 142.493 91.148 142.666 91.0517L148.304 86.6243C148.39 86.528 148.564 86.528 148.651 86.7205C148.737 86.8168 148.737 87.0093 148.564 87.1055L142.927 91.4367L142.84 91.533Z" fill="black"/>
<path d="M110.404 99.2332L109.623 74.4008L111.618 71.5133L109.45 68.0483L109.016 71.2246L106.675 71.3208L105.894 68.1446L103.726 72.2833L106.068 74.4971L106.761 99.3294L104.68 101.736L107.022 105.682L107.629 102.506L109.97 102.409L110.577 105.586L112.572 102.024L110.404 99.2332Z" fill="#DDD7E0"/>
<path d="M107.282 82.9671C107.108 82.9671 107.022 82.8709 107.022 82.6784L106.848 75.4596C106.848 75.2672 106.935 75.1709 107.108 75.1709C107.195 75.1709 107.368 75.2672 107.368 75.4596L107.542 82.6784C107.542 82.7746 107.455 82.9671 107.282 82.9671Z" fill="white"/>
<path d="M105.547 80.8493V85.6617C105.547 86.3355 106.068 86.8167 106.588 86.8167L109.97 86.6242C110.491 86.6242 110.924 86.0467 110.924 85.4692L110.664 80.8493C110.664 80.2718 110.144 79.7905 109.623 79.7905L106.501 79.8868C105.981 79.6943 105.547 80.1755 105.547 80.8493Z" fill="#88D0EA"/>
<path d="M85.3397 75.1705L84.3857 80.0792C84.2989 80.7529 84.5591 81.3305 85.1662 81.6192L91.8442 84.1217C92.538 84.4104 93.3186 83.8329 93.4053 83.0629L94.0124 77.9617C94.0991 77.3842 93.7522 76.8067 93.2319 76.6142L86.9008 74.3042C86.2069 74.0155 85.5131 74.4967 85.3397 75.1705Z" fill="#88D0EA"/>
<path d="M314.387 204.338C314.213 204.338 314.04 204.338 313.866 204.242C313.693 204.242 299.73 200.488 278.828 202.894C273.104 203.568 222.456 208.669 212.569 186.628C203.896 167.089 217.946 143.893 218.553 142.931C219.247 141.872 220.634 141.583 221.588 142.257C222.542 143.027 222.803 144.567 222.196 145.626C222.022 145.818 208.926 167.474 216.558 184.414C222.629 197.985 252.897 200.969 278.482 198.082C300.25 195.579 314.473 199.333 315.08 199.525C316.295 199.814 316.989 201.162 316.642 202.413C316.295 203.568 315.341 204.338 314.387 204.338Z" fill="#B6AFBC"/>
<path d="M298.429 76.0374C298.429 76.0374 293.572 75.5561 290.884 77.7698C288.195 79.9836 285.42 87.2023 286.287 88.4535C287.241 89.801 298.255 82.9673 298.255 82.9673L298.429 76.0374Z" fill="#F48462"/>
<path d="M311.351 46.0073C311.351 46.0073 309.443 55.6323 302.852 65.931C296.261 76.2297 292.445 81.8121 292.445 81.8121L302.592 87.2983C302.592 87.2983 324.621 75.5559 322.799 61.2147C321.065 46.7773 311.351 46.0073 311.351 46.0073Z" fill="#F48462"/>
<path d="M316.642 34.0728L303.286 57.1726L317.943 67.9526C317.943 67.8563 321.932 39.559 316.642 34.0728Z" fill="#A5C4F2"/>
<path d="M332.686 5.48627C332.686 5.48627 337.369 0.577548 344.221 3.27253C351.072 5.96752 350.118 13.475 350.118 13.475C350.118 13.475 356.016 19.4424 354.715 26.6611C353.414 33.8799 343.527 37.6336 337.803 30.7999C332.166 23.9662 338.323 15.785 338.323 15.785C338.323 15.785 332.599 16.8437 332.686 5.48627Z" fill="black"/>
<path d="M332.253 127.916L309.096 184.992L297.562 179.409L311.958 122.911L332.253 127.916Z" fill="#F48462"/>
<path d="M355.929 130.226L352.46 192.499L340.058 191.536L335.722 133.113L355.929 130.226Z" fill="#F48462"/>
<path d="M318.897 80.3687C318.897 80.3687 293.225 170.169 293.485 171.806C293.659 173.442 318.897 183.741 318.897 183.741L335.722 121.756L333.987 85.5661L318.897 80.3687Z" fill="#E94033"/>
<path d="M348.384 70.0698C348.384 70.0698 354.108 82.871 355.322 92.7847C356.536 102.698 360.612 182.874 360.612 184.029C360.612 185.184 330.605 185.473 330.605 185.473C330.605 185.473 331.125 95.5759 330.605 94.6134C330.084 93.6509 318.897 80.2723 318.897 80.2723L324.447 75.0748L348.384 70.0698Z" fill="#E94033"/>
<path d="M319.07 14.1487C319.07 14.1487 315.688 6.83372 315.688 4.81248C315.688 2.79125 322.713 -1.05873 329.13 0.866258C335.461 2.8875 337.109 11.3574 336.329 15.2074C334.247 25.0249 326.529 22.0411 326.529 22.0411C326.529 22.0411 314.56 20.3086 319.07 14.1487Z" fill="black"/>
<path d="M318.897 65.7386C318.81 65.7386 318.81 65.7386 318.723 65.6424L304.847 54.8624C304.76 54.7662 304.673 54.5737 304.76 54.4774C304.847 54.3812 305.02 54.2849 305.107 54.3812L318.983 65.1611C319.07 65.2574 319.157 65.4499 319.07 65.5461C319.07 65.6424 318.983 65.7386 318.897 65.7386Z" fill="white"/>
<path d="M348.557 71.321C348.557 71.321 341.272 29.1638 338.844 27.0463C336.415 24.9288 322.539 26.2763 316.642 33.9762C313.433 38.3075 318.897 80.3685 318.897 80.3685L348.557 71.321Z" fill="#A5C4F2"/>
<path d="M321.585 24.3512V24.5437L322.105 27.9125L322.452 30.5112C322.452 30.5112 322.279 31.1849 325.054 30.6074C328.697 29.8375 329.737 27.9125 329.737 27.9125L329.217 21.6562L328.09 22.0412L321.585 24.3512Z" fill="#F48462"/>
<path d="M321.585 24.5439L322.105 27.9127C323.927 27.4314 327.049 26.0839 328.09 22.8114C328.176 22.5227 328.176 22.3302 328.176 22.1377L321.585 24.5439Z" fill="black"/>
<path d="M318.636 8.56653C318.636 8.56653 316.121 17.8065 317.943 22.5227C319.764 27.2389 323.667 25.9877 326.008 24.6402C328.35 23.3889 329.304 21.5602 329.304 21.5602C329.304 21.5602 331.645 22.1377 332.946 19.539C334.161 17.0365 332.946 14.4377 331.645 14.0527C330.258 13.5715 328.87 14.8227 328.87 14.8227L329.824 12.1278C329.737 12.224 323.233 -0.0959196 318.636 8.56653Z" fill="#F48462"/>
<path d="M320.197 19.6351C320.111 19.6351 320.024 19.5389 319.937 19.4426C319.157 17.6139 320.197 15.5926 320.197 15.4964C320.284 15.3039 320.458 15.3039 320.544 15.4001C320.718 15.4964 320.718 15.6889 320.631 15.7851C320.631 15.7851 319.764 17.7101 320.371 19.2501C320.458 19.4426 320.371 19.5389 320.197 19.6351C320.284 19.6351 320.284 19.6351 320.197 19.6351Z" fill="black"/>
<path d="M329.564 18.9613C329.477 18.9613 329.477 18.9613 329.391 18.8651C329.304 18.7688 329.217 18.5763 329.304 18.4801L331.125 15.6889C331.212 15.5926 331.385 15.4964 331.472 15.5926C331.559 15.6889 331.645 15.8814 331.559 15.9776L329.737 18.7688C329.737 18.9613 329.651 18.9613 329.564 18.9613Z" fill="black"/>
<path d="M331.732 17.9989H330.171C329.998 17.9989 329.911 17.9026 329.911 17.7101C329.911 17.5176 329.998 17.4214 330.171 17.4214H331.645C331.819 17.4214 331.906 17.5176 331.906 17.7101C331.992 17.9026 331.906 17.9989 331.732 17.9989Z" fill="black"/>
<path d="M322.886 22.0414C322.192 22.0414 321.498 21.4639 321.498 21.4639C321.412 21.3677 321.412 21.2714 321.412 21.1752C321.412 21.0789 321.498 20.9827 321.585 20.9827L324.534 19.4427C324.621 19.3464 324.707 19.4427 324.794 19.4427C324.881 19.5389 324.881 19.6352 324.881 19.7314C324.881 19.8277 324.707 21.0789 323.753 21.7527C323.406 21.9452 323.146 22.0414 322.886 22.0414ZM322.192 21.2714C322.539 21.4639 322.973 21.5602 323.406 21.2714C323.753 20.9827 324.013 20.5977 324.187 20.2127L322.192 21.2714Z" fill="black"/>
<path d="M324.447 12.6088C324.36 12.6088 324.274 12.6088 324.187 12.5125C323.753 11.8388 322.799 12.1275 322.799 12.1275C322.626 12.2238 322.539 12.1275 322.452 11.935C322.366 11.7425 322.452 11.6463 322.626 11.55C322.713 11.55 324.013 11.0688 324.621 12.1275C324.707 12.2238 324.707 12.4163 324.534 12.5125L324.447 12.6088Z" fill="black"/>
<path d="M318.203 12.4163C318.116 12.4163 318.116 12.4163 318.029 12.32C317.943 12.2238 317.943 12.0313 318.029 11.935C318.029 11.935 318.636 11.165 319.33 11.165C319.677 11.165 320.024 11.3575 320.284 11.6463C320.371 11.7425 320.371 11.935 320.284 12.0313C320.197 12.1275 320.024 12.1275 319.937 12.0313C319.764 11.8388 319.59 11.7425 319.417 11.7425C319.07 11.7425 318.636 12.1275 318.55 12.32C318.376 12.4163 318.289 12.4163 318.203 12.4163Z" fill="black"/>
<path d="M318.983 16.1701C318.81 16.1701 318.723 16.0738 318.723 15.8813V14.3413L318.203 13.7638C318.116 13.6676 318.116 13.4751 318.203 13.3788C318.289 13.2826 318.463 13.2826 318.55 13.3788L319.157 14.0526C319.243 14.1488 319.243 14.1488 319.243 14.2451V15.8813C319.243 15.9776 319.157 16.1701 318.983 16.1701Z" fill="black"/>
<path d="M318.636 81.4274C318.636 81.4274 315.167 58.1351 316.295 46.5851C317.422 35.0352 318.81 31.474 318.81 31.474C318.81 31.474 321.932 28.779 322.192 29.0677C322.452 29.4527 321.412 38.1152 321.238 41.2914C321.065 43.6014 320.978 47.3551 320.978 47.3551L330.952 45.2376L330.258 26.3727C330.258 26.3727 332.686 26.2765 334.074 26.1802C335.461 26.084 335.461 26.084 335.461 26.084L338.67 58.3275L348.037 75.5562L318.636 81.4274Z" fill="#E94033"/>
<path d="M323.406 15.8815C323.233 15.8815 323.146 15.7853 323.146 15.5928V14.0528L322.366 13.379C322.279 13.2828 322.192 13.0903 322.279 12.994C322.366 12.8978 322.539 12.8015 322.626 12.8978L323.58 13.6678C323.667 13.764 323.667 13.8603 323.667 13.9565V15.5928C323.667 15.7853 323.58 15.8815 323.406 15.8815Z" fill="black"/>
<path d="M328.783 14.919C328.783 14.919 325.141 13.4753 323.58 10.8766C322.019 8.27782 321.845 6.93033 321.845 6.93033C321.845 6.93033 321.585 8.85532 320.371 9.43282C319.157 10.0103 318.376 10.2028 318.376 10.2028L317.856 12.8978L317.682 6.73783C317.682 6.73783 320.891 4.23535 321.325 4.1391C321.759 4.04285 327.656 4.42785 328.003 4.71659C328.35 5.00534 330.778 9.72157 330.778 9.72157L331.125 11.9353L328.783 14.919Z" fill="black"/>
<path d="M337.803 37.9227C337.803 37.9227 349.771 34.169 356.796 51.3014C366.943 76.3262 329.737 82.4862 329.737 82.4862L326.008 71.7062C326.008 71.7062 337.803 60.5413 338.41 58.9051C339.624 55.6326 337.803 37.9227 337.803 37.9227Z" fill="#F48462"/>
<path d="M335.201 206.84C335.201 208.573 335.722 210.498 336.762 210.979C337.803 211.46 346.302 212.519 353.761 211.749C360.873 211.075 362.607 207.514 362 205.782C361.74 205.012 361.393 204.242 361.219 203.664C360.959 203.087 360.699 202.509 360.439 202.028C359.658 200.873 358.184 198.371 357.75 197.119C357.23 195.387 356.449 191.826 355.929 190.093C355.409 188.361 352.894 186.724 352.894 186.724C352.894 186.724 340.492 186.051 339.451 187.013C338.41 187.976 336.849 196.927 336.849 198.082V199.333C336.849 200.584 335.982 203.183 335.548 205.108C335.461 205.397 335.461 205.589 335.375 205.782C335.201 206.263 335.201 206.552 335.201 206.84Z" fill="#F7B369"/>
<path d="M266.6 183.067C266.947 183.837 300.771 206.84 301.898 206.648C302.332 206.551 303.372 204.819 304.673 202.22C307.015 197.504 309.53 188.072 311.178 182.489C311.178 182.489 299.209 174.693 297.735 174.597C296.261 174.5 278.915 176.522 278.915 176.522C278.915 176.522 273.625 175.078 270.416 176.714C269.462 177.195 268.681 177.869 268.161 178.639C266.773 180.275 266.34 182.489 266.6 183.067Z" fill="#F7B369"/>
<path d="M335.201 206.84C335.201 208.573 335.722 210.498 336.762 210.979C337.803 211.46 346.302 212.519 353.761 211.749C360.873 211.075 362.607 207.514 362 205.782C361.74 205.012 361.393 204.242 361.219 203.664C359.745 204.627 356.103 206.07 347.69 206.359C342.139 206.552 338.237 205.878 335.548 205.108C335.461 205.397 335.461 205.589 335.375 205.782C335.201 206.263 335.201 206.552 335.201 206.84Z" fill="white"/>
<path d="M266.6 183.067C266.947 183.837 300.771 206.84 301.898 206.648C302.332 206.552 303.372 204.819 304.673 202.22L268.074 178.543C266.773 180.275 266.34 182.489 266.6 183.067Z" fill="white"/>
<path d="M330.605 140.139C330.431 140.139 330.345 140.043 330.345 139.85V94.902L320.024 91.437C319.851 91.3408 319.764 91.2445 319.851 91.052C319.937 90.8595 320.024 90.7633 320.197 90.8595L330.778 94.4208C330.865 94.4208 330.952 94.6133 330.952 94.7095V139.85C330.865 140.043 330.778 140.139 330.605 140.139Z" fill="#F7B369"/>
<path d="M349.164 84.0257C347.69 84.0257 344.915 83.2557 343.007 78.4433C342.92 78.2508 343.007 78.1545 343.18 78.0583C343.354 77.962 343.44 78.0583 343.527 78.2508C346.129 84.6995 349.945 83.4482 350.118 83.352C350.292 83.2557 350.379 83.352 350.465 83.5445C350.552 83.737 350.465 83.8332 350.292 83.9295C350.205 83.8332 349.771 84.0257 349.164 84.0257Z" fill="#F7B369"/>
<path d="M324.707 31.0888C324.013 31.0888 323.32 30.9926 322.452 30.8001C322.279 30.8001 322.192 30.6076 322.279 30.4151C322.279 30.2226 322.452 30.1263 322.626 30.2226C328.176 31.5701 329.911 27.5276 329.998 27.3351C330.084 27.1426 330.258 27.1426 330.345 27.1426C330.518 27.2388 330.518 27.4313 330.518 27.5276C330.431 27.6238 328.957 31.0888 324.707 31.0888Z" fill="white"/>
<path d="M341.706 196.542C341.532 196.542 341.446 196.445 341.446 196.253C341.446 196.06 341.532 195.964 341.706 195.964L349.425 195.098L344.655 190.863C344.568 190.767 344.481 190.574 344.568 190.478C344.655 190.382 344.828 190.285 344.915 190.382L350.292 195.002C350.379 195.098 350.379 195.194 350.379 195.29C350.379 195.387 350.292 195.483 350.118 195.483L341.706 196.542C341.793 196.542 341.793 196.542 341.706 196.542Z" fill="white"/>
<path d="M294.873 182.585C294.786 182.585 294.786 182.585 294.7 182.585L284.639 176.137C284.466 176.04 284.466 175.848 284.553 175.752C284.639 175.559 284.813 175.559 284.899 175.655L294.266 181.623L292.011 175.463C291.924 175.27 292.011 175.174 292.185 175.078C292.358 174.982 292.445 175.078 292.531 175.27L295.133 182.2C295.22 182.297 295.133 182.489 295.047 182.585C295.047 182.489 294.96 182.585 294.873 182.585Z" fill="white"/>
<path d="M359.225 58.8087H338.15L336.502 26.2764C336.502 26.2764 359.225 30.5113 359.225 58.8087Z" fill="#A5C4F2"/>
<path d="M338.41 59.0974C338.237 59.0974 338.15 59.0011 338.15 58.8086C338.063 58.0386 337.369 51.5899 338.67 50.3387C338.931 50.1462 339.191 50.0499 339.538 50.1462C339.885 50.2424 340.145 50.5312 340.231 50.9162C341.012 52.9374 338.67 58.6161 338.584 58.9049C338.67 59.0974 338.584 59.0974 338.41 59.0974ZM339.277 50.8199C339.191 50.8199 339.104 50.8199 339.104 50.9162C338.41 51.5899 338.41 55.0549 338.67 57.7499C339.364 55.8249 340.405 52.5524 339.885 51.3012C339.798 51.1087 339.711 50.9162 339.451 50.9162C339.364 50.8199 339.277 50.8199 339.277 50.8199Z" fill="white"/>
<path d="M329.391 22.4263C329.391 22.4263 336.762 22.4263 336.762 13.0901C336.762 4.04261 330.171 0.77013 328.176 0.288882C324.621 -0.577363 322.192 0.67388 322.192 0.67388C322.192 0.67388 324.881 3.27261 326.962 7.50759C328.523 10.7801 328.783 14.9188 328.783 14.9188C328.783 14.9188 333.207 12.3201 333.207 17.325C333.207 21.6563 329.304 21.6563 329.304 21.6563L329.391 22.4263Z" fill="#E94033"/>
<path d="M328.523 8.08494C328.437 8.08494 328.35 7.98869 328.263 7.89244C328.263 7.89244 327.483 4.81246 324.36 2.11748C324.274 2.02123 324.274 1.82873 324.36 1.73248C324.447 1.63623 324.621 1.63623 324.707 1.63623C327.916 4.42746 328.697 7.50745 328.783 7.69995C328.87 7.89244 328.783 7.98869 328.523 8.08494C328.61 8.08494 328.61 8.08494 328.523 8.08494Z" fill="#88D0EA"/>
<path d="M322.452 49.7614C322.366 49.7614 322.192 49.6651 322.192 49.5689C322.192 49.3764 322.279 49.2801 322.366 49.1839L331.299 47.0664C331.472 47.0664 331.559 47.1627 331.645 47.2589C331.645 47.4514 331.559 47.5477 331.472 47.6439L322.452 49.7614Z" fill="#F7B369"/>
<path d="M273.278 92.4961L280.563 111.265C280.997 112.516 280.563 113.863 279.436 114.441L275.62 116.27C274.492 116.751 273.278 116.27 272.758 115.018L266.513 98.8486C265.993 97.4048 266.513 95.7686 267.814 95.1911L273.278 92.4961Z" fill="#DDD7E0"/>
<path d="M309.27 78.4435C309.79 79.791 309.27 81.4273 308.142 82.101L269.028 105.393L266.513 98.8484C265.993 97.4047 266.513 95.7684 267.814 95.1909L305.887 76.9998C307.188 76.3261 308.749 76.9998 309.27 78.4435Z" fill="#DDD7E0"/>
<path d="M283.078 93.2661L287.241 104.046C287.675 105.297 287.241 106.645 286.114 107.222C284.986 107.704 283.772 107.222 283.252 105.971L279.089 95.1911L283.078 93.2661Z" fill="#DDD7E0"/>
<path d="M280.563 111.553C280.476 111.553 280.476 111.553 280.563 111.553C280.39 111.553 280.303 111.361 280.303 111.168L280.737 108.185L279.002 107.607C278.829 107.607 278.742 107.415 278.829 107.222L279.522 104.046L277.267 103.18C277.094 103.083 277.007 102.987 277.094 102.795C277.181 102.602 277.267 102.506 277.441 102.602L279.869 103.565C280.043 103.661 280.043 103.757 280.043 103.95L279.349 107.126L281.083 107.703C281.257 107.703 281.257 107.896 281.257 108.088L280.737 111.265C280.737 111.457 280.65 111.553 280.563 111.553Z" fill="#BA91A8"/>
<path d="M278.828 95.1908C278.048 95.1908 277.267 94.7095 277.007 93.8433C276.574 92.6883 277.007 91.4371 278.048 90.8596C279.089 90.3783 280.216 90.8596 280.736 92.0146C280.91 92.5921 280.997 93.1696 280.736 93.7471C280.563 94.3246 280.129 94.7095 279.696 94.9983C279.349 95.0945 279.089 95.1908 278.828 95.1908ZM278.828 91.3408C278.655 91.3408 278.395 91.3408 278.221 91.4371C277.441 91.8221 277.094 92.7846 277.441 93.5546C277.788 94.4208 278.655 94.7095 279.349 94.4208C279.696 94.2283 279.956 93.9395 280.129 93.5546C280.303 93.1696 280.303 92.6883 280.129 92.3033C279.956 91.7258 279.436 91.3408 278.828 91.3408Z" fill="#BA91A8"/>
<path d="M285.853 91.3408C286.807 90.8595 287.848 91.3408 288.282 92.3995C288.715 93.4583 288.282 94.6133 287.328 95.0945C286.374 95.5758 285.333 95.0945 284.899 94.0358C284.466 92.977 284.899 91.822 285.853 91.3408Z" fill="#BA91A8"/>
<path d="M298.776 89.5124C298.776 89.5124 303.633 92.9774 304.153 89.6087C304.673 86.2399 297.562 78.0587 294.526 79.7912C291.491 81.5237 298.776 89.5124 298.776 89.5124Z" fill="#F48462"/>
<path d="M295.827 91.341C295.827 91.341 300.684 94.806 301.204 91.4373C301.724 88.0685 294.613 79.8873 291.577 81.6198C288.542 83.3523 295.827 91.341 295.827 91.341Z" fill="#F48462"/>
<path d="M291.057 91.9185C291.751 93.0735 292.618 94.1322 293.832 94.806C294.873 95.3835 296 95.576 296.521 94.1322C297.475 91.2447 292.445 82.9673 289.583 84.026C287.414 84.8923 289.669 89.6085 291.057 91.9185Z" fill="#F48462"/>
<path d="M300.597 90.2823C300.51 90.2823 300.424 90.2823 300.424 90.186L294.613 82.3898C294.526 82.2936 294.526 82.1011 294.613 82.0048C294.7 81.9086 294.873 81.9086 294.96 82.0048L300.77 89.801C300.857 89.8973 300.857 90.0898 300.77 90.186C300.684 90.2823 300.597 90.2823 300.597 90.2823Z" fill="black"/>
<path d="M296.174 92.592C296.087 92.592 296 92.592 296 92.4957L290.71 84.9883C290.623 84.892 290.623 84.6995 290.797 84.6033C290.884 84.507 291.057 84.507 291.144 84.6995L296.434 92.207C296.521 92.3032 296.521 92.4957 296.347 92.592C296.261 92.4957 296.174 92.592 296.174 92.592Z" fill="black"/>
<path d="M326.008 71.7061C326.008 71.7061 320.284 72.4761 318.376 73.4385C316.381 74.401 313.173 79.2135 314.56 79.2135C315.948 79.2135 319.157 77.7698 319.157 77.7698C319.157 77.7698 311.178 83.7372 311.438 85.2772C311.698 86.8172 314.3 85.2772 314.3 85.2772C314.3 85.2772 311.004 89.0309 312.219 89.7047C313.433 90.4747 316.728 87.876 316.728 87.876C316.728 87.876 314.3 91.1484 316.728 91.1484C319.07 91.0522 330.084 86.4322 333.033 79.5023C335.895 72.476 326.008 71.7061 326.008 71.7061Z" fill="#F48462"/>
<path d="M314.3 85.4699C314.213 85.4699 314.127 85.4699 314.04 85.3737C313.953 85.2774 313.953 85.0849 314.127 84.9887L320.111 80.6575C320.197 80.5612 320.371 80.5612 320.458 80.7537C320.544 80.85 320.544 81.0425 320.371 81.1387L314.387 85.4699H314.3Z" fill="black"/>
<path d="M316.728 88.1646C316.642 88.1646 316.555 88.1646 316.468 88.0684C316.381 87.9721 316.381 87.7796 316.555 87.6834L322.105 83.5447C322.192 83.4484 322.366 83.4484 322.452 83.6409C322.539 83.7372 322.539 83.9297 322.366 84.0259L316.815 88.1646H316.728Z" fill="black"/>
<path d="M359.138 56.1136H339.538C339.364 56.1136 339.277 56.0174 339.277 55.8249C339.277 55.6324 339.364 55.5361 339.538 55.5361H359.138C359.311 55.5361 359.398 55.6324 359.398 55.8249C359.398 56.0174 359.311 56.1136 359.138 56.1136Z" fill="white"/>
<path d="M249.862 57.5575H235.812C235.812 54.9588 237.72 52.8413 240.061 52.8413H245.612C247.954 52.8413 249.862 54.9588 249.862 57.5575Z" fill="#BA91A8"/>
<path d="M266.6 122.911H219.073L210.054 60.8301H275.62L266.6 122.911Z" fill="#FFE5CC"/>
<path d="M248.561 164.394H237.113C226.445 164.394 217.165 156.502 214.39 145.048L210.054 127.242H275.62L271.283 145.048C268.508 156.502 259.228 164.394 248.561 164.394Z" fill="#FFEAD9"/>
<path d="M276.4 62.3697H209.273C208.319 62.3697 207.539 61.5034 207.539 60.4447V57.7497C207.539 56.691 208.319 55.8247 209.273 55.8247H276.4C277.354 55.8247 278.135 56.691 278.135 57.7497V60.3484C278.135 61.5034 277.354 62.3697 276.4 62.3697Z" fill="#FFE5CC"/>
<path d="M271.977 101.544C271.977 108.762 270.589 115.596 268.161 121.467C266.253 125.991 263.738 128.012 260.789 131.285H222.889C219.941 128.012 217.426 125.991 215.518 121.467C213.089 115.596 211.702 108.762 211.702 101.544C211.702 79.0212 225.231 60.8301 241.883 60.8301C258.534 60.8301 271.977 79.0212 271.977 101.544Z" fill="#BA91A8"/>
<path d="M266.773 104.239C266.773 110.206 265.646 115.788 263.564 120.697C262.003 124.451 259.922 126.087 257.494 128.782H226.185C223.757 126.087 221.675 124.451 220.114 120.697C218.119 115.788 216.905 110.206 216.905 104.239C216.905 85.6624 228.093 70.6475 241.796 70.6475C255.586 70.6475 266.773 85.6624 266.773 104.239Z" fill="#A57F96"/>
<path d="M277.181 127.242C277.181 128.878 276.574 130.322 275.62 131.381C274.666 132.439 273.365 133.113 271.89 133.113H213.696C210.747 133.113 208.406 130.514 208.406 127.242C208.406 125.606 209.013 124.162 209.967 123.103C210.921 122.044 212.222 121.371 213.696 121.371H271.89C274.839 121.371 277.181 124.066 277.181 127.242Z" fill="#FFD2A6"/>
<path d="M252.03 206.648H233.73C231.736 206.648 230.088 204.819 230.088 202.605V160.737H255.672V202.605C255.672 204.819 254.024 206.648 252.03 206.648Z" fill="#FFEAD9"/>
<path d="M226.705 62.6585H210.314C210.14 62.6585 210.054 62.5623 210.054 62.3698C210.054 62.1773 210.14 62.0811 210.314 62.0811H226.705C226.879 62.0811 226.966 62.1773 226.966 62.3698C226.966 62.4661 226.879 62.6585 226.705 62.6585Z" fill="white"/>
<path d="M215.171 163.239C215.084 163.239 215.084 163.239 214.997 163.239L211.441 161.025C211.268 160.929 211.268 160.737 211.355 160.64C211.441 160.448 211.615 160.448 211.701 160.544L215.257 162.758C215.431 162.854 215.431 163.047 215.344 163.143C215.431 163.143 215.257 163.239 215.171 163.239Z" fill="white"/>
<path d="M214.303 169.688L210.227 168.437C210.054 168.437 209.967 168.244 210.054 168.052C210.054 167.859 210.227 167.763 210.401 167.859L214.39 169.11C214.563 169.11 214.65 169.303 214.563 169.495C214.563 169.592 214.39 169.688 214.303 169.688Z" fill="white"/>
<path d="M214.303 177.773H210.314C210.14 177.773 210.054 177.677 210.054 177.484C210.054 177.292 210.14 177.195 210.314 177.195H214.303C214.477 177.195 214.564 177.292 214.564 177.484C214.564 177.677 214.477 177.773 214.303 177.773Z" fill="white"/>
<path d="M265.386 203.953C265.299 203.953 265.212 203.857 265.126 203.761L263.391 200.199C263.304 200.007 263.391 199.911 263.478 199.814C263.564 199.718 263.738 199.814 263.825 199.911L265.559 203.472C265.646 203.664 265.559 203.761 265.472 203.857C265.472 203.953 265.386 203.953 265.386 203.953Z" fill="white"/>
<path d="M270.329 203.953C270.242 203.953 270.156 203.856 270.069 203.76L268.161 199.333C268.074 199.14 268.161 199.044 268.248 198.948C268.421 198.851 268.508 198.948 268.595 199.044L270.503 203.471C270.589 203.664 270.503 203.76 270.416 203.856C270.416 203.953 270.329 203.953 270.329 203.953Z" fill="white"/>
<path d="M285.42 201.739C285.333 201.739 285.246 201.739 285.246 201.643L282.818 198.274C282.731 198.178 282.731 197.985 282.818 197.889C282.905 197.793 283.078 197.793 283.165 197.889L285.593 201.258C285.68 201.354 285.68 201.547 285.593 201.643C285.593 201.739 285.506 201.739 285.42 201.739Z" fill="white"/>
<path d="M230.868 135.712H216.905C216.732 135.712 216.645 135.616 216.645 135.423C216.645 135.231 216.732 135.134 216.905 135.134H230.868C231.042 135.134 231.128 135.231 231.128 135.423C231.128 135.616 231.042 135.712 230.868 135.712Z" fill="white"/>
<path d="M255.672 163.528L243.617 163.239C243.444 163.239 243.357 163.143 243.357 162.95C243.357 162.758 243.53 162.662 243.617 162.662L255.586 162.95C255.759 162.95 255.846 163.047 255.846 163.239C255.932 163.335 255.759 163.528 255.672 163.528Z" fill="white"/>
</g>
<defs>
<clipPath id="clip0_155_10504">
<rect width="362" height="213" fill="white"/>
</clipPath>
</defs>
</svg>
