<svg width="305" height="176" viewBox="0 0 305 176" fill="none" xmlns="http://www.w3.org/2000/svg">
<g clip-path="url(#clip0_155_10812)">
<path d="M36.1 60.2998C27 60.2998 19.5 54.4998 19.5 47.2998C19.5 40.1998 26.9 34.2998 36.1 34.2998C45.2 34.2998 52.7 40.0998 52.7 47.2998C52.7 54.3998 45.2 60.2998 36.1 60.2998ZM36.1 37.0998C28.5 37.0998 22.3 41.6998 22.3 47.2998C22.3 52.8998 28.5 57.4998 36.1 57.4998C43.7 57.4998 49.9 52.8998 49.9 47.2998C49.9 41.6998 43.7 37.0998 36.1 37.0998Z" fill="#BA91A8"/>
<path d="M56.3 75.4998H19.3C17.3 75.4998 15.6 73.8998 15.6 71.7998V50.9998C15.6 48.9998 17.2 47.2998 19.3 47.2998H56.3C58.3 47.2998 60 48.8998 60 50.9998V71.8998C60 73.8998 58.4 75.4998 56.3 75.4998Z" fill="#A88098"/>
<path d="M54.6 75.5998H17.6C15.6 75.5998 13.9 73.9998 13.9 71.8998V50.9998C13.9 48.9998 15.5 47.2998 17.6 47.2998H54.6C56.6 47.2998 58.3 48.8998 58.3 50.9998V71.8998C58.2 73.9998 56.6 75.5998 54.6 75.5998Z" fill="#BA91A8"/>
<path d="M58.2 59.1996H14.1C13.9 59.1996 13.8 58.9996 13.8 58.8996C13.8 58.6996 14 58.5996 14.1 58.5996H58.3C58.5 58.5996 58.6 58.7996 58.6 58.8996C58.6 59.0996 58.4 59.1996 58.2 59.1996Z" fill="white"/>
<path d="M24.5 64.9996H22.4C22.2 64.9996 22.1 64.7996 22.1 64.6996V58.8996C22.1 58.6996 22.3 58.5996 22.4 58.5996H24.5C24.7 58.5996 24.8 58.7996 24.8 58.8996V64.6996C24.9 64.7996 24.7 64.9996 24.5 64.9996ZM22.8 64.2996H24.2V59.1996H22.8V64.2996Z" fill="white"/>
<path d="M49.3 64.9996H47.2C47 64.9996 46.9 64.7996 46.9 64.6996V58.8996C46.9 58.6996 47.1 58.5996 47.2 58.5996H49.3C49.5 58.5996 49.6 58.7996 49.6 58.8996V64.6996C49.6 64.7996 49.5 64.9996 49.3 64.9996ZM47.5 64.2996H48.9V59.1996H47.5V64.2996Z" fill="white"/>
<path d="M69.3 86.8998H6.3C2.8 86.8998 0 84.0998 0 80.5998C0 77.0998 2.8 74.2998 6.3 74.2998H69.3C72.8 74.2998 75.6 77.0998 75.6 80.5998C75.6 84.0998 72.8 86.8998 69.3 86.8998Z" fill="#BAD3E2"/>
<path d="M14.5 163.8C12.6 163.8 11.1 162.3 11.1 160.4V84.9C11.1 83 12.6 81.5 14.5 81.5C16.4 81.5 17.9 83 17.9 84.9V160.4C17.9 162.3 16.4 163.8 14.5 163.8Z" fill="#BAD3E2"/>
<path d="M61.8 163.8C59.9 163.8 58.4 162.3 58.4 160.4V84.9C58.4 83 59.9 81.5 61.8 81.5C63.7 81.5 65.2 83 65.2 84.9V160.4C65.3 162.3 63.7 163.8 61.8 163.8Z" fill="#BAD3E2"/>
<path d="M114.3 12.9C114.3 12.9 121.7 11.3 123.1 8.40003C124.5 5.50003 110.5 8.70003 110.5 8.70003L114.3 12.9Z" fill="#E94033"/>
<path d="M181.3 77.1C181.3 77.1 169.4 76.3 166.7 72.5C164 68.7 171.2 62.5 171.2 62.5L180 64.1L181.3 77.1Z" fill="#F48462"/>
<path d="M169.5 59.9998C169.5 59.9998 147.8 58.9998 141.9 56.6998C136.1 54.3998 127.4 66.5998 127.4 66.5998L130.8 76.6998C130.8 76.6998 144.3 79.5998 156.9 78.4998C164.2 77.7998 171.6 72.3998 171.6 72.3998L169.5 59.9998Z" fill="#F48462"/>
<path d="M81.4 138.1L73.1 137.2L75.2 118.5L84.6 119.6L81.4 138.1Z" fill="#F48462"/>
<path d="M157.7 95.2998C157.7 95.2998 175.5 98.9998 173.6 118.6C171.5 140.4 136.5 145.7 111.7 145.1C86.9 144.5 78.8 142.7 78.8 142.7V106.4H95.1L157.7 95.2998Z" fill="#E94033"/>
<path d="M143.5 57.4998C143.5 57.4998 137.9 50.5998 135.1 46.5998C132.3 42.5998 127.8 36.8998 121.8 33.1998C115.7 29.4998 100.6 27.5998 90.2 34.3998C79.7 41.0998 74.9 50.1998 73.2 59.9998C71.4 69.8997 73.2 73.3998 73.2 73.3998H103.2L130.9 74.3998C130.8 74.4998 135.1 65.1998 143.5 57.4998Z" fill="#A5C4F2"/>
<path d="M113.5 25.3996V25.5996L113.4 29.3996L113.3 32.3996C113.3 32.3996 113.6 33.0996 110.1 32.8996C105.5 32.5996 103.9 30.5996 103.9 30.5996L103.7 23.5996L105.1 23.8996L113.5 25.3996Z" fill="#F48462"/>
<path d="M113.5 25.5999L113.4 29.3999C111.1 29.0999 107 28.1999 105.3 24.6999C105.2 24.3999 105.1 24.1999 105.1 23.8999L113.5 25.5999Z" fill="black"/>
<path d="M114.8 7.4999C114.8 7.4999 119.2 17.3999 117.7 22.8999C116.2 28.4999 111.1 27.5999 108.1 26.5999C105.1 25.4999 103.6 23.6999 103.6 23.6999C103.6 23.6999 100.8 24.6999 98.9 22.0999C97 19.4999 98.1 16.4999 99.7 15.7999C101.3 15.0999 103.2 16.1999 103.2 16.1999L101.7 13.2999C101.7 13.1999 108 -1.4001 114.8 7.4999Z" fill="#F48462"/>
<path d="M144.6 129.1V137.5H125.5V128.1L144.6 129.1Z" fill="#F48462"/>
<path d="M125.2 162.1C126.3 163.5 171 165.1 173.2 164.8C175.4 164.5 174.7 165 175.4 164.5C176.1 164.1 175.5 158.5 175.5 158.5C175.5 158.5 175.5 158.5 175.5 158.4C175.5 157.5 175.2 152.8 171.6 150.3C167.7 147.6 160.9 146.3 160.9 146.3C160.9 146.3 149.3 138.1 148.3 137.7C147.3 137.3 146.4 133 146 132.8C145.6 132.7 125.8 133 124.6 133.8C123.7 134.4 123.9 149.1 124.5 157C124.7 159.8 125 161.7 125.2 162.1Z" fill="#F7B369"/>
<path d="M125.2 162.1C126.3 163.5 171 165.1 173.2 164.8C175.4 164.5 174.7 165 175.4 164.5C176.1 164.1 175.5 158.5 175.5 158.5C175.5 158.5 175.5 158.5 175.5 158.4C168 158.4 147.9 158.3 135.3 157.6C130.9 157.4 127.3 157.2 124.5 157C124.7 159.8 125 161.7 125.2 162.1Z" fill="#E94033"/>
<path d="M49.7 113.1C48.2 114 39.6 157.9 39.5 160.1C39.4 162.3 39.1 161.6 39.4 162.3C39.7 163.1 45.3 163.3 45.3 163.3H45.4C46.3 163.4 51 163.9 54 160.7C57.3 157.2 59.6 150.7 59.6 150.7C59.6 150.7 69.5 140.5 70.1 139.6C70.7 138.7 75 138.5 75.3 138.1C75.5 137.7 78.3 118.1 77.6 116.8C77.1 115.8 62.6 113.7 54.7 113.1C52.1 112.9 50.1 112.8 49.7 113.1Z" fill="#F7B369"/>
<path d="M49.7 113.1C48.2 114 39.6 157.9 39.5 160.1C39.4 162.3 39.1 161.6 39.4 162.3C39.7 163.1 45.3 163.3 45.3 163.3H45.4C46.6 155.9 49.9 136.1 52.5 123.7C53.4 119.4 54.2 115.9 54.8 113.2C52.1 112.9 50.1 112.8 49.7 113.1Z" fill="#E94033"/>
<path d="M152.6 131.5C152.6 131.5 166.7 91.5999 159.5 78.7999C152.3 65.9999 100.8 75.2999 100.8 75.2999L77.1 76.3999C77.1 76.3999 72.3 99.6999 82.4 106.2C92.5 112.7 122.9 110.4 122.9 110.4L119.1 131.4H152.6V131.5Z" fill="#E94033"/>
<path d="M127.4 54L125.5 72.3L77.2 79.3V65.9L127.4 54Z" fill="#A5C4F2"/>
<path d="M127.4 74.3C127.4 74.3 125.4 59.4 123.6 48.8C121.8 38.2 119.2 31.9 119.2 31.9C119.2 31.9 117 31.1 116 30.9C115 30.7 114.4 30.5 114.4 30.5L117.1 50.8L103.8 51.1L102.3 30C102.3 30 98.2 30.5 97 30.8C95.8 31.2 95.8 31.2 95.8 31.2L97.9 73.3L98.9 78.4L127.4 74.3Z" fill="#E94033"/>
<path d="M125.3 79.2999C125.3 79.2999 99.9 74.8999 97.9 73.4999C93.3 70.0999 72.6 71.3999 72.6 71.3999C72.6 71.3999 72.9 82.8999 80.7 88.6999C88.5 94.4999 121.4 90.6999 121.4 90.6999L125.3 79.2999Z" fill="#F48462"/>
<path d="M97.9 30.8999C97.9 30.8999 85.1 32.4999 78.4 41.9999C71.7 51.4999 70.3 74.3999 70.3 74.3999L97.9 73.3999V30.8999Z" fill="#A5C4F2"/>
<path d="M114.2 19.3997C113.9 19.2997 113.9 19.1997 113.9 18.9997C114.4 17.2997 113.1 15.3997 113.1 15.2997C113 15.1997 113 14.9997 113.2 14.8997C113.3 14.7997 113.5 14.7997 113.6 14.9997C113.7 15.0997 115.1 17.1997 114.5 19.1997C114.5 19.3997 114.3 19.3997 114.2 19.3997Z" fill="black"/>
<path d="M102.6 20.7999C102.5 20.7999 102.4 20.7999 102.4 20.6999L99.8 17.9999C99.7 17.8999 99.7 17.6999 99.8 17.5999C99.9 17.4999 100.1 17.4999 100.2 17.5999L102.8 20.2999C102.9 20.3999 102.9 20.5999 102.8 20.6999C102.8 20.7999 102.7 20.7999 102.6 20.7999Z" fill="black"/>
<path d="M99.9 20.0996C99.8 20.0996 99.6 19.9996 99.6 19.7996C99.6 19.5996 99.7 19.4996 99.9 19.3996L101.7 19.0996C101.9 19.0996 102 19.1996 102.1 19.3996C102.1 19.5996 102 19.6996 101.8 19.7996L99.9 20.0996Z" fill="black"/>
<path d="M111.2 22.3998C110.9 22.3998 110.7 22.2998 110.4 22.1998C109.2 21.5998 108.8 20.2998 108.8 20.1998C108.8 20.0998 108.8 19.9998 108.9 19.8998C109 19.7998 109.1 19.7998 109.2 19.7998L112.9 20.9998C113 20.9998 113.1 21.0998 113.1 21.1998C113.1 21.2998 113.1 21.3998 113 21.4998C113 21.5998 112.2 22.3998 111.2 22.3998ZM109.6 20.5998C109.8 20.9998 110.1 21.3998 110.6 21.5998C111.1 21.8998 111.7 21.5998 112.1 21.3998L109.6 20.5998Z" fill="black"/>
<path d="M109.9 15.9C109.7 15.9 109.6 15.8 109.6 15.6L109.4 13.8C109.4 13.6 109.5 13.5 109.7 13.5C109.9 13.5 110 13.6 110 13.8L110.2 15.6C110.2 15.7 110.1 15.9 109.9 15.9Z" fill="black"/>
<path d="M115.2 15.4996C115.1 15.4996 114.9 15.3996 114.9 15.1996L114.6 13.3996C114.6 13.1996 114.7 13.0996 114.9 13.0996C115.1 13.0996 115.2 13.1996 115.2 13.3996L115.5 15.1996C115.5 15.2996 115.4 15.3996 115.2 15.4996Z" fill="black"/>
<path d="M108.3 12.4997H108.2C108 12.3997 108 12.1997 108.1 12.0997C108.7 10.7997 110.3 11.1997 110.4 11.1997C110.6 11.1997 110.7 11.3997 110.6 11.5997C110.6 11.7997 110.4 11.8997 110.2 11.7997C110.1 11.7997 109 11.5997 108.6 12.3997C108.5 12.3997 108.4 12.4997 108.3 12.4997Z" fill="black"/>
<path d="M113.8 11.7C113.7 11.7 113.7 11.7 113.6 11.6C113.5 11.5 113.4 11.3 113.5 11.2C113.8 10.8 114.1 10.6 114.5 10.5C115.3 10.4 116.1 11.1 116.1 11.1C116.2 11.2 116.2 11.4 116.1 11.5C116 11.6 115.8 11.6 115.7 11.5C115.5 11.4 115 11 114.6 11C114.4 11 114.2 11.2 114 11.4C114 11.6 113.9 11.7 113.8 11.7Z" fill="black"/>
<path d="M103.3 16.0996C103.3 16.0996 105.1 16.2996 106.2 14.2996C107.3 12.1996 106.6 9.19963 106.6 9.19963C106.6 9.19963 109.3 9.89963 111.9 8.79963C114.5 7.69963 114.7 7.19963 114.7 7.19963L115.9 9.99963C115.9 9.99963 117.4 5.39963 112.9 3.69963C109.9 2.59963 109.2 2.99963 109.2 2.99963C109.2 2.99963 101.2 3.89963 99.1 7.99963C97 12.0996 98.8 16.4996 98.8 16.4996C98.8 16.4996 101.2 15.3996 103.3 16.0996Z" fill="black"/>
<path d="M97.9 73.0999C97.7 73.0999 97.6 72.9999 97.6 72.7999L97.5 67.6999C97.5 67.4999 97.6 67.3999 97.8 67.3999C98 67.3999 98.1 67.4999 98.1 67.6999L98.2 72.7999C98.2 72.9999 98.1 73.0999 97.9 73.0999Z" fill="white"/>
<path d="M110.2 33.3997C107.9 33.3997 105.1 32.8997 103.7 30.7997C103.6 30.6997 103.6 30.4997 103.8 30.3997C103.9 30.2997 104.1 30.2997 104.2 30.4997C106.6 34.0997 113.8 32.4997 113.9 32.4997C114.1 32.4997 114.2 32.5997 114.3 32.6997C114.3 32.8997 114.2 32.9997 114.1 33.0997C113.8 32.9997 112.1 33.3997 110.2 33.3997Z" fill="white"/>
<path d="M68.2 142.1C68 142.1 67.9 142 67.9 141.8L67.1 135.3C67.1 135.1 67.2 135 67.4 135C67.6 135 67.7 135.1 67.7 135.3L68.5 141.8C68.6 142 68.4 142.1 68.2 142.1Z" fill="white"/>
<path d="M64.9 145.4C64.7 145.4 64.6 145.3 64.6 145.1L63.8 138.6C63.8 138.4 63.9 138.3 64.1 138.3C64.3 138.3 64.4 138.4 64.4 138.6L65.2 145.1C65.2 145.2 65.1 145.4 64.9 145.4Z" fill="white"/>
<path d="M144.1 142.3C144 142.3 143.9 142.2 143.8 142.1C143.7 141.9 143.8 141.8 144 141.7L150.1 139.1C150.3 139 150.4 139.1 150.5 139.3C150.6 139.5 150.5 139.6 150.3 139.7L144.2 142.3C144.2 142.3 144.2 142.3 144.1 142.3Z" fill="white"/>
<path d="M147.8 144.6C147.7 144.6 147.6 144.5 147.5 144.4C147.4 144.2 147.5 144.1 147.7 144L153.8 141.4C154 141.3 154.1 141.4 154.2 141.6C154.3 141.8 154.2 141.9 154 142L147.9 144.6C147.8 144.6 147.8 144.6 147.8 144.6Z" fill="white"/>
<path d="M122.8 110.8C122.7 110.8 122.7 110.8 122.6 110.8C122.5 110.7 122.4 110.6 122.5 110.5C122.5 110.2 123.6 102.8 126.3 101.5C126.9 101.2 127.6 101.2 128.3 101.6C129 102 129.3 102.5 129.4 103.2C129.6 106.1 123.3 110.6 123.1 110.8C123 110.7 122.9 110.8 122.8 110.8ZM127.2 101.8C127 101.8 126.8 101.8 126.6 101.9C124.8 102.8 123.7 107.3 123.3 109.7C125.3 108.2 128.9 105 128.8 103.1C128.8 102.6 128.5 102.3 128.1 102C127.7 101.9 127.4 101.8 127.2 101.8Z" fill="white"/>
<path d="M108.9 53.4996C108.7 53.4996 108.6 53.3996 108.6 53.1996C108.6 52.9996 108.7 52.8996 108.9 52.8996L118.4 52.5996C118.6 52.5996 118.7 52.6996 118.7 52.8996C118.7 53.0996 118.6 53.1996 118.4 53.1996L108.9 53.4996Z" fill="white"/>
<path d="M116.8 7.49982C116.8 7.49982 114.8 -1.40018 105.1 0.199821C95.5 1.89982 97.8 13.3998 97.8 13.3998L101.8 12.3998L116.8 7.49982Z" fill="#E94033"/>
<path d="M119.7 7.19988C119.7 7.19988 116.3 6.99988 107.3 10.0999C104.2 11.1999 101.4 12.4999 101.4 12.4999C101.4 12.4999 111.8 9.29988 115.6 9.79988C117.1 9.99988 118 10.5999 118 10.5999L119.7 7.19988Z" fill="#E94033"/>
<path d="M299.9 165.8H194.8V29.3999H299.4C302.1 29.3999 304.4 31.5999 304.4 34.3999V161.4C304.4 163.8 302.4 165.8 299.9 165.8Z" fill="#FFD2A6"/>
<path d="M273 165.8H196.9C193.6 165.8 191 163.2 191 159.9V33.8999C191 31.3999 193 29.3999 195.5 29.3999H273V165.8Z" fill="#FFEAD9"/>
<path d="M251.303 118.911C263.058 107.156 263.058 88.0984 251.303 76.3437C239.548 64.5891 220.49 64.5891 208.736 76.3437C196.981 88.0984 196.981 107.156 208.736 118.911C220.49 130.666 239.548 130.666 251.303 118.911Z" fill="#BA91A8"/>
<path d="M217.6 111.9C217.6 111.9 217.3 138.4 220.5 139.1C223.7 139.8 223.6 130.6 223.6 130.6C223.6 130.6 223.4 146.2 228.5 146.9C233.6 147.6 234.6 126.4 234.6 126.4C234.6 126.4 235.8 132.5 238.4 131.7C241.1 130.9 239.3 112 239.3 112H217.6V111.9Z" fill="#44A4F2"/>
<path d="M241.324 115.06C250.962 108.809 253.709 95.9293 247.458 86.2912C241.208 76.6532 228.328 73.907 218.69 80.1573C209.052 86.4077 206.306 99.2878 212.556 108.926C218.806 118.564 231.686 121.31 241.324 115.06Z" fill="#FFD2A6"/>
<path d="M273 155.7H191C190.8 155.7 190.7 155.6 190.7 155.4C190.7 155.2 190.8 155.1 191 155.1H273C273.2 155.1 273.3 155.2 273.3 155.4C273.3 155.5 273.2 155.7 273 155.7Z" fill="white"/>
<path d="M273.4 51.1H191C190.8 51.1 190.7 51 190.7 50.8C190.7 50.6 190.8 50.5 191 50.5H273.4C273.6 50.5 273.7 50.6 273.7 50.8C273.7 50.9 273.5 51.1 273.4 51.1Z" fill="white"/>
<path d="M213.4 51.0996C213.2 51.0996 213.1 50.9996 213.1 50.7996V29.3996C213.1 29.1996 213.2 29.0996 213.4 29.0996C213.6 29.0996 213.7 29.1996 213.7 29.3996V50.7996C213.7 50.8996 213.5 51.0996 213.4 51.0996Z" fill="white"/>
<path d="M247.4 51.0996C247.2 51.0996 247.1 50.9996 247.1 50.7996V29.3996C247.1 29.1996 247.2 29.0996 247.4 29.0996C247.6 29.0996 247.7 29.1996 247.7 29.3996V50.7996C247.8 50.8996 247.6 51.0996 247.4 51.0996Z" fill="white"/>
<path d="M230 44.4997C232.43 44.4997 234.4 42.5298 234.4 40.0997C234.4 37.6697 232.43 35.6997 230 35.6997C227.57 35.6997 225.6 37.6697 225.6 40.0997C225.6 42.5298 227.57 44.4997 230 44.4997Z" fill="#BA91A8"/>
<path d="M208.5 44.4998H196.1C195.1 44.4998 194.2 43.5998 194.2 42.5998V37.6998C194.2 36.6998 195.1 35.7998 196.1 35.7998H208.5C209.5 35.7998 210.4 36.6998 210.4 37.6998V42.5998C210.4 43.5998 209.6 44.4998 208.5 44.4998Z" fill="#BA91A8"/>
<path d="M285.2 142.8H276.8V147.7H285.2V142.8Z" fill="#BA91A8"/>
<path d="M179.6 130C190.977 130 200.2 115.494 200.2 97.5997C200.2 79.7057 190.977 65.1997 179.6 65.1997C168.223 65.1997 159 79.7057 159 97.5997C159 115.494 168.223 130 179.6 130Z" fill="#FFD2A6"/>
<path d="M179.6 118.2C185.841 118.2 190.9 108.977 190.9 97.6C190.9 86.2229 185.841 77 179.6 77C173.359 77 168.3 86.2229 168.3 97.6C168.3 108.977 173.359 118.2 179.6 118.2Z" fill="#A5C4F2"/>
<path d="M174.7 61.1996C174.7 61.1996 173 54.7996 170.3 57.1996C167.6 59.6996 167.9 71.6996 171.7 72.3996C175.4 73.1996 174.7 61.1996 174.7 61.1996Z" fill="#F48462"/>
<path d="M178.5 61.7997C178.5 61.7997 176.8 55.3997 174.1 57.7997C171.4 60.2997 171.7 72.2997 175.5 72.9997C179.2 73.7997 178.5 61.7997 178.5 61.7997Z" fill="#F48462"/>
<path d="M182.9 64.7998C183.2 63.2998 183.1 61.7998 182.5 60.3998C182 59.1998 181.2 58.0998 179.8 58.9998C177.1 60.6998 175.5 71.2998 178.7 72.4998C181.1 73.2998 182.4 67.6998 182.9 64.7998Z" fill="#F48462"/>
<path d="M173.6 70.1998C173.4 70.1998 173.3 70.0998 173.3 69.8998L172.9 60.0998C172.9 59.8998 173 59.7998 173.2 59.7998C173.4 59.7998 173.5 59.8998 173.5 60.0998L173.9 69.8998C173.9 69.9998 173.8 70.1998 173.6 70.1998Z" fill="black"/>
<path d="M178 70.9996C177.8 70.9996 177.7 70.8996 177.7 70.6996L178 60.3996C178 60.1996 178.2 60.0996 178.3 60.0996C178.5 60.0996 178.6 60.1996 178.6 60.3996L178.3 70.6996C178.3 70.8996 178.2 70.9996 178 70.9996Z" fill="black"/>
<path d="M122.2 96.3996L121.2 95.4996C120.5 94.8996 120.5 93.8996 121.1 93.1996L139.1 73.0996L142.5 76.0996L124.5 96.1996C123.9 96.8996 122.9 96.9996 122.2 96.3996Z" fill="#BA91A8"/>
<path d="M137.7 78.1997L143.6 76.2997L149.4 74.3997L144.8 70.2997L140.3 66.1997L139 72.1997L137.7 78.1997Z" fill="#BA91A8"/>
<path d="M149.4 74.3997C149.1 74.6997 146.8 73.1997 144.3 70.8997C141.8 68.5997 140 66.4997 140.3 66.1997C140.6 65.8997 142.9 67.3997 145.4 69.6997C147.9 71.8997 149.7 73.9997 149.4 74.3997Z" fill="#DDD7E0"/>
<path d="M132.9 81.7997C132.8 81.7997 132.8 81.7997 132.7 81.6997C132.6 81.5997 132.6 81.3997 132.7 81.2997L137.5 75.8997C137.6 75.7997 137.8 75.7997 137.9 75.8997C138 75.9997 138 76.1997 137.9 76.2997L133.1 81.6997C133.1 81.6997 133 81.7997 132.9 81.7997Z" fill="white"/>
<path d="M119.6 81.6997C119.6 81.6997 122.8 76.9997 129.1 77.0997C131 77.0997 134.2 78.7997 134.2 78.7997L132.3 81.3997C132.3 81.3997 138.8 83.6997 141.4 84.9997C143.5 86.0997 145.3 88.5997 140.1 89.6997C139 89.8997 136.9 97.7997 133.6 98.6997C130.3 99.5997 119.9 93.1997 118.1 88.3997C116 83.5997 119.6 81.6997 119.6 81.6997Z" fill="#F48462"/>
<path d="M132.2 81.6997L128.3 80.5997C128.1 80.5997 128 80.3997 128.1 80.1997C128.1 79.9997 128.3 79.8997 128.5 79.9997L132.3 81.0997C132.5 81.0997 132.6 81.2997 132.5 81.4997C132.5 81.5997 132.4 81.6997 132.2 81.6997Z" fill="black"/>
<path d="M140 90.1H138C137.8 90.1 137.7 90 137.7 89.8C137.7 89.6 137.8 89.5 138 89.5H140C140.2 89.5 140.3 89.6 140.3 89.8C140.3 89.9 140.1 90.1 140 90.1Z" fill="black"/>
<path d="M200.3 109.2C199.7 109.2 199.3 108.7 199.3 108.2V87.0996C199.3 86.4996 199.8 86.0996 200.3 86.0996C200.9 86.0996 201.3 86.5996 201.3 87.0996V108.2C201.3 108.7 200.8 109.2 200.3 109.2Z" fill="#A87E98"/>
<path d="M234.4 166.9C234.4 166.9 212.3 166.3 213.4 168.6C214.5 170.9 222.1 170.7 222.1 170.7C222.1 170.7 203.2 168.4 204.6 172.3C206 176.2 251 176.2 256.8 173.9C262.5 171.6 245.3 170.4 245.3 170.4C245.3 170.4 248.4 167.2 234.4 166.9Z" fill="#44A4F2"/>
<path d="M199.7 151.6C199.7 151.6 198.8 161.7 200.3 162.1C201.8 162.5 202.2 158.1 202.2 158.1C202.2 158.1 201.8 169 204.8 169.5C207.8 170 207 151.3 207 151.3C207 151.3 202.4 150.1 199.7 151.6Z" fill="#44A4F2"/>
<path d="M211.3 151.5H197.9C196.8 151.5 195.8 150.6 195.8 149.4V141C195.8 139.9 196.7 138.9 197.9 138.9H211.3C212.4 138.9 213.4 139.8 213.4 141V149.4C213.4 150.6 212.4 151.5 211.3 151.5Z" fill="#BA91A8"/>
<path d="M166.7 72.8C166.6 72.8 166.5 72.8 166.5 72.7C164.5 70.6 166.2 66.5 166.9 65.2C165.9 65 163.8 64.4 163.6 62.6C163.6 62.2 163.7 61.8 164 61.4C165.1 60.1 168.3 60 168.4 60C168.5 60 168.7 60.1 168.7 60.3C168.7 60.5 168.6 60.6 168.4 60.6C167.6 60.6 165.2 60.9 164.4 61.8C164.2 62 164.1 62.2 164.2 62.5C164.4 64.3 167.4 64.6 167.4 64.7C167.5 64.7 167.6 64.8 167.6 64.9C167.6 65 167.6 65.1 167.6 65.2C167.6 65.2 164.9 70.2 166.9 72.4C167 72.5 167 72.7 166.9 72.8C166.9 72.8 166.8 72.8 166.7 72.8Z" fill="black"/>
</g>
<defs>
<clipPath id="clip0_155_10812">
<rect width="304.4" height="175.5" fill="white"/>
</clipPath>
</defs>
</svg>
