<svg width="18" height="18" viewBox="0 0 18 18" fill="none" xmlns="http://www.w3.org/2000/svg">
<path d="M8.99996 0.666748C4.40829 0.666748 0.666626 4.40841 0.666626 9.00008C0.666626 13.5917 4.40829 17.3334 8.99996 17.3334C13.5916 17.3334 17.3333 13.5917 17.3333 9.00008C17.3333 4.40841 13.5916 0.666748 8.99996 0.666748ZM12.3333 9.62508H9.62496V12.3334C9.62496 12.6751 9.34163 12.9584 8.99996 12.9584C8.65829 12.9584 8.37496 12.6751 8.37496 12.3334V9.62508H5.66663C5.32496 9.62508 5.04163 9.34175 5.04163 9.00008C5.04163 8.65842 5.32496 8.37508 5.66663 8.37508H8.37496V5.66675C8.37496 5.32508 8.65829 5.04175 8.99996 5.04175C9.34163 5.04175 9.62496 5.32508 9.62496 5.66675V8.37508H12.3333C12.675 8.37508 12.9583 8.65842 12.9583 9.00008C12.9583 9.34175 12.675 9.62508 12.3333 9.62508Z" fill="#44A4F2"/>
</svg>
