<svg width="32" height="32" viewBox="0 0 32 32" fill="none" xmlns="http://www.w3.org/2000/svg">
<rect width="32" height="32" rx="16" fill="#E94033" fill-opacity="0.08"/>
<g clip-path="url(#clip0_648_18358)">
<path d="M9.31477 15.0131C9.85789 11.3223 13.2901 8.77062 16.9809 9.31373C18.2401 9.49902 19.4213 10.0363 20.3885 10.8637L19.5178 11.7344C19.226 12.0263 19.2261 12.4995 19.518 12.7913C19.6581 12.9314 19.8481 13.0101 20.0462 13.0101H23.4737C23.8864 13.0101 24.221 12.6755 24.221 12.2628V8.83536C24.2209 8.42261 23.8862 8.08808 23.4735 8.08815C23.2754 8.08819 23.0854 8.1669 22.9453 8.30696L21.9736 9.27853C18.2686 5.97582 12.5876 6.30197 9.28493 10.007C8.11487 11.3196 7.35557 12.9466 7.10109 14.6865C7.00076 15.3033 7.41944 15.8846 8.03622 15.985C8.09178 15.994 8.14791 15.9989 8.2042 15.9996C8.76851 15.9935 9.24219 15.5727 9.31477 15.0131Z" fill="#E94033"/>
<path d="M23.7957 15.9996C23.2314 16.0057 22.7577 16.4264 22.6851 16.9861C22.142 20.6769 18.7098 23.2285 15.0191 22.6855C13.7598 22.5002 12.5786 21.9629 11.6114 21.1355L12.4821 20.2648C12.7739 19.9729 12.7738 19.4997 12.4819 19.2079C12.3418 19.0678 12.1518 18.9891 11.9537 18.9891H8.52634C8.11359 18.9891 7.77899 19.3236 7.77899 19.7364V23.1638C7.7791 23.5766 8.11376 23.9111 8.52652 23.911C8.72463 23.911 8.91465 23.8323 9.05474 23.6922L10.0263 22.7207C13.7305 26.0237 19.411 25.6986 22.7141 21.9944C23.8848 20.6815 24.6444 19.054 24.8988 17.3135C24.9996 16.6967 24.5813 16.1151 23.9646 16.0143C23.9087 16.0052 23.8523 16.0002 23.7957 15.9996Z" fill="#E94033"/>
</g>
<defs>
<clipPath id="clip0_648_18358">
<rect width="18" height="18" fill="white" transform="translate(7 7)"/>
</clipPath>
</defs>
</svg>
