<svg fill="none" height="25" viewBox="0 0 25 25" width="25" xmlns="http://www.w3.org/2000/svg">
    <mask fill="white" id="path-1-inside-1_434_517">
        <path
            d="M12.5 0.15625C12.9792 0.3125 13.4167 0.5625 13.7813 0.916667L17.8438 5.02083C18.1875 5.36458 18.4271 5.78125 18.5729 6.23958H13.5417C12.9688 6.23958 12.5 5.77083 12.5 5.19792V0.15625ZM20.9167 13.1979C21.8542 12.2604 23.3646 12.2604 24.3021 13.1979C25.2396 14.1354 25.2396 15.6458 24.3021 16.5833L17.2083 23.6771C16.3646 24.5208 15.2083 25 14.0208 25H12.5104V23.4896C12.5104 22.2917 12.9896 21.1458 13.8333 20.3021L20.9271 13.2083L20.9167 13.1979ZM6.25 10.4167C5.67708 10.4167 5.20833 10.8854 5.20833 11.4583C5.20833 12.1667 5.67708 13.1354 6.38542 13.9583C6.91667 13.1562 7.29167 12.2083 7.29167 11.4583C7.29167 10.8854 6.82292 10.4167 6.25 10.4167ZM18.75 8.33333V12.4167L12.3542 18.8125C11.2396 19.9271 10.5833 21.3646 10.4479 22.9062H5.20833C2.33333 22.9062 0 20.5729 0 17.6979V5.20833C0 2.33333 2.33333 0 5.20833 0H10.4167V5.20833C10.4167 6.92708 11.8229 8.33333 13.5417 8.33333H18.75ZM13.5417 14.0625C13.5417 13.1979 12.8438 12.5 11.9792 12.5C11.1146 12.5 10.4167 13.1979 10.4167 14.0625C10.4167 14.3958 10.5208 14.7604 10.7188 15.0937C10.3854 15.3854 9.94792 15.625 9.375 15.625C8.91667 15.625 8.45833 15.4896 8.02083 15.2708C8.86458 14.0625 9.375 12.6146 9.375 11.4583C9.375 9.73958 7.96875 8.33333 6.25 8.33333C4.53125 8.33333 3.125 9.73958 3.125 11.4583C3.125 12.7292 3.83333 14.2188 4.90625 15.4167C4.65625 15.5521 4.40625 15.625 4.16667 15.625C3.59375 15.625 3.125 16.0938 3.125 16.6667C3.125 17.2396 3.59375 17.7083 4.16667 17.7083C5.03125 17.7083 5.84375 17.3646 6.5625 16.8229C7.4375 17.375 8.39583 17.7083 9.375 17.7083C12.0833 17.7083 13.5417 15.125 13.5417 14.0625Z" />
    </mask>
    <path
        d="M12.5 0.15625C12.9792 0.3125 13.4167 0.5625 13.7813 0.916667L17.8438 5.02083C18.1875 5.36458 18.4271 5.78125 18.5729 6.23958H13.5417C12.9688 6.23958 12.5 5.77083 12.5 5.19792V0.15625ZM20.9167 13.1979C21.8542 12.2604 23.3646 12.2604 24.3021 13.1979C25.2396 14.1354 25.2396 15.6458 24.3021 16.5833L17.2083 23.6771C16.3646 24.5208 15.2083 25 14.0208 25H12.5104V23.4896C12.5104 22.2917 12.9896 21.1458 13.8333 20.3021L20.9271 13.2083L20.9167 13.1979ZM6.25 10.4167C5.67708 10.4167 5.20833 10.8854 5.20833 11.4583C5.20833 12.1667 5.67708 13.1354 6.38542 13.9583C6.91667 13.1562 7.29167 12.2083 7.29167 11.4583C7.29167 10.8854 6.82292 10.4167 6.25 10.4167ZM18.75 8.33333V12.4167L12.3542 18.8125C11.2396 19.9271 10.5833 21.3646 10.4479 22.9062H5.20833C2.33333 22.9062 0 20.5729 0 17.6979V5.20833C0 2.33333 2.33333 0 5.20833 0H10.4167V5.20833C10.4167 6.92708 11.8229 8.33333 13.5417 8.33333H18.75ZM13.5417 14.0625C13.5417 13.1979 12.8438 12.5 11.9792 12.5C11.1146 12.5 10.4167 13.1979 10.4167 14.0625C10.4167 14.3958 10.5208 14.7604 10.7188 15.0937C10.3854 15.3854 9.94792 15.625 9.375 15.625C8.91667 15.625 8.45833 15.4896 8.02083 15.2708C8.86458 14.0625 9.375 12.6146 9.375 11.4583C9.375 9.73958 7.96875 8.33333 6.25 8.33333C4.53125 8.33333 3.125 9.73958 3.125 11.4583C3.125 12.7292 3.83333 14.2188 4.90625 15.4167C4.65625 15.5521 4.40625 15.625 4.16667 15.625C3.59375 15.625 3.125 16.0938 3.125 16.6667C3.125 17.2396 3.59375 17.7083 4.16667 17.7083C5.03125 17.7083 5.84375 17.3646 6.5625 16.8229C7.4375 17.375 8.39583 17.7083 9.375 17.7083C12.0833 17.7083 13.5417 15.125 13.5417 14.0625Z"
        fill="#44A4F2" />
    <path
        d="M12.5 0.15625L19.1138 -20.126L-8.83333 -29.2392V0.15625H12.5ZM13.7813 0.916667L28.943 -14.0911L28.7959 -14.2397L28.646 -14.3853L13.7813 0.916667ZM17.8438 5.02083L2.68204 20.0286L2.72032 20.0673L2.75881 20.1058L17.8438 5.02083ZM18.5729 6.23958V27.5729H47.748L38.902 -0.228763L18.5729 6.23958ZM20.9167 13.1979L5.83172 -1.88703L-9.25322 13.1979L5.83172 28.2829L20.9167 13.1979ZM12.5104 25H-8.82292V46.3333H12.5104V25ZM13.8333 20.3021L-1.25161 5.21714L-1.25161 5.21714L13.8333 20.3021ZM20.9271 13.2083L36.012 28.2933L51.097 13.2083L36.012 -1.87661L20.9271 13.2083ZM6.38542 13.9583L-9.78313 27.8756L8.60589 49.2393L24.1713 25.7386L6.38542 13.9583ZM18.75 8.33333H40.0833V-13H18.75V8.33333ZM18.75 12.4167L33.8349 27.5016L40.0833 21.2532V12.4167H18.75ZM12.3542 18.8125L-2.73078 3.72755L-2.73078 3.72755L12.3542 18.8125ZM10.4479 22.9062V44.2396H29.9895L31.6994 24.7729L10.4479 22.9062ZM10.4167 0H31.75V-21.3333H10.4167V0ZM10.7188 15.0937L24.7668 31.1487L38.1229 19.4622L29.0623 4.20225L10.7188 15.0937ZM8.02083 15.2708L-9.47027 3.05722L-23.6101 23.3068L-1.51972 34.3519L8.02083 15.2708ZM4.90625 15.4167L15.067 34.1749L38.8217 21.3077L20.7975 1.18363L4.90625 15.4167ZM6.5625 16.8229L17.9463 -1.21928L5.48759 -9.08012L-6.27697 -0.214077L6.5625 16.8229ZM5.88623 20.4385C3.60128 19.6934 1.12323 18.3623 -1.08351 16.2186L28.646 -14.3853C25.7101 -17.2373 22.357 -19.0684 19.1138 -20.126L5.88623 20.4385ZM-1.38046 15.9245L2.68204 20.0286L33.0055 -9.98695L28.943 -14.0911L-1.38046 15.9245ZM2.75881 20.1058C0.449685 17.7967 -0.97649 15.1583 -1.75617 12.7079L38.902 -0.228763C37.8307 -3.59584 35.9253 -7.06749 32.9287 -10.0641L2.75881 20.1058ZM18.5729 -15.0938H13.5417V27.5729H18.5729V-15.0938ZM13.5417 -15.0938C24.7508 -15.0938 33.8333 -6.01124 33.8333 5.19792H-8.83333C-8.83333 17.5529 1.18668 27.5729 13.5417 27.5729V-15.0938ZM33.8333 5.19792V0.15625H-8.83333V5.19792H33.8333ZM36.0016 28.2829C28.6079 35.6765 16.6108 35.6765 9.21714 28.2829L39.387 -1.88703C30.1183 -11.1557 15.1004 -11.1557 5.83172 -1.88703L36.0016 28.2829ZM9.21714 28.2829C1.82345 20.8892 1.82345 8.89207 9.21714 1.49839L39.387 31.6683C48.6557 22.3996 48.6557 7.38166 39.387 -1.88703L9.21714 28.2829ZM9.21714 1.49839L2.12339 8.59214L32.2933 38.762L39.387 31.6683L9.21714 1.49839ZM2.12339 8.59214C5.26825 5.44728 9.53319 3.66667 14.0208 3.66667V46.3333C20.8835 46.3333 27.4609 43.5944 32.2933 38.762L2.12339 8.59214ZM14.0208 3.66667H12.5104V46.3333H14.0208V3.66667ZM33.8438 25V23.4896H-8.82292V25H33.8438ZM33.8438 23.4896C33.8438 27.9929 32.0446 32.2607 28.9183 35.387L-1.25161 5.21714C-6.06541 10.0309 -8.82292 16.5904 -8.82292 23.4896H33.8438ZM28.9183 35.387L36.012 28.2933L5.84214 -1.87661L-1.25161 5.21714L28.9183 35.387ZM36.012 -1.87661L36.0016 -1.88703L5.83172 28.2829L5.84214 28.2933L36.012 -1.87661ZM6.25 -10.9167C-6.10499 -10.9167 -16.125 -0.896661 -16.125 11.4583H26.5417C26.5417 22.6675 17.4592 31.75 6.25 31.75V-10.9167ZM-16.125 11.4583C-16.125 19.6169 -11.8859 25.4327 -9.78313 27.8756L22.554 0.0411024C23.3229 0.934473 24.118 2.07233 24.8051 3.52041C25.3701 4.71126 26.5417 7.52078 26.5417 11.4583H-16.125ZM24.1713 25.7386C25.8697 23.1743 28.625 18.0795 28.625 11.4583H-14.0417C-14.0417 8.52216 -13.3656 6.35057 -12.9595 5.25779C-12.5017 4.02583 -11.9537 3.01344 -11.4004 2.17808L24.1713 25.7386ZM28.625 11.4583C28.625 -0.896661 18.605 -10.9167 6.25 -10.9167V31.75C-4.95916 31.75 -14.0417 22.6675 -14.0417 11.4583H28.625ZM-2.58333 8.33333V12.4167H40.0833V8.33333H-2.58333ZM3.66506 -2.66828L-2.73078 3.72755L27.4391 33.8974L33.8349 27.5016L3.66506 -2.66828ZM-2.73078 3.72755C-7.44692 8.44369 -10.2366 14.5848 -10.8036 21.0396L31.6994 24.7729C31.4033 28.1444 29.9261 31.4105 27.4391 33.8974L-2.73078 3.72755ZM10.4479 1.57291H5.20833V44.2396H10.4479V1.57291ZM5.20833 1.57291C14.1154 1.57291 21.3333 8.79084 21.3333 17.6979H-21.3333C-21.3333 32.355 -9.44874 44.2396 5.20833 44.2396V1.57291ZM21.3333 17.6979V5.20833H-21.3333V17.6979H21.3333ZM21.3333 5.20833C21.3333 14.1154 14.1154 21.3333 5.20833 21.3333V-21.3333C-9.44874 -21.3333 -21.3333 -9.44874 -21.3333 5.20833H21.3333ZM5.20833 21.3333H10.4167V-21.3333H5.20833V21.3333ZM-10.9167 0V5.20833H31.75V0H-10.9167ZM-10.9167 5.20833C-10.9167 18.7092 0.0408449 29.6667 13.5417 29.6667V-13C23.605 -13 31.75 -4.85499 31.75 5.20833H-10.9167ZM13.5417 29.6667H18.75V-13H13.5417V29.6667ZM34.875 14.0625C34.875 1.41584 24.6258 -8.83333 11.9792 -8.83333V33.8333C1.06168 33.8333 -7.79167 24.98 -7.79167 14.0625H34.875ZM11.9792 -8.83333C-0.667489 -8.83333 -10.9167 1.41584 -10.9167 14.0625H31.75C31.75 24.98 22.8967 33.8333 11.9792 33.8333V-8.83333ZM-10.9167 14.0625C-10.9167 18.6681 -9.54265 22.7552 -7.62482 25.9852L29.0623 4.20225C30.5843 6.76563 31.75 10.1235 31.75 14.0625H-10.9167ZM-3.32935 -0.961221C-0.966935 -3.02833 3.38922 -5.70833 9.375 -5.70833V36.9583C16.5066 36.9583 21.7378 33.7992 24.7668 31.1487L-3.32935 -0.961221ZM9.375 -5.70833C13.1001 -5.70833 15.9296 -4.6262 17.5614 -3.81028L-1.51972 34.3519C0.987114 35.6054 4.73319 36.9583 9.375 36.9583V-5.70833ZM25.5119 27.4844C28.2099 23.6207 30.7083 17.9911 30.7083 11.4583H-11.9583C-11.9583 9.07064 -11.4699 7.28042 -11.0932 6.21782C-10.687 5.07172 -10.1459 4.02475 -9.47027 3.05722L25.5119 27.4844ZM30.7083 11.4583C30.7083 -2.04249 19.7508 -13 6.25 -13V29.6667C-3.81332 29.6667 -11.9583 21.5217 -11.9583 11.4583H30.7083ZM6.25 -13C-7.25082 -13 -18.2083 -2.04249 -18.2083 11.4583H24.4583C24.4583 21.5217 16.3133 29.6667 6.25 29.6667V-13ZM-18.2083 11.4583C-18.2083 19.7521 -14.1673 26.0966 -10.985 29.6497L20.7975 1.18363C21.5858 2.06376 22.3684 3.17939 23.0166 4.59793C23.6223 5.92334 24.4583 8.28181 24.4583 11.4583H-18.2083ZM-5.25446 -3.34156C-3.16667 -4.47245 0.0636051 -5.70833 4.16667 -5.70833V36.9583C8.7489 36.9583 12.4792 35.5766 15.067 34.1749L-5.25446 -3.34156ZM4.16667 -5.70833C-8.18832 -5.70833 -18.2083 4.31167 -18.2083 16.6667H24.4583C24.4583 27.8758 15.3758 36.9583 4.16667 36.9583V-5.70833ZM-18.2083 16.6667C-18.2083 29.0217 -8.18832 39.0417 4.16667 39.0417V-3.625C15.3758 -3.625 24.4583 5.45751 24.4583 16.6667H-18.2083ZM4.16667 39.0417C10.8695 39.0417 16.0782 36.3648 19.402 33.8599L-6.27697 -0.214077C-4.39073 -1.63559 -0.807014 -3.625 4.16667 -3.625V39.0417ZM-4.82127 34.8651C-1.36119 37.0483 3.49348 39.0417 9.375 39.0417V-3.625C13.2982 -3.625 16.2362 -2.29826 17.9463 -1.21928L-4.82127 34.8651ZM9.375 39.0417C18.1074 39.0417 24.5563 34.7352 28.3072 30.5814C30.1567 28.5332 31.6129 26.2701 32.6733 23.9507C33.5689 21.9917 34.875 18.4919 34.875 14.0625H-7.79167C-7.79167 10.1643 -6.66785 7.3859 -6.13029 6.2101C-5.42796 4.67392 -4.50571 3.25587 -3.35926 1.98629C-1.01463 -0.610174 3.35089 -3.625 9.375 -3.625V39.0417Z"
        fill="#44A4F2" mask="url(#path-1-inside-1_434_517)" />
</svg>
