<svg width="18" height="18" viewBox="0 0 18 18" fill="none" xmlns="http://www.w3.org/2000/svg">
<g clip-path="url(#clip0_914_2918)">
<path d="M11.25 5.25003H7.6275V4.06053C7.62744 3.76391 7.53943 3.47396 7.3746 3.22734C7.20978 2.98073 6.97553 2.78852 6.70148 2.67502C6.42743 2.56151 6.12588 2.53181 5.83495 2.58966C5.54402 2.64751 5.27678 2.79032 5.067 3.00003L0.657 7.40928C0.23519 7.83122 -0.00177002 8.40341 -0.00177002 9.00003C-0.00177002 9.59665 0.23519 10.1688 0.657 10.5908L5.067 15C5.27678 15.2097 5.54402 15.3526 5.83495 15.4104C6.12588 15.4683 6.42743 15.4386 6.70148 15.325C6.97553 15.2115 7.20978 15.0193 7.3746 14.7727C7.53943 14.5261 7.62744 14.2362 7.6275 13.9395V12.75H12C13.1931 12.7512 14.337 13.2257 15.1807 14.0694C16.0243 14.913 16.4988 16.0569 16.5 17.25C16.5 17.4489 16.579 17.6397 16.7197 17.7804C16.8603 17.921 17.0511 18 17.25 18C17.4489 18 17.6397 17.921 17.7803 17.7804C17.921 17.6397 18 17.4489 18 17.25V12C17.998 10.2104 17.2862 8.49469 16.0208 7.22925C14.7553 5.96381 13.0396 5.25202 11.25 5.25003Z" fill="#E94033"/>
</g>
<defs>
<clipPath id="clip0_914_2918">
<rect width="18" height="18" fill="white"/>
</clipPath>
</defs>
</svg>
