<svg width="56" height="48" viewBox="0 0 56 48" fill="none" xmlns="http://www.w3.org/2000/svg">
<rect width="56" height="48" rx="8" fill="#E94033"/>
<path d="M18.77 22C18.34 22 18 21.66 18 21.23V18.92C18 16.21 20.21 14 22.92 14H25.23C25.66 14 26 14.34 26 14.77C26 15.2 25.66 15.54 25.23 15.54H22.92C21.05 15.54 19.54 17.06 19.54 18.92V21.23C19.54 21.66 19.19 22 18.77 22Z" fill="white"/>
<path d="M37.23 22C36.81 22 36.46 21.66 36.46 21.23V18.92C36.46 17.05 34.94 15.54 33.08 15.54H30.77C30.34 15.54 30 15.19 30 14.77C30 14.35 30.34 14 30.77 14H33.08C35.79 14 38 16.21 38 18.92V21.23C38 21.66 37.66 22 37.23 22Z" fill="white"/>
<path d="M33.08 34H31.69C31.27 34 30.92 33.66 30.92 33.23C30.92 32.81 31.26 32.46 31.69 32.46H33.08C34.95 32.46 36.46 30.94 36.46 29.08V27.7C36.46 27.28 36.8 26.93 37.23 26.93C37.65 26.93 38 27.27 38 27.7V29.08C38 31.79 35.79 34 33.08 34Z" fill="white"/>
<path d="M25.23 34H22.92C20.21 34 18 31.79 18 29.08V26.77C18 26.34 18.34 26 18.77 26C19.2 26 19.54 26.34 19.54 26.77V29.08C19.54 30.95 21.06 32.46 22.92 32.46H25.23C25.65 32.46 26 32.8 26 33.23C26 33.66 25.66 34 25.23 34Z" fill="white"/>
<path d="M34.46 23.23H33.1H22.9H21.54C21.11 23.23 20.77 23.58 20.77 24C20.77 24.42 21.11 24.77 21.54 24.77H22.9H33.1H34.46C34.89 24.77 35.23 24.42 35.23 24C35.23 23.58 34.89 23.23 34.46 23.23Z" fill="white"/>
<path d="M22.9 25.94V26.27C22.9 27.93 24.24 29.27 25.9 29.27H30.1C31.76 29.27 33.1 27.93 33.1 26.27V25.94C33.1 25.82 33.01 25.73 32.89 25.73H23.11C22.99 25.73 22.9 25.82 22.9 25.94Z" fill="white"/>
<path d="M22.9 22.06V21.73C22.9 20.07 24.24 18.73 25.9 18.73H30.1C31.76 18.73 33.1 20.07 33.1 21.73V22.06C33.1 22.18 33.01 22.27 32.89 22.27H23.11C22.99 22.27 22.9 22.18 22.9 22.06Z" fill="white"/>
</svg>
