<svg width="24" height="24" viewBox="0 0 24 24" fill="none" xmlns="http://www.w3.org/2000/svg">
<g clip-path="url(#clip0_148_9307)">
<path d="M8.00007 17.5C8.77977 17.5 9.42052 18.0949 9.4932 18.8555L9.50007 19V21C9.50007 21.8284 8.8285 22.5 8.00007 22.5C7.22037 22.5 6.57962 21.9051 6.50694 21.1445L6.50007 21V19C6.50007 18.1716 7.17164 17.5 8.00007 17.5ZM16.2447 9.88048C16.7939 9.3313 17.6629 9.29698 18.2521 9.77751L18.366 9.88048L20.1319 11.6464C22.475 13.9895 22.475 17.7885 20.1319 20.1317C17.8489 22.4147 14.1837 22.4733 11.8297 20.3073L11.6466 20.1317L9.88072 18.3658C9.29493 17.78 9.29493 16.8302 9.88072 16.2444C10.4299 15.6952 11.299 15.6609 11.8881 16.1414L12.002 16.2444L13.7679 18.0103C14.9395 19.1819 16.839 19.1819 18.0106 18.0103C19.1353 16.8857 19.1803 15.0901 18.1456 13.9117L18.0106 13.7677L16.2447 12.0018C15.6589 11.416 15.6589 10.4663 16.2447 9.88048ZM5.00007 15.5C5.8285 15.5 6.50007 16.1716 6.50007 17C6.50007 17.7797 5.90518 18.4204 5.14453 18.4931L5.00007 18.5H4.00007C3.17164 18.5 2.50007 17.8284 2.50007 17C2.50007 16.2203 3.09495 15.5796 3.85561 15.5069L4.00007 15.5H5.00007ZM8.81804 8.81794C9.36722 8.26877 10.2363 8.23445 10.8255 8.71497L10.9394 8.81794L15.182 13.0606C15.7678 13.6464 15.7678 14.5961 15.182 15.1819C14.6328 15.7311 13.7638 15.7654 13.1746 15.2849L13.0607 15.1819L8.81804 10.9393C8.23226 10.3535 8.23226 9.40373 8.81804 8.81794ZM3.86844 3.8682C6.15151 1.58513 9.81674 1.52659 12.1706 3.69258L12.3537 3.8682L14.1234 5.63783C14.7091 6.22362 14.7091 7.17337 14.1234 7.75916C13.5742 8.30833 12.7051 8.34265 12.1159 7.86212L12.002 7.75915L10.2324 5.98952C9.06083 4.81795 7.16134 4.81795 5.98976 5.98952C4.86505 7.11423 4.82006 8.90979 5.85479 10.0882L5.98976 10.2322L7.7594 12.0018C8.34518 12.5876 8.34518 13.5373 7.7594 14.1231C7.21022 14.6723 6.34116 14.7066 5.752 14.2261L5.63808 14.1231L3.86844 12.3535C1.5253 10.0103 1.5253 6.21134 3.86844 3.8682ZM20.0001 5.5C20.8285 5.5 21.5001 6.17157 21.5001 7C21.5001 7.82843 20.8285 8.5 20.0001 8.5H19.0001C18.1716 8.5 17.5001 7.82843 17.5001 7C17.5001 6.17157 18.1716 5.5 19.0001 5.5H20.0001ZM16.0001 1.5C16.7798 1.5 17.4205 2.09489 17.4932 2.85554L17.5001 3V5C17.5001 5.82843 16.8285 6.5 16.0001 6.5C15.2203 6.5 14.5796 5.90511 14.507 5.14446L14.5001 5V3C14.5001 2.17157 15.1716 1.5 16.0001 1.5Z" fill="#E94033"/>
</g>
<defs>
<clipPath id="clip0_148_9307">
<rect width="24" height="24" fill="white"/>
</clipPath>
</defs>
</svg>
