<svg width="25" height="25" viewBox="0 0 25 25" fill="none" xmlns="http://www.w3.org/2000/svg">
<path d="M5.75 8.25C4.09 8.25 2.75 9.59 2.75 11.25V19.25C2.75 20.91 4.09 22.25 5.75 22.25H7.25C8.35 22.25 9.25 21.35 9.25 20.25V10.25C9.25 9.15 8.35 8.25 7.25 8.25H5.75ZM6.75 17.25C6.75 17.66 6.41 18 6 18C5.59 18 5.25 17.66 5.25 17.25V13.25C5.25 12.84 5.59 12.5 6 12.5C6.41 12.5 6.75 12.84 6.75 13.25V17.25Z" fill="#8C8CA1"/>
<path d="M19.75 2.25H13.75C12.09 2.25 10.75 3.59 10.75 5.25V19.25C10.75 20.91 12.09 22.25 13.75 22.25H14.25C14.53 22.25 14.75 22.03 14.75 21.75V18.25C14.75 17.7 15.2 17.25 15.75 17.25H17.75C18.3 17.25 18.75 17.7 18.75 18.25V21.75C18.75 22.03 18.97 22.25 19.25 22.25H19.75C21.41 22.25 22.75 20.91 22.75 19.25V5.25C22.75 3.59 21.41 2.25 19.75 2.25ZM15.5 13.25C15.5 13.66 15.16 14 14.75 14C14.34 14 14 13.66 14 13.25V8.25C14 7.84 14.34 7.5 14.75 7.5C15.16 7.5 15.5 7.84 15.5 8.25V13.25ZM19.5 13.25C19.5 13.66 19.16 14 18.75 14C18.34 14 18 13.66 18 13.25V8.25C18 7.84 18.34 7.5 18.75 7.5C19.16 7.5 19.5 7.84 19.5 8.25V13.25Z" fill="#8C8CA1"/>
</svg>
